Veleka-Regular.ufo
<glyph name="quotedbl" format="1">
  <advance width="333"/>
  <unicode hex="0022"/>
  <outline>
    <contour>
      <point x="43" y="665" type="line"/>
      <point x="43" y="694"/>
      <point x="57" y="714"/>
      <point x="86" y="714" type="curve" smooth="yes"/>
      <point x="115" y="714"/>
      <point x="128" y="694"/>
      <point x="128" y="665" type="curve"/>
      <point x="94" y="421" type="line"/>
      <point x="78" y="421" type="line"/>
    </contour>
    <contour>
      <point x="205" y="665" type="line"/>
      <point x="205" y="694"/>
      <point x="219" y="714"/>
      <point x="247" y="714" type="curve" smooth="yes"/>
      <point x="276" y="714"/>
      <point x="290" y="694"/>
      <point x="290" y="665" type="curve"/>
      <point x="255" y="421" type="line"/>
      <point x="239" y="421" type="line"/>
    </contour>
  </outline>
</glyph>
<glyph name="ampersand" format="1">
  <advance width="699"/>
  <unicode hex="0026"/>
  <outline>
    <contour>
      <point x="212" y="333" type="line"/>
      <point x="174" y="308"/>
      <point x="140" y="272"/>
      <point x="140" y="209" type="curve" smooth="yes"/>
      <point x="140" y="137"/>
      <point x="178" y="88"/>
      <point x="228" y="65" type="curve" smooth="yes"/>
      <point x="246" y="57"/>
      <point x="265" y="53"/>
      <point x="285" y="53" type="curve" smooth="yes"/>
      <point x="348" y="53"/>
      <point x="384" y="80"/>
      <point x="418" y="109" type="curve"/>
    </contour>
    <contour>
      <point x="272" y="392" type="curve"/>
      <point x="273" y="392" type="line"/>
      <point x="324" y="417"/>
      <point x="364" y="452"/>
      <point x="364" y="527" type="curve" smooth="yes"/>
      <point x="364" y="575"/>
      <point x="344" y="609"/>
      <point x="311" y="626" type="curve" smooth="yes"/>
      <point x="299" y="632"/>
      <point x="285" y="635"/>
      <point x="269" y="635" type="curve" smooth="yes"/>
      <point x="214" y="635"/>
      <point x="179" y="596"/>
      <point x="179" y="541" type="curve" smooth="yes"/>
      <point x="179" y="505"/>
      <point x="195" y="477"/>
      <point x="212" y="455" type="curve" smooth="yes"/>
      <point x="229" y="432"/>
      <point x="252" y="411"/>
    </contour>
    <contour>
      <point x="451" y="74" type="line"/>
      <point x="448" y="71" type="line"/>
      <point x="395" y="29"/>
      <point x="340" y="-15"/>
      <point x="245" y="-15" type="curve" smooth="yes"/>
      <point x="150" y="-15"/>
      <point x="84" y="37"/>
      <point x="54" y="104" type="curve" smooth="yes"/>
      <point x="43" y="128"/>
      <point x="38" y="155"/>
      <point x="38" y="184" type="curve" smooth="yes"/>
      <point x="38" y="281"/>
      <point x="102" y="331"/>
      <point x="172" y="360" type="curve"/>
      <point x="150" y="383" type="line" smooth="yes"/>
      <point x="129" y="404"/>
      <point x="111" y="431"/>
      <point x="99" y="462" type="curve" smooth="yes"/>
      <point x="92" y="478"/>
      <point x="89" y="496"/>
      <point x="89" y="515" type="curve" smooth="yes"/>
      <point x="89" y="598"/>
      <point x="141" y="650"/>
      <point x="204" y="672" type="curve" smooth="yes"/>
      <point x="227" y="680"/>
      <point x="252" y="684"/>
      <point x="279" y="684" type="curve" smooth="yes"/>
      <point x="358" y="684"/>
      <point x="415" y="647"/>
      <point x="441" y="594" type="curve" smooth="yes"/>
      <point x="450" y="576"/>
      <point x="455" y="556"/>
      <point x="455" y="534" type="curve" smooth="yes"/>
      <point x="455" y="432"/>
      <point x="379" y="390"/>
      <point x="308" y="359" type="curve"/>
      <point x="476" y="178" type="line"/>
      <point x="495" y="201"/>
      <point x="513" y="232"/>
      <point x="525" y="263" type="curve" smooth="yes"/>
      <point x="529" y="274"/>
      <point x="532" y="284"/>
      <point x="533" y="294" type="curve" smooth="yes"/>
      <point x="533" y="301"/>
      <point x="522" y="312"/>
      <point x="516" y="313" type="curve" smooth="yes"/>
      <point x="462" y="321" type="line"/>
      <point x="462" y="363" type="line"/>
      <point x="667" y="363" type="line"/>
      <point x="667" y="321" type="line"/>
      <point x="595" y="310" type="line"/>
      <point x="577" y="245"/>
      <point x="545" y="189"/>
      <point x="510" y="141" type="curve"/>
      <point x="591" y="48" type="line"/>
      <point x="680" y="43" type="line"/>
      <point x="680" y="0" type="line"/>
      <point x="496" y="0" type="line"/>
      <point x="496" y="24" type="line"/>
    </contour>
  </outline>
</glyph>
<glyph name="quotesingle" format="1">
  <advance width="170"/>
  <unicode hex="0027"/>
  <outline>
    <contour>
      <point x="43" y="665" type="line"/>
      <point x="43" y="694"/>
      <point x="56" y="714"/>
      <point x="85" y="714" type="curve" smooth="yes"/>
      <point x="114" y="714"/>
      <point x="128" y="694"/>
      <point x="128" y="665" type="curve"/>
      <point x="94" y="421" type="line"/>
      <point x="78" y="421" type="line"/>
    </contour>
  </outline>
</glyph>
<glyph name="asterisk" format="1">
  <advance width="500"/>
  <unicode hex="002A"/>
  <outline>
    <contour>
      <point x="198" y="363" type="line"/>
      <point x="129" y="337" type="line"/>
      <point x="131" y="411" type="line"/>
      <point x="232" y="492" type="line"/>
      <point x="244" y="483" type="line"/>
    </contour>
    <contour>
      <point x="228" y="506" type="line"/>
      <point x="98" y="513" type="line"/>
      <point x="53" y="570" type="line"/>
      <point x="124" y="591" type="line"/>
      <point x="232" y="520" type="line"/>
    </contour>
    <contour>
      <point x="302" y="363" type="line"/>
      <point x="256" y="483" type="line"/>
      <point x="268" y="492" type="line"/>
      <point x="369" y="411" type="line"/>
      <point x="371" y="337" type="line"/>
    </contour>
    <contour>
      <point x="257" y="530" type="line"/>
      <point x="243" y="530" type="line"/>
      <point x="209" y="655" type="line"/>
      <point x="250" y="716" type="line"/>
      <point x="292" y="655" type="line"/>
    </contour>
    <contour>
      <point x="402" y="513" type="line"/>
      <point x="273" y="506" type="line"/>
      <point x="268" y="520" type="line"/>
      <point x="376" y="591" type="line"/>
      <point x="447" y="570" type="line"/>
    </contour>
  </outline>
</glyph>
<glyph name="one" format="1">
  <advance width="562"/>
  <unicode hex="0031"/>
  <outline>
    <contour>
      <point x="330" y="71" type="line" smooth="yes"/>
      <point x="330" y="59"/>
      <point x="340" y="49"/>
      <point x="352" y="49" type="curve" smooth="yes"/>
      <point x="446" y="45" type="line"/>
      <point x="446" y="0" type="line"/>
      <point x="108" y="0" type="line"/>
      <point x="108" y="45" type="line"/>
      <point x="209" y="49" type="line" smooth="yes"/>
      <point x="221" y="49"/>
      <point x="231" y="59"/>
      <point x="231" y="71" type="curve" smooth="yes"/>
      <point x="231" y="602" type="line"/>
      <point x="76" y="575" type="line"/>
      <point x="76" y="620" type="line"/>
      <point x="292" y="687" type="line"/>
      <point x="330" y="687" type="line"/>
    </contour>
  </outline>
</glyph>
<glyph name="four" format="1">
  <advance width="562"/>
  <unicode hex="0034"/>
  <outline>
    <contour>
      <point x="344" y="559" type="line"/>
      <point x="119" y="267" type="line"/>
      <point x="344" y="267" type="line"/>
    </contour>
    <contour>
      <point x="438" y="199" type="line"/>
      <point x="438" y="-16" type="line"/>
      <point x="344" y="-16" type="line"/>
      <point x="344" y="199" type="line"/>
      <point x="40" y="199" type="line"/>
      <point x="40" y="268" type="line"/>
      <point x="368" y="687" type="line"/>
      <point x="438" y="687" type="line"/>
      <point x="438" y="267" type="line"/>
      <point x="523" y="267" type="line"/>
      <point x="523" y="199" type="line"/>
    </contour>
  </outline>
</glyph>
<glyph name="five" format="1">
  <advance width="562"/>
  <unicode hex="0035"/>
  <outline>
    <contour>
      <point x="415" y="193" type="curve" smooth="yes"/>
      <point x="415" y="194" type="line" smooth="yes"/>
      <point x="415" y="301"/>
      <point x="350" y="359"/>
      <point x="244" y="359" type="curve" smooth="yes"/>
      <point x="209" y="359"/>
      <point x="169" y="349"/>
      <point x="140" y="342" type="curve" smooth="yes"/>
      <point x="121" y="337"/>
      <point x="103" y="331"/>
      <point x="85" y="324" type="curve"/>
      <point x="85" y="671" type="line"/>
      <point x="471" y="671" type="line"/>
      <point x="471" y="586" type="line"/>
      <point x="156" y="586" type="line"/>
      <point x="156" y="396" type="line" smooth="yes"/>
      <point x="157" y="396"/>
      <point x="161" y="397"/>
      <point x="169" y="400" type="curve" smooth="yes"/>
      <point x="202" y="411"/>
      <point x="247" y="422"/>
      <point x="292" y="422" type="curve" smooth="yes"/>
      <point x="399" y="422"/>
      <point x="470" y="378"/>
      <point x="502" y="303" type="curve" smooth="yes"/>
      <point x="513" y="278"/>
      <point x="518" y="249"/>
      <point x="518" y="217" type="curve" smooth="yes"/>
      <point x="518" y="99"/>
      <point x="448" y="32"/>
      <point x="357" y="2" type="curve" smooth="yes"/>
      <point x="322" y="-10"/>
      <point x="282" y="-16"/>
      <point x="236" y="-16" type="curve" smooth="yes"/>
      <point x="159" y="-16"/>
      <point x="93" y="17"/>
      <point x="61" y="62" type="curve" smooth="yes"/>
      <point x="51" y="76"/>
      <point x="46" y="89"/>
      <point x="46" y="102" type="curve" smooth="yes"/>
      <point x="46" y="138"/>
      <point x="73" y="158"/>
      <point x="109" y="158" type="curve" smooth="yes"/>
      <point x="117" y="158"/>
      <point x="130" y="156"/>
      <point x="135" y="154" type="curve" smooth="yes"/>
      <point x="173" y="62" type="line"/>
      <point x="188" y="47"/>
      <point x="221" y="33"/>
      <point x="250" y="33" type="curve" smooth="yes"/>
      <point x="330" y="33"/>
      <point x="382" y="81"/>
      <point x="404" y="139" type="curve" smooth="yes"/>
      <point x="411" y="158"/>
      <point x="415" y="176"/>
    </contour>
  </outline>
</glyph>
<glyph name="semicolon" format="1">
  <advance width="279"/>
  <unicode hex="003B"/>
  <outline>
    <contour>
      <point x="123" y="122" type="curve"/>
      <point x="125" y="123" type="line"/>
      <point x="186" y="123"/>
      <point x="208" y="72"/>
      <point x="208" y="11" type="curve" smooth="yes"/>
      <point x="208" y="-72"/>
      <point x="157" y="-125"/>
      <point x="99" y="-152" type="curve" smooth="yes"/>
      <point x="78" y="-162"/>
      <point x="56" y="-168"/>
      <point x="33" y="-170" type="curve"/>
      <point x="33" y="-134" type="line"/>
      <point x="103" y="-118"/>
      <point x="146" y="-81"/>
      <point x="143" y="7" type="curve"/>
      <point x="80" y="7" type="line"/>
      <point x="70" y="17"/>
      <point x="62" y="33"/>
      <point x="62" y="53" type="curve" smooth="yes"/>
      <point x="62" y="84"/>
      <point x="79" y="105"/>
      <point x="99" y="116" type="curve" smooth="yes"/>
      <point x="106" y="120"/>
      <point x="114" y="122"/>
    </contour>
    <contour>
      <point x="197" y="428" type="curve" smooth="yes"/>
      <point x="197" y="396"/>
      <point x="178" y="377"/>
      <point x="156" y="367" type="curve" smooth="yes"/>
      <point x="148" y="363"/>
      <point x="139" y="361"/>
      <point x="130" y="361" type="curve" smooth="yes"/>
      <point x="92" y="361"/>
      <point x="63" y="390"/>
      <point x="63" y="428" type="curve" smooth="yes"/>
      <point x="63" y="466"/>
      <point x="93" y="495"/>
      <point x="131" y="495" type="curve" smooth="yes"/>
      <point x="169" y="495"/>
      <point x="197" y="466"/>
    </contour>
  </outline>
</glyph>
<glyph name="B" format="1">
  <advance width="604"/>
  <unicode hex="0042"/>
  <outline>
    <contour>
      <point x="525" y="510" type="curve"/>
      <point x="524" y="510" type="line"/>
      <point x="524" y="415"/>
      <point x="454" y="376"/>
      <point x="380" y="356" type="curve"/>
      <point x="461" y="356"/>
      <point x="520" y="326"/>
      <point x="549" y="272" type="curve" smooth="yes"/>
      <point x="560" y="252"/>
      <point x="566" y="227"/>
      <point x="566" y="198" type="curve" smooth="yes"/>
      <point x="566" y="55"/>
      <point x="453" y="0"/>
      <point x="312" y="0" type="curve" smooth="yes"/>
      <point x="32" y="0" type="line"/>
      <point x="32" y="43" type="line"/>
      <point x="85" y="47" type="line" smooth="yes"/>
      <point x="97" y="48"/>
      <point x="106" y="57"/>
      <point x="106" y="69" type="curve" smooth="yes"/>
      <point x="106" y="602" type="line" smooth="yes"/>
      <point x="106" y="614"/>
      <point x="97" y="623"/>
      <point x="85" y="624" type="curve" smooth="yes"/>
      <point x="32" y="628" type="line"/>
      <point x="32" y="671" type="line"/>
      <point x="300" y="671" type="line" smooth="yes"/>
      <point x="428" y="671"/>
      <point x="525" y="634"/>
    </contour>
    <contour>
      <point x="267" y="49" type="line"/>
      <point x="266" y="49" type="line" smooth="yes"/>
      <point x="381" y="49"/>
      <point x="455" y="77"/>
      <point x="455" y="190" type="curve" smooth="yes"/>
      <point x="455" y="286"/>
      <point x="394" y="322"/>
      <point x="294" y="322" type="curve" smooth="yes"/>
      <point x="264" y="322"/>
      <point x="231" y="316"/>
      <point x="204" y="316" type="curve"/>
      <point x="204" y="52" type="line"/>
      <point x="228" y="50" type="line" smooth="yes"/>
      <point x="235" y="49"/>
      <point x="242" y="49"/>
      <point x="249" y="49" type="curve" smooth="yes"/>
    </contour>
    <contour>
      <point x="240" y="368" type="line" smooth="yes"/>
      <point x="347" y="368"/>
      <point x="415" y="399"/>
      <point x="415" y="503" type="curve" smooth="yes"/>
      <point x="415" y="590"/>
      <point x="354" y="625"/>
      <point x="261" y="625" type="curve" smooth="yes"/>
      <point x="242" y="625"/>
      <point x="222" y="622"/>
      <point x="204" y="622" type="curve"/>
      <point x="204" y="369" type="line"/>
      <point x="218" y="369" type="line" smooth="yes"/>
      <point x="222" y="369"/>
      <point x="226" y="369"/>
      <point x="229" y="368" type="curve" smooth="yes"/>
    </contour>
  </outline>
</glyph>
<glyph name="braceleft" format="1">
  <advance width="487"/>
  <unicode hex="007B"/>
  <outline>
    <contour>
      <point x="419" y="-123" type="line"/>
      <point x="416" y="-121" type="line"/>
      <point x="347" y="-121"/>
      <point x="276" y="-113"/>
      <point x="243" y="-77" type="curve" smooth="yes"/>
      <point x="214" y="-47"/>
      <point x="202" y="-6"/>
      <point x="202" y="51" type="curve" smooth="yes"/>
      <point x="202" y="137" type="line" smooth="yes"/>
      <point x="202" y="192"/>
      <point x="192" y="239"/>
      <point x="154" y="256" type="curve" smooth="yes"/>
      <point x="129" y="267"/>
      <point x="96" y="269"/>
      <point x="58" y="269" type="curve"/>
      <point x="58" y="314" type="line"/>
      <point x="123" y="314"/>
      <point x="176" y="320"/>
      <point x="192" y="369" type="curve" smooth="yes"/>
      <point x="199" y="391"/>
      <point x="203" y="417"/>
      <point x="203" y="445" type="curve" smooth="yes"/>
      <point x="203" y="531" type="line" smooth="yes"/>
      <point x="203" y="603"/>
      <point x="224" y="658"/>
      <point x="275" y="681" type="curve" smooth="yes"/>
      <point x="313" y="698"/>
      <point x="364" y="704"/>
      <point x="418" y="704" type="curve"/>
      <point x="418" y="663" type="line"/>
      <point x="379" y="663"/>
      <point x="336" y="654"/>
      <point x="317" y="633" type="curve" smooth="yes"/>
      <point x="289" y="602"/>
      <point x="293" y="543"/>
      <point x="293" y="485" type="curve" smooth="yes"/>
      <point x="293" y="429"/>
      <point x="288" y="380"/>
      <point x="264" y="348" type="curve" smooth="yes"/>
      <point x="239" y="315"/>
      <point x="203" y="301"/>
      <point x="158" y="291" type="curve"/>
      <point x="240" y="272"/>
      <point x="290" y="232"/>
      <point x="293" y="132" type="curve" smooth="yes"/>
      <point x="293" y="96" type="line" smooth="yes"/>
      <point x="293" y="25"/>
      <point x="288" y="-46"/>
      <point x="341" y="-68" type="curve" smooth="yes"/>
      <point x="362" y="-77"/>
      <point x="391" y="-82"/>
      <point x="419" y="-82" type="curve"/>
    </contour>
  </outline>
</glyph>
<glyph name="currency" format="1">
  <advance width="609"/>
  <unicode hex="00A4"/>
  <outline>
    <contour>
      <point x="464" y="428" type="curve"/>
      <point x="466" y="428" type="line"/>
      <point x="466" y="499"/>
      <point x="423" y="548"/>
      <point x="373" y="570" type="curve" smooth="yes"/>
      <point x="354" y="578"/>
      <point x="334" y="582"/>
      <point x="313" y="582" type="curve" smooth="yes"/>
      <point x="241" y="582"/>
      <point x="191" y="539"/>
      <point x="169" y="487" type="curve" smooth="yes"/>
      <point x="161" y="468"/>
      <point x="157" y="448"/>
      <point x="157" y="427" type="curve" smooth="yes"/>
      <point x="157" y="354"/>
      <point x="200" y="307"/>
      <point x="252" y="285" type="curve" smooth="yes"/>
      <point x="271" y="277"/>
      <point x="291" y="273"/>
      <point x="312" y="273" type="curve" smooth="yes"/>
      <point x="383" y="273"/>
      <point x="430" y="317"/>
      <point x="452" y="368" type="curve" smooth="yes"/>
      <point x="460" y="387"/>
      <point x="464" y="407"/>
    </contour>
    <contour>
      <point x="523" y="428" type="curve"/>
      <point x="522" y="428" type="line"/>
      <point x="522" y="373"/>
      <point x="505" y="331"/>
      <point x="478" y="299" type="curve"/>
      <point x="581" y="196" type="line"/>
      <point x="545" y="160" type="line"/>
      <point x="442" y="263" type="line"/>
      <point x="411" y="236"/>
      <point x="367" y="216"/>
      <point x="313" y="216" type="curve" smooth="yes"/>
      <point x="256" y="216"/>
      <point x="214" y="235"/>
      <point x="181" y="263" type="curve"/>
      <point x="78" y="160" type="line"/>
      <point x="42" y="196" type="line"/>
      <point x="145" y="299" type="line"/>
      <point x="119" y="331"/>
      <point x="101" y="374"/>
      <point x="101" y="427" type="curve" smooth="yes"/>
      <point x="101" y="484"/>
      <point x="119" y="529"/>
      <point x="147" y="559" type="curve"/>
      <point x="42" y="664" type="line"/>
      <point x="78" y="700" type="line"/>
      <point x="183" y="595" type="line"/>
      <point x="214" y="621"/>
      <point x="260" y="639"/>
      <point x="313" y="639" type="curve" smooth="yes"/>
      <point x="366" y="639"/>
      <point x="409" y="620"/>
      <point x="440" y="594" type="curve"/>
      <point x="546" y="700" type="line"/>
      <point x="582" y="664" type="line"/>
      <point x="478" y="560" type="line"/>
      <point x="503" y="530"/>
      <point x="523" y="480"/>
    </contour>
  </outline>
</glyph>
<glyph name="yen" format="1">
  <advance width="596"/>
  <unicode hex="00A5"/>
  <outline>
    <contour>
      <point x="530" y="616" type="line"/>
      <point x="422" y="426" type="line"/>
      <point x="563" y="426" type="line"/>
      <point x="563" y="382" type="line"/>
      <point x="397" y="382" type="line"/>
      <point x="339" y="280" type="line"/>
      <point x="563" y="280" type="line"/>
      <point x="563" y="236" type="line"/>
      <point x="340" y="236" type="line"/>
      <point x="340" y="68" type="line" smooth="yes"/>
      <point x="340" y="57"/>
      <point x="354" y="47"/>
      <point x="366" y="46" type="curve" smooth="yes"/>
      <point x="424" y="41" type="line"/>
      <point x="424" y="-1" type="line"/>
      <point x="163" y="-1" type="line"/>
      <point x="163" y="41" type="line"/>
      <point x="222" y="46" type="line" smooth="yes"/>
      <point x="236" y="47"/>
      <point x="247" y="56"/>
      <point x="247" y="68" type="curve" smooth="yes"/>
      <point x="247" y="236" type="line"/>
      <point x="31" y="236" type="line"/>
      <point x="31" y="280" type="line"/>
      <point x="245" y="280" type="line"/>
      <point x="191" y="382" type="line"/>
      <point x="31" y="382" type="line"/>
      <point x="31" y="426" type="line"/>
      <point x="167" y="426" type="line"/>
      <point x="68" y="616" type="line"/>
      <point x="9" y="628" type="line"/>
      <point x="9" y="670" type="line"/>
      <point x="233" y="670" type="line"/>
      <point x="233" y="628" type="line"/>
      <point x="190" y="621" type="line" smooth="yes"/>
      <point x="182" y="620"/>
      <point x="172" y="610"/>
      <point x="178" y="599" type="curve" smooth="yes"/>
      <point x="310" y="341" type="line"/>
      <point x="455" y="598" type="line" smooth="yes"/>
      <point x="461" y="610"/>
      <point x="454" y="619"/>
      <point x="443" y="621" type="curve" smooth="yes"/>
      <point x="395" y="629" type="line"/>
      <point x="395" y="671" type="line"/>
      <point x="586" y="671" type="line"/>
      <point x="586" y="629" type="line"/>
    </contour>
  </outline>
</glyph>
<glyph name="section" format="1">
  <advance width="500"/>
  <unicode hex="00A7"/>
  <outline>
    <contour>
      <point x="363" y="300" type="curve" smooth="yes"/>
      <point x="363" y="298" type="line" smooth="yes"/>
      <point x="363" y="328"/>
      <point x="351" y="355"/>
      <point x="327" y="378" type="curve" smooth="yes"/>
      <point x="303" y="401"/>
      <point x="269" y="422"/>
      <point x="225" y="440" type="curve"/>
      <point x="185" y="426"/>
      <point x="154" y="400"/>
      <point x="141" y="361" type="curve" smooth="yes"/>
      <point x="137" y="350"/>
      <point x="135" y="339"/>
      <point x="135" y="328" type="curve" smooth="yes"/>
      <point x="135" y="292"/>
      <point x="149" y="270"/>
      <point x="170" y="251" type="curve" smooth="yes"/>
      <point x="199" y="223"/>
      <point x="236" y="203"/>
      <point x="279" y="183" type="curve"/>
      <point x="309" y="200"/>
      <point x="338" y="229"/>
      <point x="354" y="262" type="curve" smooth="yes"/>
      <point x="360" y="274"/>
      <point x="363" y="287"/>
    </contour>
    <contour>
      <point x="259" y="691" type="curve"/>
      <point x="260" y="689" type="line"/>
      <point x="205" y="689"/>
      <point x="160" y="660"/>
      <point x="160" y="605" type="curve" smooth="yes"/>
      <point x="160" y="575"/>
      <point x="184" y="557"/>
      <point x="204" y="543" type="curve" smooth="yes"/>
      <point x="279" y="491"/>
      <point x="388" y="467"/>
      <point x="429" y="380" type="curve" smooth="yes"/>
      <point x="437" y="363"/>
      <point x="441" y="344"/>
      <point x="441" y="322" type="curve" smooth="yes"/>
      <point x="441" y="258"/>
      <point x="403" y="213"/>
      <point x="365" y="185" type="curve" smooth="yes"/>
      <point x="351" y="175"/>
      <point x="336" y="167"/>
      <point x="321" y="161" type="curve"/>
      <point x="362" y="142"/>
      <point x="399" y="115"/>
      <point x="416" y="73" type="curve" smooth="yes"/>
      <point x="421" y="60"/>
      <point x="424" y="45"/>
      <point x="424" y="29" type="curve" smooth="yes"/>
      <point x="424" y="-48"/>
      <point x="372" y="-94"/>
      <point x="312" y="-113" type="curve" smooth="yes"/>
      <point x="289" y="-120"/>
      <point x="264" y="-124"/>
      <point x="237" y="-124" type="curve" smooth="yes"/>
      <point x="178" y="-124"/>
      <point x="124" y="-110"/>
      <point x="83" y="-92" type="curve"/>
      <point x="83" y="39" type="line"/>
      <point x="133" y="39" type="line"/>
      <point x="137" y="7"/>
      <point x="144" y="-16"/>
      <point x="148" y="-51" type="curve"/>
      <point x="170" y="-66"/>
      <point x="206" y="-77"/>
      <point x="242" y="-77" type="curve" smooth="yes"/>
      <point x="298" y="-77"/>
      <point x="345" y="-52"/>
      <point x="345" y="4" type="curve" smooth="yes"/>
      <point x="345" y="38"/>
      <point x="323" y="59"/>
      <point x="301" y="74" type="curve" smooth="yes"/>
      <point x="224" y="128"/>
      <point x="113" y="151"/>
      <point x="72" y="241" type="curve" smooth="yes"/>
      <point x="64" y="259"/>
      <point x="60" y="280"/>
      <point x="60" y="303" type="curve" smooth="yes"/>
      <point x="60" y="393"/>
      <point x="115" y="432"/>
      <point x="178" y="460" type="curve"/>
      <point x="130" y="484"/>
      <point x="78" y="518"/>
      <point x="78" y="588" type="curve" smooth="yes"/>
      <point x="78" y="696"/>
      <point x="161" y="735"/>
      <point x="272" y="735" type="curve" smooth="yes"/>
      <point x="323" y="735"/>
      <point x="375" y="726"/>
      <point x="411" y="711" type="curve"/>
      <point x="411" y="581" type="line"/>
      <point x="364" y="581" type="line"/>
      <point x="354" y="662" type="line"/>
      <point x="328" y="675"/>
      <point x="299" y="691"/>
    </contour>
  </outline>
</glyph>
<glyph name="copyright" format="1">
  <advance width="836"/>
  <unicode hex="00A9"/>
  <outline>
    <contour>
      <point x="435" y="585" type="curve" smooth="yes"/>
      <point x="436" y="585" type="line" smooth="yes"/>
      <point x="490" y="585"/>
      <point x="534" y="573"/>
      <point x="577" y="560" type="curve"/>
      <point x="577" y="441" type="line"/>
      <point x="532" y="441" type="line"/>
      <point x="517" y="517" type="line"/>
      <point x="502" y="527"/>
      <point x="472" y="538"/>
      <point x="446" y="538" type="curve" smooth="yes"/>
      <point x="368" y="538"/>
      <point x="318" y="489"/>
      <point x="295" y="431" type="curve" smooth="yes"/>
      <point x="286" y="408"/>
      <point x="282" y="382"/>
      <point x="282" y="353" type="curve" smooth="yes"/>
      <point x="282" y="265"/>
      <point x="320" y="201"/>
      <point x="379" y="173" type="curve" smooth="yes"/>
      <point x="398" y="164"/>
      <point x="417" y="160"/>
      <point x="436" y="160" type="curve" smooth="yes"/>
      <point x="468" y="160"/>
      <point x="498" y="168"/>
      <point x="519" y="179" type="curve"/>
      <point x="533" y="264" type="line"/>
      <point x="577" y="264" type="line"/>
      <point x="577" y="138" type="line" smooth="yes"/>
      <point x="576" y="138"/>
      <point x="572" y="137"/>
      <point x="564" y="134" type="curve" smooth="yes"/>
      <point x="529" y="122"/>
      <point x="482" y="114"/>
      <point x="434" y="114" type="curve" smooth="yes"/>
      <point x="316" y="114"/>
      <point x="237" y="174"/>
      <point x="205" y="260" type="curve" smooth="yes"/>
      <point x="194" y="289"/>
      <point x="189" y="319"/>
      <point x="189" y="350" type="curve" smooth="yes"/>
      <point x="189" y="464"/>
      <point x="251" y="535"/>
      <point x="334" y="567" type="curve" smooth="yes"/>
      <point x="364" y="579"/>
      <point x="398" y="585"/>
    </contour>
    <contour>
      <point x="761" y="350" type="curve" smooth="yes"/>
      <point x="761" y="348" type="line" smooth="yes"/>
      <point x="761" y="455"/>
      <point x="716" y="536"/>
      <point x="661" y="592" type="curve" smooth="yes"/>
      <point x="606" y="648"/>
      <point x="527" y="694"/>
      <point x="420" y="694" type="curve" smooth="yes"/>
      <point x="313" y="694"/>
      <point x="233" y="648"/>
      <point x="178" y="592" type="curve" smooth="yes"/>
      <point x="138" y="552"/>
      <point x="107" y="501"/>
      <point x="90" y="440" type="curve" smooth="yes"/>
      <point x="82" y="411"/>
      <point x="78" y="381"/>
      <point x="78" y="350" type="curve" smooth="yes"/>
      <point x="78" y="243"/>
      <point x="123" y="163"/>
      <point x="178" y="107" type="curve" smooth="yes"/>
      <point x="233" y="51"/>
      <point x="312" y="5"/>
      <point x="419" y="5" type="curve" smooth="yes"/>
      <point x="526" y="5"/>
      <point x="605" y="51"/>
      <point x="660" y="107" type="curve" smooth="yes"/>
      <point x="715" y="163"/>
      <point x="761" y="242"/>
    </contour>
    <contour>
      <point x="804" y="349" type="curve" smooth="yes"/>
      <point x="804" y="351" type="line" smooth="yes"/>
      <point x="804" y="229"/>
      <point x="754" y="140"/>
      <point x="691" y="77" type="curve" smooth="yes"/>
      <point x="646" y="32"/>
      <point x="590" y="-3"/>
      <point x="521" y="-23" type="curve" smooth="yes"/>
      <point x="488" y="-32"/>
      <point x="454" y="-37"/>
      <point x="419" y="-37" type="curve" smooth="yes"/>
      <point x="341" y="-37"/>
      <point x="278" y="-14"/>
      <point x="226" y="16" type="curve" smooth="yes"/>
      <point x="142" y="65"/>
      <point x="78" y="145"/>
      <point x="49" y="247" type="curve" smooth="yes"/>
      <point x="40" y="280"/>
      <point x="35" y="314"/>
      <point x="35" y="349" type="curve" smooth="yes"/>
      <point x="35" y="470"/>
      <point x="86" y="560"/>
      <point x="148" y="623" type="curve" smooth="yes"/>
      <point x="193" y="668"/>
      <point x="249" y="703"/>
      <point x="318" y="722" type="curve" smooth="yes"/>
      <point x="351" y="731"/>
      <point x="385" y="736"/>
      <point x="420" y="736" type="curve" smooth="yes"/>
      <point x="499" y="736"/>
      <point x="563" y="712"/>
      <point x="615" y="682" type="curve" smooth="yes"/>
      <point x="699" y="633"/>
      <point x="762" y="554"/>
      <point x="790" y="451" type="curve" smooth="yes"/>
      <point x="799" y="418"/>
      <point x="804" y="384"/>
    </contour>
  </outline>
</glyph>
<glyph name="uni00AD" format="1">
  <advance width="319"/>
  <unicode hex="00AD"/>
  <outline>
    <contour>
      <point x="44" y="203" type="line"/>
      <point x="44" y="278" type="line"/>
      <point x="276" y="278" type="line"/>
      <point x="276" y="203" type="line"/>
    </contour>
  </outline>
</glyph>
<glyph name="degree" format="1">
  <advance width="319"/>
  <unicode hex="00B0"/>
  <outline>
    <contour>
      <point x="230" y="610" type="curve" smooth="yes"/>
      <point x="230" y="650"/>
      <point x="200" y="680"/>
      <point x="160" y="680" type="curve" smooth="yes"/>
      <point x="120" y="680"/>
      <point x="90" y="650"/>
      <point x="90" y="610" type="curve" smooth="yes"/>
      <point x="90" y="570"/>
      <point x="120" y="540"/>
      <point x="160" y="540" type="curve" smooth="yes"/>
      <point x="200" y="540"/>
      <point x="230" y="570"/>
    </contour>
    <contour>
      <point x="270" y="610" type="curve" smooth="yes"/>
      <point x="270" y="559"/>
      <point x="240" y="524"/>
      <point x="203" y="508" type="curve" smooth="yes"/>
      <point x="190" y="502"/>
      <point x="176" y="499"/>
      <point x="161" y="499" type="curve" smooth="yes"/>
      <point x="110" y="499"/>
      <point x="75" y="529"/>
      <point x="59" y="566" type="curve" smooth="yes"/>
      <point x="53" y="579"/>
      <point x="50" y="593"/>
      <point x="50" y="608" type="curve" smooth="yes"/>
      <point x="50" y="659"/>
      <point x="80" y="694"/>
      <point x="117" y="710" type="curve" smooth="yes"/>
      <point x="130" y="716"/>
      <point x="144" y="719"/>
      <point x="159" y="719" type="curve" smooth="yes"/>
      <point x="210" y="719"/>
      <point x="245" y="689"/>
      <point x="261" y="652" type="curve" smooth="yes"/>
      <point x="267" y="639"/>
      <point x="270" y="625"/>
    </contour>
  </outline>
</glyph>
<glyph name="paragraph" format="1">
  <advance width="485"/>
  <unicode hex="00B6"/>
  <outline>
    <contour>
      <point x="27" y="475" type="curve" smooth="yes"/>
      <point x="27" y="622"/>
      <point x="114" y="671"/>
      <point x="261" y="671" type="curve" smooth="yes"/>
      <point x="459" y="671" type="line"/>
      <point x="459" y="635" type="line"/>
      <point x="397" y="625" type="line"/>
      <point x="397" y="-79" type="line"/>
      <point x="348" y="-79" type="line"/>
      <point x="348" y="630" type="line"/>
      <point x="272" y="630" type="line"/>
      <point x="272" y="281" type="line"/>
      <point x="123" y="281"/>
      <point x="27" y="325"/>
    </contour>
  </outline>
</glyph>
<glyph name="cedilla" format="1">
  <advance width="229"/>
  <unicode hex="00B8"/>
  <outline>
    <contour>
      <point x="158" y="-59" type="curve" smooth="yes"/>
      <point x="204" y="-59"/>
      <point x="230" y="-84"/>
      <point x="230" y="-130" type="curve" smooth="yes"/>
      <point x="230" y="-195"/>
      <point x="180" y="-225"/>
      <point x="114" y="-225" type="curve" smooth="yes"/>
      <point x="87" y="-225"/>
      <point x="61" y="-221"/>
      <point x="40" y="-215" type="curve"/>
      <point x="40" y="-176" type="line"/>
      <point x="58" y="-180"/>
      <point x="80" y="-184"/>
      <point x="101" y="-184" type="curve" smooth="yes"/>
      <point x="133" y="-184"/>
      <point x="165" y="-175"/>
      <point x="165" y="-143" type="curve" smooth="yes"/>
      <point x="165" y="-117"/>
      <point x="145" y="-106"/>
      <point x="118" y="-106" type="curve" smooth="yes"/>
      <point x="109" y="-106"/>
      <point x="102" y="-109"/>
      <point x="95" y="-112" type="curve"/>
      <point x="95" y="25" type="line"/>
      <point x="135" y="25" type="line"/>
      <point x="135" y="-63" type="line"/>
      <point x="143" y="-61"/>
      <point x="148" y="-59"/>
    </contour>
  </outline>
</glyph>
<glyph name="eth" format="1">
  <advance width="539"/>
  <unicode hex="00F0"/>
  <outline>
    <contour>
      <point x="408" y="251" type="curve"/>
      <point x="407" y="251" type="line"/>
      <point x="407" y="327"/>
      <point x="396" y="385"/>
      <point x="368" y="430" type="curve"/>
      <point x="342" y="440" type="line" smooth="yes"/>
      <point x="329" y="445"/>
      <point x="309" y="450"/>
      <point x="292" y="450" type="curve" smooth="yes"/>
      <point x="180" y="450"/>
      <point x="137" y="355"/>
      <point x="137" y="243" type="curve" smooth="yes"/>
      <point x="137" y="158"/>
      <point x="160" y="86"/>
      <point x="210" y="51" type="curve" smooth="yes"/>
      <point x="227" y="39"/>
      <point x="248" y="33"/>
      <point x="273" y="33" type="curve" smooth="yes"/>
      <point x="327" y="33"/>
      <point x="358" y="65"/>
      <point x="378" y="102" type="curve" smooth="yes"/>
      <point x="398" y="140"/>
      <point x="408" y="194"/>
    </contour>
    <contour>
      <point x="504" y="271" type="curve"/>
      <point x="505" y="271" type="line"/>
      <point x="505" y="143"/>
      <point x="452" y="49"/>
      <point x="364" y="9" type="curve" smooth="yes"/>
      <point x="335" y="-4"/>
      <point x="304" y="-11"/>
      <point x="270" y="-11" type="curve" smooth="yes"/>
      <point x="154" y="-11"/>
      <point x="82" y="55"/>
      <point x="51" y="142" type="curve" smooth="yes"/>
      <point x="40" y="173"/>
      <point x="34" y="207"/>
      <point x="34" y="244" type="curve" smooth="yes"/>
      <point x="34" y="362"/>
      <point x="95" y="441"/>
      <point x="180" y="476" type="curve" smooth="yes"/>
      <point x="209" y="488"/>
      <point x="241" y="494"/>
      <point x="276" y="494" type="curve" smooth="yes"/>
      <point x="298" y="494"/>
      <point x="320" y="487"/>
      <point x="336" y="482" type="curve" smooth="yes"/>
      <point x="340" y="481"/>
      <point x="342" y="480"/>
      <point x="343" y="480" type="curve"/>
      <point x="326" y="511"/>
      <point x="297" y="547"/>
      <point x="276" y="574" type="curve" smooth="yes"/>
      <point x="270" y="582"/>
      <point x="267" y="587"/>
      <point x="266" y="588" type="curve" smooth="yes"/>
      <point x="139" y="512" type="line"/>
      <point x="117" y="552" type="line"/>
      <point x="232" y="621" type="line"/>
      <point x="197" y="661" type="line"/>
      <point x="113" y="672" type="line"/>
      <point x="113" y="700" type="line"/>
      <point x="236" y="737" type="line"/>
      <point x="308" y="663" type="line"/>
      <point x="417" y="728" type="line"/>
      <point x="440" y="688" type="line"/>
      <point x="338" y="626" type="line"/>
      <point x="403" y="553"/>
      <point x="466" y="463"/>
      <point x="494" y="352" type="curve" smooth="yes"/>
      <point x="501" y="326"/>
      <point x="504" y="299"/>
    </contour>
  </outline>
</glyph>
<glyph name="ntilde" format="1">
  <advance width="566"/>
  <unicode hex="00F1"/>
  <outline>
    <contour>
      <point x="348" y="494" type="curve" smooth="yes"/>
      <point x="349" y="494" type="line" smooth="yes"/>
      <point x="439" y="494"/>
      <point x="483" y="433"/>
      <point x="483" y="340" type="curve" smooth="yes"/>
      <point x="483" y="64" type="line" smooth="yes"/>
      <point x="483" y="52"/>
      <point x="493" y="44"/>
      <point x="504" y="43" type="curve" smooth="yes"/>
      <point x="548" y="40" type="line"/>
      <point x="548" y="1" type="line"/>
      <point x="327" y="1" type="line"/>
      <point x="327" y="40" type="line"/>
      <point x="369" y="43" type="line" smooth="yes"/>
      <point x="380" y="44"/>
      <point x="390" y="52"/>
      <point x="390" y="64" type="curve" smooth="yes"/>
      <point x="390" y="324" type="line" smooth="yes"/>
      <point x="390" y="389"/>
      <point x="361" y="421"/>
      <point x="294" y="421" type="curve" smooth="yes"/>
      <point x="251" y="421"/>
      <point x="214" y="408"/>
      <point x="184" y="392" type="curve"/>
      <point x="184" y="64" type="line" smooth="yes"/>
      <point x="184" y="52"/>
      <point x="194" y="44"/>
      <point x="205" y="43" type="curve" smooth="yes"/>
      <point x="247" y="40" type="line"/>
      <point x="247" y="1" type="line"/>
      <point x="21" y="1" type="line"/>
      <point x="21" y="40" type="line"/>
      <point x="70" y="43" type="line" smooth="yes"/>
      <point x="81" y="44"/>
      <point x="91" y="52"/>
      <point x="91" y="64" type="curve" smooth="yes"/>
      <point x="91" y="411" type="line"/>
      <point x="21" y="411" type="line"/>
      <point x="21" y="444" type="line"/>
      <point x="143" y="482" type="line"/>
      <point x="184" y="482" type="line"/>
      <point x="184" y="432" type="line"/>
      <point x="222" y="454"/>
      <point x="265" y="477"/>
      <point x="312" y="489" type="curve" smooth="yes"/>
      <point x="325" y="492"/>
      <point x="337" y="494"/>
    </contour>
    <contour>
      <point x="365" y="647" type="curve"/>
      <point x="364" y="646" type="line"/>
      <point x="392" y="646"/>
      <point x="414" y="668"/>
      <point x="417" y="694" type="curve"/>
      <point x="457" y="694" type="line"/>
      <point x="445" y="649"/>
      <point x="424" y="612"/>
      <point x="385" y="593" type="curve" smooth="yes"/>
      <point x="372" y="587"/>
      <point x="358" y="584"/>
      <point x="342" y="584" type="curve" smooth="yes"/>
      <point x="304" y="584"/>
      <point x="283" y="607"/>
      <point x="256" y="619" type="curve" smooth="yes"/>
      <point x="241" y="626"/>
      <point x="224" y="632"/>
      <point x="203" y="632" type="curve" smooth="yes"/>
      <point x="175" y="632"/>
      <point x="154" y="609"/>
      <point x="151" y="584" type="curve"/>
      <point x="111" y="584" type="line"/>
      <point x="123" y="629"/>
      <point x="144" y="666"/>
      <point x="183" y="685" type="curve" smooth="yes"/>
      <point x="196" y="691"/>
      <point x="210" y="694"/>
      <point x="226" y="694" type="curve" smooth="yes"/>
      <point x="264" y="694"/>
      <point x="285" y="672"/>
      <point x="311" y="659" type="curve" smooth="yes"/>
      <point x="326" y="652"/>
      <point x="343" y="647"/>
    </contour>
  </outline>
</glyph>
<glyph name="oacute" format="1">
  <advance width="543"/>
  <unicode hex="00F3"/>
  <outline>
    <contour>
      <point x="406" y="241" type="curve"/>
      <point x="405" y="241" type="line"/>
      <point x="405" y="326"/>
      <point x="381" y="397"/>
      <point x="331" y="432" type="curve" smooth="yes"/>
      <point x="315" y="443"/>
      <point x="296" y="449"/>
      <point x="273" y="449" type="curve" smooth="yes"/>
      <point x="195" y="449"/>
      <point x="160" y="385"/>
      <point x="146" y="320" type="curve" smooth="yes"/>
      <point x="141" y="295"/>
      <point x="138" y="269"/>
      <point x="138" y="242" type="curve" smooth="yes"/>
      <point x="138" y="157"/>
      <point x="162" y="87"/>
      <point x="212" y="52" type="curve" smooth="yes"/>
      <point x="229" y="40"/>
      <point x="249" y="34"/>
      <point x="272" y="34" type="curve" smooth="yes"/>
      <point x="349" y="34"/>
      <point x="384" y="98"/>
      <point x="398" y="163" type="curve" smooth="yes"/>
      <point x="403" y="188"/>
      <point x="406" y="214"/>
    </contour>
    <contour>
      <point x="509" y="240" type="curve" smooth="yes"/>
      <point x="509" y="238" type="line" smooth="yes"/>
      <point x="509" y="122"/>
      <point x="451" y="42"/>
      <point x="369" y="6" type="curve" smooth="yes"/>
      <point x="340" y="-7"/>
      <point x="307" y="-13"/>
      <point x="270" y="-13" type="curve" smooth="yes"/>
      <point x="153" y="-13"/>
      <point x="81" y="52"/>
      <point x="50" y="139" type="curve" smooth="yes"/>
      <point x="39" y="170"/>
      <point x="34" y="203"/>
      <point x="34" y="239" type="curve" smooth="yes"/>
      <point x="34" y="356"/>
      <point x="91" y="437"/>
      <point x="174" y="474" type="curve" smooth="yes"/>
      <point x="203" y="487"/>
      <point x="236" y="494"/>
      <point x="273" y="494" type="curve" smooth="yes"/>
      <point x="390" y="494"/>
      <point x="462" y="427"/>
      <point x="493" y="339" type="curve" smooth="yes"/>
      <point x="504" y="308"/>
      <point x="509" y="275"/>
    </contour>
    <contour>
      <point x="370" y="731" type="curve" smooth="yes"/>
      <point x="371" y="731" type="line" smooth="yes"/>
      <point x="400" y="731"/>
      <point x="417" y="714"/>
      <point x="417" y="686" type="curve" smooth="yes"/>
      <point x="417" y="667"/>
      <point x="405" y="655"/>
      <point x="394" y="646" type="curve" smooth="yes"/>
      <point x="241" y="549" type="line"/>
      <point x="185" y="549" type="line"/>
      <point x="317" y="704" type="line" smooth="yes"/>
      <point x="331" y="718"/>
      <point x="341" y="731"/>
    </contour>
  </outline>
</glyph>
<glyph name="otilde" format="1">
  <advance width="543"/>
  <unicode hex="00F5"/>
  <outline>
    <contour>
      <point x="406" y="241" type="curve"/>
      <point x="405" y="241" type="line"/>
      <point x="405" y="326"/>
      <point x="381" y="397"/>
      <point x="331" y="432" type="curve" smooth="yes"/>
      <point x="315" y="443"/>
      <point x="296" y="449"/>
      <point x="273" y="449" type="curve" smooth="yes"/>
      <point x="195" y="449"/>
      <point x="160" y="385"/>
      <point x="146" y="320" type="curve" smooth="yes"/>
      <point x="141" y="295"/>
      <point x="138" y="269"/>
      <point x="138" y="242" type="curve" smooth="yes"/>
      <point x="138" y="157"/>
      <point x="162" y="87"/>
      <point x="212" y="52" type="curve" smooth="yes"/>
      <point x="229" y="40"/>
      <point x="249" y="34"/>
      <point x="272" y="34" type="curve" smooth="yes"/>
      <point x="349" y="34"/>
      <point x="384" y="98"/>
      <point x="398" y="163" type="curve" smooth="yes"/>
      <point x="403" y="188"/>
      <point x="406" y="214"/>
    </contour>
    <contour>
      <point x="509" y="240" type="curve" smooth="yes"/>
      <point x="509" y="238" type="line" smooth="yes"/>
      <point x="509" y="122"/>
      <point x="451" y="42"/>
      <point x="369" y="6" type="curve" smooth="yes"/>
      <point x="340" y="-7"/>
      <point x="307" y="-13"/>
      <point x="270" y="-13" type="curve" smooth="yes"/>
      <point x="153" y="-13"/>
      <point x="81" y="52"/>
      <point x="50" y="139" type="curve" smooth="yes"/>
      <point x="39" y="170"/>
      <point x="34" y="203"/>
      <point x="34" y="239" type="curve" smooth="yes"/>
      <point x="34" y="356"/>
      <point x="91" y="437"/>
      <point x="174" y="474" type="curve" smooth="yes"/>
      <point x="203" y="487"/>
      <point x="236" y="494"/>
      <point x="273" y="494" type="curve" smooth="yes"/>
      <point x="390" y="494"/>
      <point x="462" y="427"/>
      <point x="493" y="339" type="curve" smooth="yes"/>
      <point x="504" y="308"/>
      <point x="509" y="275"/>
    </contour>
    <contour>
      <point x="352" y="645" type="curve"/>
      <point x="351" y="644" type="line"/>
      <point x="379" y="644"/>
      <point x="401" y="666"/>
      <point x="404" y="692" type="curve"/>
      <point x="444" y="692" type="line"/>
      <point x="432" y="647"/>
      <point x="411" y="610"/>
      <point x="372" y="591" type="curve" smooth="yes"/>
      <point x="359" y="585"/>
      <point x="345" y="582"/>
      <point x="329" y="582" type="curve" smooth="yes"/>
      <point x="291" y="582"/>
      <point x="270" y="605"/>
      <point x="243" y="617" type="curve" smooth="yes"/>
      <point x="228" y="624"/>
      <point x="211" y="630"/>
      <point x="190" y="630" type="curve" smooth="yes"/>
      <point x="162" y="630"/>
      <point x="141" y="607"/>
      <point x="138" y="582" type="curve"/>
      <point x="98" y="582" type="line"/>
      <point x="110" y="627"/>
      <point x="131" y="664"/>
      <point x="170" y="683" type="curve" smooth="yes"/>
      <point x="183" y="689"/>
      <point x="197" y="692"/>
      <point x="213" y="692" type="curve" smooth="yes"/>
      <point x="251" y="692"/>
      <point x="272" y="670"/>
      <point x="298" y="657" type="curve" smooth="yes"/>
      <point x="313" y="650"/>
      <point x="330" y="645"/>
    </contour>
  </outline>
</glyph>
<glyph name="yacute" format="1">
  <advance width="529"/>
  <unicode hex="00FD"/>
  <outline>
    <contour>
      <point x="468" y="437" type="line"/>
      <point x="277" y="-31" type="line" smooth="yes"/>
      <point x="260" y="-71"/>
      <point x="238" y="-116"/>
      <point x="215" y="-152" type="curve" smooth="yes"/>
      <point x="191" y="-191"/>
      <point x="158" y="-229"/>
      <point x="98" y="-229" type="curve" smooth="yes"/>
      <point x="64" y="-229"/>
      <point x="41" y="-216"/>
      <point x="30" y="-193" type="curve" smooth="yes"/>
      <point x="27" y="-186"/>
      <point x="25" y="-179"/>
      <point x="25" y="-172" type="curve" smooth="yes"/>
      <point x="25" y="-143"/>
      <point x="39" y="-127"/>
      <point x="57" y="-112" type="curve"/>
      <point x="151" y="-155" type="line"/>
      <point x="188" y="-118"/>
      <point x="216" y="-53"/>
      <point x="235" y="1" type="curve"/>
      <point x="65" y="437" type="line"/>
      <point x="10" y="443" type="line"/>
      <point x="10" y="482" type="line"/>
      <point x="231" y="482" type="line"/>
      <point x="231" y="443" type="line"/>
      <point x="183" y="440" type="line" smooth="yes"/>
      <point x="174" y="439"/>
      <point x="164" y="430"/>
      <point x="168" y="418" type="curve" smooth="yes"/>
      <point x="284" y="123" type="line"/>
      <point x="403" y="418" type="line" smooth="yes"/>
      <point x="407" y="430"/>
      <point x="398" y="439"/>
      <point x="389" y="440" type="curve" smooth="yes"/>
      <point x="342" y="443" type="line"/>
      <point x="342" y="482" type="line"/>
      <point x="520" y="482" type="line"/>
      <point x="520" y="443" type="line"/>
    </contour>
    <contour>
      <point x="374" y="733" type="curve" smooth="yes"/>
      <point x="375" y="733" type="line" smooth="yes"/>
      <point x="404" y="733"/>
      <point x="421" y="716"/>
      <point x="421" y="688" type="curve" smooth="yes"/>
      <point x="421" y="669"/>
      <point x="409" y="657"/>
      <point x="398" y="648" type="curve" smooth="yes"/>
      <point x="245" y="551" type="line"/>
      <point x="189" y="551" type="line"/>
      <point x="321" y="706" type="line" smooth="yes"/>
      <point x="335" y="720"/>
      <point x="345" y="733"/>
    </contour>
  </outline>
</glyph>
<glyph name="dcaron" format="1">
  <advance width="684"/>
  <unicode hex="010F"/>
  <outline>
    <contour>
      <point x="579" y="752" type="curve"/>
      <point x="579" y="751" type="line"/>
      <point x="625" y="751"/>
      <point x="650" y="719"/>
      <point x="650" y="670" type="curve" smooth="yes"/>
      <point x="650" y="594"/>
      <point x="591" y="557"/>
      <point x="526" y="545" type="curve"/>
      <point x="526" y="574" type="line"/>
      <point x="572" y="588"/>
      <point x="598" y="609"/>
      <point x="598" y="669" type="curve"/>
      <point x="539" y="669" type="line" smooth="yes"/>
      <point x="531" y="669"/>
      <point x="524" y="695"/>
      <point x="524" y="705" type="curve" smooth="yes"/>
      <point x="524" y="735"/>
      <point x="549" y="752"/>
    </contour>
    <contour>
      <point x="278" y="55" type="curve"/>
      <point x="278" y="56" type="line"/>
      <point x="321" y="56"/>
      <point x="353" y="74"/>
      <point x="381" y="91" type="curve"/>
      <point x="381" y="431" type="line"/>
      <point x="357" y="439"/>
      <point x="327" y="446"/>
      <point x="296" y="446" type="curve" smooth="yes"/>
      <point x="212" y="446"/>
      <point x="165" y="393"/>
      <point x="145" y="328" type="curve" smooth="yes"/>
      <point x="137" y="303"/>
      <point x="133" y="275"/>
      <point x="133" y="244" type="curve" smooth="yes"/>
      <point x="133" y="161"/>
      <point x="161" y="97"/>
      <point x="216" y="69" type="curve" smooth="yes"/>
      <point x="234" y="60"/>
      <point x="255" y="55"/>
    </contour>
    <contour>
      <point x="289" y="494" type="curve" smooth="yes"/>
      <point x="322" y="494"/>
      <point x="355" y="486"/>
      <point x="382" y="482" type="curve"/>
      <point x="382" y="665" type="line"/>
      <point x="306" y="665" type="line"/>
      <point x="306" y="698" type="line"/>
      <point x="435" y="737" type="line"/>
      <point x="475" y="737" type="line"/>
      <point x="475" y="64" type="line" smooth="yes"/>
      <point x="475" y="52"/>
      <point x="485" y="44"/>
      <point x="496" y="43" type="curve" smooth="yes"/>
      <point x="539" y="40" type="line"/>
      <point x="539" y="1" type="line"/>
      <point x="382" y="1" type="line"/>
      <point x="382" y="54" type="line"/>
      <point x="349" y="29"/>
      <point x="314" y="6"/>
      <point x="269" y="-6" type="curve" smooth="yes"/>
      <point x="255" y="-10"/>
      <point x="241" y="-12"/>
      <point x="226" y="-12" type="curve" smooth="yes"/>
      <point x="156" y="-12"/>
      <point x="109" y="23"/>
      <point x="80" y="66" type="curve" smooth="yes"/>
      <point x="52" y="106"/>
      <point x="34" y="164"/>
      <point x="34" y="228" type="curve" smooth="yes"/>
      <point x="34" y="349"/>
      <point x="92" y="431"/>
      <point x="177" y="471" type="curve" smooth="yes"/>
      <point x="209" y="486"/>
      <point x="246" y="494"/>
    </contour>
  </outline>
</glyph>
<glyph name="gcircumflex" format="1">
  <advance width="524"/>
  <unicode hex="011D"/>
  <outline>
    <contour>
      <point x="200" y="27" type="curve"/>
      <point x="199" y="25" type="line"/>
      <point x="159" y="10"/>
      <point x="123" y="-17"/>
      <point x="123" y="-69" type="curve" smooth="yes"/>
      <point x="123" y="-121"/>
      <point x="158" y="-156"/>
      <point x="195" y="-174" type="curve" smooth="yes"/>
      <point x="211" y="-182"/>
      <point x="231" y="-186"/>
      <point x="254" y="-186" type="curve" smooth="yes"/>
      <point x="320" y="-186"/>
      <point x="368" y="-154"/>
      <point x="387" y="-108" type="curve" smooth="yes"/>
      <point x="393" y="-94"/>
      <point x="396" y="-81"/>
      <point x="396" y="-69" type="curve" smooth="yes"/>
      <point x="396" y="-8"/>
      <point x="329" y="5"/>
      <point x="277" y="15" type="curve" smooth="yes"/>
      <point x="252" y="20"/>
      <point x="223" y="22"/>
    </contour>
    <contour>
      <point x="246" y="451" type="curve"/>
      <point x="245" y="450" type="line"/>
      <point x="179" y="450"/>
      <point x="150" y="395"/>
      <point x="150" y="327" type="curve" smooth="yes"/>
      <point x="150" y="274"/>
      <point x="169" y="235"/>
      <point x="204" y="216" type="curve" smooth="yes"/>
      <point x="216" y="209"/>
      <point x="230" y="206"/>
      <point x="245" y="206" type="curve" smooth="yes"/>
      <point x="309" y="206"/>
      <point x="338" y="264"/>
      <point x="338" y="329" type="curve" smooth="yes"/>
      <point x="338" y="381"/>
      <point x="318" y="422"/>
      <point x="285" y="441" type="curve" smooth="yes"/>
      <point x="274" y="448"/>
      <point x="261" y="451"/>
    </contour>
    <contour>
      <point x="255" y="491" type="curve" smooth="yes"/>
      <point x="254" y="491" type="line" smooth="yes"/>
      <point x="302" y="491"/>
      <point x="337" y="474"/>
      <point x="370" y="461" type="curve"/>
      <point x="505" y="461" type="line"/>
      <point x="505" y="412" type="line"/>
      <point x="405" y="412" type="line"/>
      <point x="420" y="388"/>
      <point x="432" y="361"/>
      <point x="432" y="322" type="curve" smooth="yes"/>
      <point x="432" y="264"/>
      <point x="402" y="225"/>
      <point x="366" y="200" type="curve" smooth="yes"/>
      <point x="329" y="175"/>
      <point x="276" y="159"/>
      <point x="215" y="163" type="curve"/>
      <point x="207" y="149"/>
      <point x="202" y="126"/>
      <point x="205" y="104" type="curve" smooth="yes"/>
      <point x="206" y="99"/>
      <point x="207" y="96"/>
      <point x="208" y="95" type="curve" smooth="yes"/>
      <point x="311" y="86"/>
      <point x="420" y="74"/>
      <point x="465" y="6" type="curve" smooth="yes"/>
      <point x="474" y="-8"/>
      <point x="479" y="-25"/>
      <point x="479" y="-45" type="curve" smooth="yes"/>
      <point x="479" y="-103"/>
      <point x="440" y="-147"/>
      <point x="403" y="-175" type="curve" smooth="yes"/>
      <point x="359" y="-208"/>
      <point x="294" y="-233"/>
      <point x="219" y="-233" type="curve" smooth="yes"/>
      <point x="133" y="-233"/>
      <point x="72" y="-204"/>
      <point x="44" y="-147" type="curve" smooth="yes"/>
      <point x="35" y="-130"/>
      <point x="31" y="-111"/>
      <point x="31" y="-91" type="curve" smooth="yes"/>
      <point x="31" y="-20"/>
      <point x="76" y="19"/>
      <point x="137" y="30" type="curve"/>
      <point x="131" y="45"/>
      <point x="127" y="55"/>
      <point x="127" y="76" type="curve" smooth="yes"/>
      <point x="127" y="89"/>
      <point x="131" y="104"/>
      <point x="139" y="120" type="curve" smooth="yes"/>
      <point x="147" y="136"/>
      <point x="160" y="153"/>
      <point x="177" y="171" type="curve"/>
      <point x="123" y="184"/>
      <point x="83" y="217"/>
      <point x="64" y="266" type="curve" smooth="yes"/>
      <point x="57" y="283"/>
      <point x="54" y="301"/>
      <point x="54" y="321" type="curve" smooth="yes"/>
      <point x="54" y="408"/>
      <point x="105" y="458"/>
      <point x="173" y="479" type="curve" smooth="yes"/>
      <point x="198" y="487"/>
      <point x="225" y="491"/>
    </contour>
    <contour>
      <point x="348" y="548" type="line"/>
      <point x="245" y="647" type="line"/>
      <point x="141" y="548" type="line"/>
      <point x="80" y="548" type="line"/>
      <point x="206" y="717" type="line"/>
      <point x="282" y="717" type="line"/>
      <point x="408" y="548" type="line"/>
    </contour>
  </outline>
</glyph>
<glyph name="Hbar" format="1">
  <advance width="743"/>
  <unicode hex="0126"/>
  <outline>
    <contour>
      <point x="536" y="377" type="line"/>
      <point x="536" y="477" type="line"/>
      <point x="207" y="477" type="line"/>
      <point x="207" y="377" type="line"/>
    </contour>
    <contour>
      <point x="637" y="477" type="line"/>
      <point x="637" y="69" type="line" smooth="yes"/>
      <point x="637" y="57"/>
      <point x="647" y="48"/>
      <point x="659" y="47" type="curve" smooth="yes"/>
      <point x="711" y="43" type="line"/>
      <point x="711" y="0" type="line"/>
      <point x="458" y="0" type="line"/>
      <point x="458" y="43" type="line"/>
      <point x="515" y="47" type="line" smooth="yes"/>
      <point x="526" y="48"/>
      <point x="536" y="58"/>
      <point x="536" y="69" type="curve" smooth="yes"/>
      <point x="536" y="327" type="line"/>
      <point x="207" y="327" type="line"/>
      <point x="207" y="69" type="line" smooth="yes"/>
      <point x="207" y="57"/>
      <point x="216" y="48"/>
      <point x="228" y="47" type="curve" smooth="yes"/>
      <point x="285" y="43" type="line"/>
      <point x="285" y="0" type="line"/>
      <point x="32" y="0" type="line"/>
      <point x="32" y="43" type="line"/>
      <point x="84" y="47" type="line" smooth="yes"/>
      <point x="96" y="48"/>
      <point x="106" y="57"/>
      <point x="106" y="69" type="curve" smooth="yes"/>
      <point x="106" y="477" type="line"/>
      <point x="32" y="477" type="line"/>
      <point x="32" y="527" type="line"/>
      <point x="106" y="527" type="line"/>
      <point x="106" y="602" type="line" smooth="yes"/>
      <point x="106" y="614"/>
      <point x="96" y="622"/>
      <point x="84" y="623" type="curve" smooth="yes"/>
      <point x="32" y="627" type="line"/>
      <point x="32" y="671" type="line"/>
      <point x="285" y="671" type="line"/>
      <point x="285" y="627" type="line"/>
      <point x="228" y="623" type="line" smooth="yes"/>
      <point x="216" y="622"/>
      <point x="207" y="614"/>
      <point x="207" y="602" type="curve" smooth="yes"/>
      <point x="207" y="527" type="line"/>
      <point x="536" y="527" type="line"/>
      <point x="536" y="602" type="line" smooth="yes"/>
      <point x="536" y="613"/>
      <point x="526" y="622"/>
      <point x="515" y="623" type="curve" smooth="yes"/>
      <point x="458" y="627" type="line"/>
      <point x="458" y="671" type="line"/>
      <point x="711" y="671" type="line"/>
      <point x="711" y="627" type="line"/>
      <point x="659" y="623" type="line" smooth="yes"/>
      <point x="647" y="622"/>
      <point x="637" y="614"/>
      <point x="637" y="602" type="curve" smooth="yes"/>
      <point x="637" y="527" type="line"/>
      <point x="711" y="527" type="line"/>
      <point x="711" y="477" type="line"/>
    </contour>
  </outline>
</glyph>
<glyph name="Iogonek" format="1">
  <advance width="330"/>
  <unicode hex="012E"/>
  <outline>
    <contour>
      <point x="198" y="-141" type="curve"/>
      <point x="198" y="-140" type="line"/>
      <point x="215" y="-140"/>
      <point x="228" y="-129"/>
      <point x="239" y="-122" type="curve"/>
      <point x="263" y="-162" type="line"/>
      <point x="243" y="-172"/>
      <point x="225" y="-179"/>
      <point x="203" y="-186" type="curve" smooth="yes"/>
      <point x="193" y="-189"/>
      <point x="184" y="-190"/>
      <point x="177" y="-190" type="curve" smooth="yes"/>
      <point x="121" y="-190"/>
      <point x="77" y="-170"/>
      <point x="77" y="-117" type="curve" smooth="yes"/>
      <point x="77" y="-62"/>
      <point x="112" y="-22"/>
      <point x="145" y="1" type="curve"/>
      <point x="33" y="1" type="line"/>
      <point x="33" y="44" type="line"/>
      <point x="93" y="48" type="line" smooth="yes"/>
      <point x="105" y="49"/>
      <point x="114" y="58"/>
      <point x="114" y="70" type="curve" smooth="yes"/>
      <point x="114" y="603" type="line" smooth="yes"/>
      <point x="114" y="615"/>
      <point x="105" y="623"/>
      <point x="93" y="624" type="curve" smooth="yes"/>
      <point x="33" y="628" type="line"/>
      <point x="33" y="672" type="line"/>
      <point x="297" y="672" type="line"/>
      <point x="297" y="628" type="line"/>
      <point x="236" y="624" type="line" smooth="yes"/>
      <point x="225" y="623"/>
      <point x="215" y="614"/>
      <point x="215" y="603" type="curve" smooth="yes"/>
      <point x="215" y="70" type="line" smooth="yes"/>
      <point x="215" y="59"/>
      <point x="225" y="49"/>
      <point x="236" y="48" type="curve" smooth="yes"/>
      <point x="297" y="44" type="line"/>
      <point x="297" y="1" type="line"/>
      <point x="192" y="1" type="line"/>
      <point x="167" y="-18"/>
      <point x="140" y="-49"/>
      <point x="140" y="-92" type="curve" smooth="yes"/>
      <point x="140" y="-127"/>
      <point x="162" y="-141"/>
    </contour>
  </outline>
</glyph>
<glyph name="OE" format="1">
  <advance width="999"/>
  <unicode hex="0152"/>
  <outline>
    <contour>
      <point x="508" y="334" type="curve"/>
      <point x="509" y="333" type="line"/>
      <point x="509" y="452"/>
      <point x="490" y="557"/>
      <point x="420" y="606" type="curve" smooth="yes"/>
      <point x="397" y="622"/>
      <point x="368" y="630"/>
      <point x="333" y="630" type="curve" smooth="yes"/>
      <point x="182" y="630"/>
      <point x="155" y="487"/>
      <point x="155" y="336" type="curve" smooth="yes"/>
      <point x="155" y="216"/>
      <point x="173" y="112"/>
      <point x="243" y="63" type="curve" smooth="yes"/>
      <point x="266" y="47"/>
      <point x="295" y="39"/>
      <point x="330" y="39" type="curve" smooth="yes"/>
      <point x="481" y="39"/>
      <point x="508" y="183"/>
    </contour>
    <contour>
      <point x="793" y="305" type="line"/>
      <point x="794" y="304" type="line"/>
      <point x="794" y="311"/>
      <point x="783" y="322"/>
      <point x="776" y="322" type="curve" smooth="yes"/>
      <point x="626" y="322" type="line"/>
      <point x="626" y="47" type="line"/>
      <point x="879" y="47" type="line" smooth="yes"/>
      <point x="887" y="47"/>
      <point x="896" y="59"/>
      <point x="897" y="66" type="curve" smooth="yes"/>
      <point x="914" y="165" type="line"/>
      <point x="968" y="165" type="line"/>
      <point x="968" y="-2" type="line"/>
      <point x="523" y="-2" type="line"/>
      <point x="523" y="53" type="line"/>
      <point x="479" y="10"/>
      <point x="419" y="-18"/>
      <point x="334" y="-18" type="curve" smooth="yes"/>
      <point x="179" y="-18"/>
      <point x="94" y="73"/>
      <point x="59" y="194" type="curve" smooth="yes"/>
      <point x="47" y="237"/>
      <point x="41" y="284"/>
      <point x="41" y="335" type="curve" smooth="yes"/>
      <point x="41" y="492"/>
      <point x="97" y="606"/>
      <point x="203" y="659" type="curve" smooth="yes"/>
      <point x="240" y="677"/>
      <point x="283" y="686"/>
      <point x="333" y="686" type="curve" smooth="yes"/>
      <point x="418" y="686"/>
      <point x="479" y="658"/>
      <point x="523" y="615" type="curve"/>
      <point x="523" y="670" type="line"/>
      <point x="935" y="670" type="line"/>
      <point x="935" y="521" type="line"/>
      <point x="875" y="521" type="line"/>
      <point x="860" y="603" type="line" smooth="yes"/>
      <point x="859" y="612"/>
      <point x="852" y="622"/>
      <point x="842" y="622" type="curve" smooth="yes"/>
      <point x="625" y="622" type="line"/>
      <point x="625" y="373" type="line"/>
      <point x="775" y="373" type="line" smooth="yes"/>
      <point x="783" y="373"/>
      <point x="793" y="382"/>
      <point x="793" y="390" type="curve" smooth="yes"/>
      <point x="803" y="459" type="line"/>
      <point x="854" y="459" type="line"/>
      <point x="854" y="236" type="line"/>
      <point x="803" y="236" type="line"/>
    </contour>
  </outline>
</glyph>
<glyph name="Rcedilla" format="1">
  <advance width="648"/>
  <unicode hex="0156"/>
  <outline>
    <contour>
      <point x="257" y="347" type="curve" smooth="yes"/>
      <point x="256" y="347" type="line" smooth="yes"/>
      <point x="364" y="347"/>
      <point x="428" y="381"/>
      <point x="428" y="489" type="curve" smooth="yes"/>
      <point x="428" y="591"/>
      <point x="356" y="622"/>
      <point x="252" y="622" type="curve" smooth="yes"/>
      <point x="206" y="622" type="line"/>
      <point x="206" y="348" type="line"/>
      <point x="227" y="348" type="line" smooth="yes"/>
      <point x="236" y="348"/>
      <point x="248" y="347"/>
    </contour>
    <contour>
      <point x="537" y="493" type="curve" smooth="yes"/>
      <point x="537" y="490" type="line" smooth="yes"/>
      <point x="537" y="384"/>
      <point x="460" y="342"/>
      <point x="373" y="323" type="curve"/>
      <point x="439" y="307"/>
      <point x="481" y="272"/>
      <point x="497" y="210" type="curve" smooth="yes"/>
      <point x="509" y="163"/>
      <point x="515" y="109"/>
      <point x="543" y="77" type="curve" smooth="yes"/>
      <point x="565" y="51"/>
      <point x="598" y="40"/>
      <point x="648" y="40" type="curve"/>
      <point x="648" y="-5" type="line"/>
      <point x="640" y="-5"/>
      <point x="631" y="-9"/>
      <point x="623" y="-11" type="curve" smooth="yes"/>
      <point x="611" y="-14"/>
      <point x="596" y="-17"/>
      <point x="581" y="-17" type="curve" smooth="yes"/>
      <point x="498" y="-17"/>
      <point x="458" y="22"/>
      <point x="437" y="83" type="curve" smooth="yes"/>
      <point x="417" y="140"/>
      <point x="408" y="208"/>
      <point x="373" y="250" type="curve" smooth="yes"/>
      <point x="347" y="281"/>
      <point x="311" y="299"/>
      <point x="252" y="299" type="curve" smooth="yes"/>
      <point x="238" y="299"/>
      <point x="224" y="297"/>
      <point x="211" y="297" type="curve" smooth="yes"/>
      <point x="206" y="297" type="line"/>
      <point x="206" y="69" type="line" smooth="yes"/>
      <point x="206" y="57"/>
      <point x="215" y="48"/>
      <point x="227" y="47" type="curve" smooth="yes"/>
      <point x="280" y="43" type="line"/>
      <point x="280" y="0" type="line"/>
      <point x="31" y="0" type="line"/>
      <point x="31" y="43" type="line"/>
      <point x="83" y="47" type="line" smooth="yes"/>
      <point x="95" y="48"/>
      <point x="105" y="57"/>
      <point x="105" y="69" type="curve" smooth="yes"/>
      <point x="105" y="602" type="line" smooth="yes"/>
      <point x="105" y="614"/>
      <point x="95" y="623"/>
      <point x="83" y="624" type="curve" smooth="yes"/>
      <point x="31" y="628" type="line"/>
      <point x="31" y="671" type="line"/>
      <point x="292" y="671" type="line" smooth="yes"/>
      <point x="432" y="671"/>
      <point x="537" y="632"/>
    </contour>
    <contour>
      <point x="285" y="-64" type="curve"/>
      <point x="285" y="-65" type="line"/>
      <point x="331" y="-65"/>
      <point x="356" y="-98"/>
      <point x="356" y="-146" type="curve" smooth="yes"/>
      <point x="356" y="-204"/>
      <point x="321" y="-237"/>
      <point x="281" y="-256" type="curve" smooth="yes"/>
      <point x="266" y="-263"/>
      <point x="250" y="-268"/>
      <point x="232" y="-271" type="curve"/>
      <point x="232" y="-241" type="line"/>
      <point x="278" y="-227"/>
      <point x="304" y="-208"/>
      <point x="304" y="-148" type="curve"/>
      <point x="245" y="-148" type="line"/>
      <point x="237" y="-140"/>
      <point x="230" y="-127"/>
      <point x="230" y="-111" type="curve" smooth="yes"/>
      <point x="230" y="-82"/>
      <point x="255" y="-64"/>
    </contour>
  </outline>
</glyph>
<glyph name="Utilde" format="1">
  <advance width="711"/>
  <unicode hex="0168"/>
  <outline>
    <contour>
      <point x="376" y="51" type="curve" smooth="yes"/>
      <point x="502" y="51"/>
      <point x="547" y="123"/>
      <point x="547" y="248" type="curve" smooth="yes"/>
      <point x="547" y="602" type="line" smooth="yes"/>
      <point x="547" y="614"/>
      <point x="537" y="623"/>
      <point x="525" y="624" type="curve" smooth="yes"/>
      <point x="468" y="628" type="line"/>
      <point x="468" y="671" type="line"/>
      <point x="685" y="671" type="line"/>
      <point x="685" y="628" type="line"/>
      <point x="627" y="624" type="line" smooth="yes"/>
      <point x="615" y="623"/>
      <point x="606" y="614"/>
      <point x="606" y="602" type="curve" smooth="yes"/>
      <point x="606" y="222" type="line" smooth="yes"/>
      <point x="606" y="56"/>
      <point x="515" y="-16"/>
      <point x="349" y="-16" type="curve" smooth="yes"/>
      <point x="187" y="-16"/>
      <point x="105" y="62"/>
      <point x="105" y="222" type="curve" smooth="yes"/>
      <point x="105" y="602" type="line" smooth="yes"/>
      <point x="105" y="614"/>
      <point x="96" y="623"/>
      <point x="84" y="624" type="curve" smooth="yes"/>
      <point x="31" y="628" type="line"/>
      <point x="31" y="671" type="line"/>
      <point x="285" y="671" type="line"/>
      <point x="285" y="628" type="line"/>
      <point x="228" y="624" type="line" smooth="yes"/>
      <point x="216" y="623"/>
      <point x="207" y="614"/>
      <point x="207" y="602" type="curve" smooth="yes"/>
      <point x="207" y="248" type="line" smooth="yes"/>
      <point x="207" y="121"/>
      <point x="248" y="51"/>
    </contour>
    <contour>
      <point x="447" y="842" type="curve"/>
      <point x="446" y="841" type="line"/>
      <point x="474" y="841"/>
      <point x="496" y="863"/>
      <point x="499" y="889" type="curve"/>
      <point x="539" y="889" type="line"/>
      <point x="527" y="844"/>
      <point x="506" y="807"/>
      <point x="467" y="788" type="curve" smooth="yes"/>
      <point x="454" y="782"/>
      <point x="440" y="779"/>
      <point x="424" y="779" type="curve" smooth="yes"/>
      <point x="386" y="779"/>
      <point x="365" y="802"/>
      <point x="338" y="814" type="curve" smooth="yes"/>
      <point x="323" y="821"/>
      <point x="306" y="827"/>
      <point x="285" y="827" type="curve" smooth="yes"/>
      <point x="257" y="827"/>
      <point x="236" y="804"/>
      <point x="233" y="779" type="curve"/>
      <point x="193" y="779" type="line"/>
      <point x="205" y="824"/>
      <point x="226" y="861"/>
      <point x="265" y="880" type="curve" smooth="yes"/>
      <point x="278" y="886"/>
      <point x="292" y="889"/>
      <point x="308" y="889" type="curve" smooth="yes"/>
      <point x="346" y="889"/>
      <point x="367" y="867"/>
      <point x="393" y="854" type="curve" smooth="yes"/>
      <point x="408" y="847"/>
      <point x="425" y="842"/>
    </contour>
  </outline>
</glyph>
<glyph name="Uring" format="1">
  <advance width="711"/>
  <unicode hex="016E"/>
  <outline>
    <contour>
      <point x="376" y="51" type="curve" smooth="yes"/>
      <point x="502" y="51"/>
      <point x="547" y="123"/>
      <point x="547" y="248" type="curve" smooth="yes"/>
      <point x="547" y="602" type="line" smooth="yes"/>
      <point x="547" y="614"/>
      <point x="537" y="623"/>
      <point x="525" y="624" type="curve" smooth="yes"/>
      <point x="468" y="628" type="line"/>
      <point x="468" y="671" type="line"/>
      <point x="685" y="671" type="line"/>
      <point x="685" y="628" type="line"/>
      <point x="627" y="624" type="line" smooth="yes"/>
      <point x="615" y="623"/>
      <point x="606" y="614"/>
      <point x="606" y="602" type="curve" smooth="yes"/>
      <point x="606" y="222" type="line" smooth="yes"/>
      <point x="606" y="56"/>
      <point x="515" y="-16"/>
      <point x="349" y="-16" type="curve" smooth="yes"/>
      <point x="187" y="-16"/>
      <point x="105" y="62"/>
      <point x="105" y="222" type="curve" smooth="yes"/>
      <point x="105" y="602" type="line" smooth="yes"/>
      <point x="105" y="614"/>
      <point x="96" y="623"/>
      <point x="84" y="624" type="curve" smooth="yes"/>
      <point x="31" y="628" type="line"/>
      <point x="31" y="671" type="line"/>
      <point x="285" y="671" type="line"/>
      <point x="285" y="628" type="line"/>
      <point x="228" y="624" type="line" smooth="yes"/>
      <point x="216" y="623"/>
      <point x="207" y="614"/>
      <point x="207" y="602" type="curve" smooth="yes"/>
      <point x="207" y="248" type="line" smooth="yes"/>
      <point x="207" y="121"/>
      <point x="248" y="51"/>
    </contour>
    <contour>
      <point x="437" y="864" type="curve" smooth="yes"/>
      <point x="437" y="863" type="line" smooth="yes"/>
      <point x="437" y="904"/>
      <point x="407" y="934"/>
      <point x="367" y="934" type="curve" smooth="yes"/>
      <point x="334" y="934"/>
      <point x="313" y="914"/>
      <point x="303" y="891" type="curve" smooth="yes"/>
      <point x="299" y="883"/>
      <point x="297" y="874"/>
      <point x="297" y="864" type="curve" smooth="yes"/>
      <point x="297" y="824"/>
      <point x="327" y="794"/>
      <point x="367" y="794" type="curve" smooth="yes"/>
      <point x="407" y="794"/>
      <point x="437" y="824"/>
    </contour>
    <contour>
      <point x="486" y="863" type="curve" smooth="yes"/>
      <point x="486" y="809"/>
      <point x="452" y="770"/>
      <point x="413" y="754" type="curve" smooth="yes"/>
      <point x="399" y="748"/>
      <point x="384" y="745"/>
      <point x="367" y="745" type="curve" smooth="yes"/>
      <point x="311" y="745"/>
      <point x="275" y="778"/>
      <point x="257" y="818" type="curve" smooth="yes"/>
      <point x="251" y="832"/>
      <point x="248" y="847"/>
      <point x="248" y="863" type="curve" smooth="yes"/>
      <point x="248" y="918"/>
      <point x="282" y="956"/>
      <point x="321" y="973" type="curve" smooth="yes"/>
      <point x="335" y="979"/>
      <point x="351" y="982"/>
      <point x="368" y="982" type="curve" smooth="yes"/>
      <point x="424" y="982"/>
      <point x="460" y="948"/>
      <point x="477" y="909" type="curve" smooth="yes"/>
      <point x="483" y="895"/>
      <point x="486" y="880"/>
    </contour>
  </outline>
</glyph>
<glyph name="Uhungarumlaut" format="1">
  <advance width="711"/>
  <unicode hex="0170"/>
  <outline>
    <contour>
      <point x="376" y="51" type="curve" smooth="yes"/>
      <point x="502" y="51"/>
      <point x="547" y="123"/>
      <point x="547" y="248" type="curve" smooth="yes"/>
      <point x="547" y="602" type="line" smooth="yes"/>
      <point x="547" y="614"/>
      <point x="537" y="623"/>
      <point x="525" y="624" type="curve" smooth="yes"/>
      <point x="468" y="628" type="line"/>
      <point x="468" y="671" type="line"/>
      <point x="685" y="671" type="line"/>
      <point x="685" y="628" type="line"/>
      <point x="627" y="624" type="line" smooth="yes"/>
      <point x="615" y="623"/>
      <point x="606" y="614"/>
      <point x="606" y="602" type="curve" smooth="yes"/>
      <point x="606" y="222" type="line" smooth="yes"/>
      <point x="606" y="56"/>
      <point x="515" y="-16"/>
      <point x="349" y="-16" type="curve" smooth="yes"/>
      <point x="187" y="-16"/>
      <point x="105" y="62"/>
      <point x="105" y="222" type="curve" smooth="yes"/>
      <point x="105" y="602" type="line" smooth="yes"/>
      <point x="105" y="614"/>
      <point x="96" y="623"/>
      <point x="84" y="624" type="curve" smooth="yes"/>
      <point x="31" y="628" type="line"/>
      <point x="31" y="671" type="line"/>
      <point x="285" y="671" type="line"/>
      <point x="285" y="628" type="line"/>
      <point x="228" y="624" type="line" smooth="yes"/>
      <point x="216" y="623"/>
      <point x="207" y="614"/>
      <point x="207" y="602" type="curve" smooth="yes"/>
      <point x="207" y="248" type="line" smooth="yes"/>
      <point x="207" y="121"/>
      <point x="248" y="51"/>
    </contour>
    <contour>
      <point x="377" y="928" type="curve"/>
      <point x="377" y="927" type="line"/>
      <point x="406" y="927"/>
      <point x="423" y="910"/>
      <point x="423" y="882" type="curve" smooth="yes"/>
      <point x="423" y="862"/>
      <point x="412" y="851"/>
      <point x="399" y="843" type="curve" smooth="yes"/>
      <point x="248" y="746" type="line"/>
      <point x="191" y="746" type="line"/>
      <point x="324" y="901" type="line" smooth="yes"/>
      <point x="338" y="915"/>
      <point x="348" y="928"/>
    </contour>
    <contour>
      <point x="572" y="927" type="curve"/>
      <point x="572" y="928" type="line"/>
      <point x="601" y="928"/>
      <point x="618" y="911"/>
      <point x="618" y="883" type="curve" smooth="yes"/>
      <point x="618" y="863"/>
      <point x="607" y="851"/>
      <point x="595" y="842" type="curve" smooth="yes"/>
      <point x="443" y="745" type="line"/>
      <point x="386" y="745" type="line"/>
      <point x="520" y="900" type="line" smooth="yes"/>
      <point x="533" y="917"/>
      <point x="544" y="927"/>
    </contour>
  </outline>
</glyph>
<glyph name="Uogonek" format="1">
  <advance width="711"/>
  <unicode hex="0172"/>
  <outline>
    <contour>
      <point x="421" y="-141" type="curve"/>
      <point x="421" y="-140" type="line"/>
      <point x="437" y="-140"/>
      <point x="452" y="-129"/>
      <point x="462" y="-122" type="curve"/>
      <point x="486" y="-162" type="line"/>
      <point x="466" y="-172"/>
      <point x="449" y="-179"/>
      <point x="427" y="-186" type="curve" smooth="yes"/>
      <point x="417" y="-189"/>
      <point x="408" y="-190"/>
      <point x="400" y="-190" type="curve" smooth="yes"/>
      <point x="344" y="-190"/>
      <point x="300" y="-170"/>
      <point x="300" y="-117" type="curve" smooth="yes"/>
      <point x="300" y="-73"/>
      <point x="324" y="-38"/>
      <point x="348" y="-17" type="curve" smooth="yes"/>
      <point x="349" y="-17"/>
      <point x="349" y="-16"/>
      <point x="349" y="-15" type="curve"/>
      <point x="187" y="-15"/>
      <point x="105" y="63"/>
      <point x="105" y="223" type="curve" smooth="yes"/>
      <point x="105" y="603" type="line" smooth="yes"/>
      <point x="105" y="615"/>
      <point x="96" y="624"/>
      <point x="84" y="625" type="curve" smooth="yes"/>
      <point x="31" y="629" type="line"/>
      <point x="31" y="672" type="line"/>
      <point x="285" y="672" type="line"/>
      <point x="285" y="629" type="line"/>
      <point x="228" y="625" type="line" smooth="yes"/>
      <point x="216" y="624"/>
      <point x="207" y="615"/>
      <point x="207" y="603" type="curve" smooth="yes"/>
      <point x="207" y="249" type="line" smooth="yes"/>
      <point x="207" y="122"/>
      <point x="248" y="52"/>
      <point x="376" y="52" type="curve" smooth="yes"/>
      <point x="502" y="52"/>
      <point x="547" y="124"/>
      <point x="547" y="249" type="curve" smooth="yes"/>
      <point x="547" y="603" type="line" smooth="yes"/>
      <point x="547" y="615"/>
      <point x="537" y="624"/>
      <point x="525" y="625" type="curve" smooth="yes"/>
      <point x="468" y="629" type="line"/>
      <point x="468" y="672" type="line"/>
      <point x="685" y="672" type="line"/>
      <point x="685" y="629" type="line"/>
      <point x="627" y="625" type="line" smooth="yes"/>
      <point x="615" y="624"/>
      <point x="606" y="615"/>
      <point x="606" y="603" type="curve" smooth="yes"/>
      <point x="606" y="223" type="line" smooth="yes"/>
      <point x="606" y="76"/>
      <point x="534" y="0"/>
      <point x="400" y="-13" type="curve"/>
      <point x="396" y="-21"/>
      <point x="388" y="-28"/>
      <point x="382" y="-36" type="curve" smooth="yes"/>
      <point x="372" y="-50"/>
      <point x="363" y="-69"/>
      <point x="363" y="-92" type="curve" smooth="yes"/>
      <point x="363" y="-126"/>
      <point x="386" y="-141"/>
    </contour>
  </outline>
</glyph>
<glyph name="Zdotaccent" format="1">
  <advance width="575"/>
  <unicode hex="017B"/>
  <outline>
    <contour>
      <point x="39" y="0" type="line"/>
      <point x="39" y="44" type="line"/>
      <point x="411" y="621" type="line"/>
      <point x="151" y="621" type="line" smooth="yes"/>
      <point x="141" y="621"/>
      <point x="136" y="612"/>
      <point x="134" y="604" type="curve" smooth="yes"/>
      <point x="119" y="511" type="line"/>
      <point x="60" y="511" type="line"/>
      <point x="60" y="671" type="line"/>
      <point x="531" y="671" type="line"/>
      <point x="531" y="625" type="line"/>
      <point x="158" y="51" type="line"/>
      <point x="443" y="51" type="line" smooth="yes"/>
      <point x="453" y="51"/>
      <point x="458" y="61"/>
      <point x="460" y="69" type="curve" smooth="yes"/>
      <point x="477" y="185" type="line"/>
      <point x="536" y="185" type="line"/>
      <point x="536" y="0" type="line"/>
    </contour>
    <contour>
      <point x="298" y="893" type="curve" smooth="yes"/>
      <point x="330" y="893"/>
      <point x="354" y="869"/>
      <point x="354" y="836" type="curve" smooth="yes"/>
      <point x="354" y="804"/>
      <point x="330" y="780"/>
      <point x="298" y="780" type="curve" smooth="yes"/>
      <point x="266" y="780"/>
      <point x="242" y="804"/>
      <point x="242" y="836" type="curve" smooth="yes"/>
      <point x="242" y="869"/>
      <point x="266" y="893"/>
    </contour>
  </outline>
</glyph>
<glyph name="uni0183" format="1">
  <advance width="555"/>
  <unicode hex="0183"/>
  <outline>
    <contour>
      <point x="183" y="457" type="line"/>
      <point x="182" y="457" type="line"/>
      <point x="220" y="474"/>
      <point x="265" y="494"/>
      <point x="320" y="494" type="curve" smooth="yes"/>
      <point x="423" y="494"/>
      <point x="484" y="432"/>
      <point x="508" y="352" type="curve" smooth="yes"/>
      <point x="516" y="324"/>
      <point x="520" y="295"/>
      <point x="520" y="264" type="curve" smooth="yes"/>
      <point x="520" y="134"/>
      <point x="460" y="56"/>
      <point x="363" y="20" type="curve" smooth="yes"/>
      <point x="327" y="7"/>
      <point x="284" y="0"/>
      <point x="234" y="0" type="curve" smooth="yes"/>
      <point x="90" y="0" type="line"/>
      <point x="90" y="737" type="line"/>
      <point x="466" y="737" type="line"/>
      <point x="466" y="581" type="line"/>
      <point x="411" y="581" type="line"/>
      <point x="398" y="671" type="line" smooth="yes"/>
      <point x="397" y="680"/>
      <point x="391" y="690"/>
      <point x="381" y="690" type="curve" smooth="yes"/>
      <point x="204" y="690" type="line" smooth="yes"/>
      <point x="192" y="690"/>
      <point x="183" y="680"/>
      <point x="183" y="669" type="curve" smooth="yes"/>
    </contour>
    <contour>
      <point x="231" y="47" type="line" smooth="yes"/>
      <point x="362" y="47"/>
      <point x="418" y="112"/>
      <point x="418" y="244" type="curve" smooth="yes"/>
      <point x="418" y="357"/>
      <point x="371" y="435"/>
      <point x="265" y="435" type="curve" smooth="yes"/>
      <point x="235" y="435"/>
      <point x="206" y="426"/>
      <point x="182" y="419" type="curve"/>
      <point x="182" y="48" type="line"/>
      <point x="187" y="48"/>
      <point x="193" y="48"/>
      <point x="199" y="47" type="curve" smooth="yes"/>
    </contour>
  </outline>
</glyph>
<glyph name="uni018D" format="1">
  <advance width="519"/>
  <unicode hex="018D"/>
  <outline>
    <contour>
      <point x="136" y="265" type="curve"/>
      <point x="137" y="267" type="line"/>
      <point x="137" y="176"/>
      <point x="187" y="122"/>
      <point x="237" y="79" type="curve"/>
      <point x="295" y="107"/>
      <point x="345" y="147"/>
      <point x="371" y="207" type="curve" smooth="yes"/>
      <point x="380" y="228"/>
      <point x="385" y="252"/>
      <point x="385" y="279" type="curve" smooth="yes"/>
      <point x="385" y="354"/>
      <point x="361" y="414"/>
      <point x="311" y="438" type="curve" smooth="yes"/>
      <point x="296" y="445"/>
      <point x="280" y="449"/>
      <point x="263" y="449" type="curve" smooth="yes"/>
      <point x="168" y="449"/>
      <point x="136" y="361"/>
    </contour>
    <contour>
      <point x="66" y="-139" type="curve"/>
      <point x="67" y="-142" type="line"/>
      <point x="67" y="-106"/>
      <point x="91" y="-83"/>
      <point x="127" y="-83" type="curve" smooth="yes"/>
      <point x="140" y="-83"/>
      <point x="157" y="-85"/>
      <point x="165" y="-90" type="curve"/>
      <point x="186" y="-169" type="line"/>
      <point x="209" y="-187"/>
      <point x="235" y="-204"/>
      <point x="272" y="-204" type="curve" smooth="yes"/>
      <point x="306" y="-204"/>
      <point x="334" y="-187"/>
      <point x="348" y="-165" type="curve" smooth="yes"/>
      <point x="353" y="-157"/>
      <point x="356" y="-147"/>
      <point x="356" y="-136" type="curve" smooth="yes"/>
      <point x="356" y="-125"/>
      <point x="352" y="-114"/>
      <point x="343" y="-103" type="curve" smooth="yes"/>
      <point x="321" y="-76"/>
      <point x="288" y="-55"/>
      <point x="255" y="-34" type="curve" smooth="yes"/>
      <point x="214" y="-8"/>
      <point x="173" y="22"/>
      <point x="136" y="54" type="curve" smooth="yes"/>
      <point x="98" y="87"/>
      <point x="68" y="127"/>
      <point x="49" y="177" type="curve" smooth="yes"/>
      <point x="40" y="201"/>
      <point x="35" y="228"/>
      <point x="35" y="257" type="curve" smooth="yes"/>
      <point x="35" y="337"/>
      <point x="65" y="395"/>
      <point x="106" y="434" type="curve" smooth="yes"/>
      <point x="142" y="467"/>
      <point x="194" y="493"/>
      <point x="257" y="493" type="curve" smooth="yes"/>
      <point x="362" y="493"/>
      <point x="431" y="450"/>
      <point x="466" y="377" type="curve" smooth="yes"/>
      <point x="479" y="350"/>
      <point x="486" y="317"/>
      <point x="486" y="278" type="curve" smooth="yes"/>
      <point x="486" y="211"/>
      <point x="455" y="165"/>
      <point x="419" y="131" type="curve" smooth="yes"/>
      <point x="380" y="95"/>
      <point x="327" y="67"/>
      <point x="273" y="47" type="curve"/>
      <point x="309" y="20"/>
      <point x="348" y="-6"/>
      <point x="380" y="-34" type="curve" smooth="yes"/>
      <point x="403" y="-54"/>
      <point x="429" y="-79"/>
      <point x="429" y="-117" type="curve" smooth="yes"/>
      <point x="429" y="-187"/>
      <point x="383" y="-228"/>
      <point x="329" y="-245" type="curve" smooth="yes"/>
      <point x="309" y="-251"/>
      <point x="289" y="-254"/>
      <point x="268" y="-254" type="curve" smooth="yes"/>
      <point x="204" y="-254"/>
      <point x="153" y="-240"/>
      <point x="116" y="-215" type="curve" smooth="yes"/>
      <point x="91" y="-198"/>
      <point x="66" y="-174"/>
    </contour>
  </outline>
</glyph>
<glyph name="uni0193" format="1">
  <advance width="694"/>
  <unicode hex="0193"/>
  <outline>
    <contour>
      <point x="516" y="673" type="curve"/>
      <point x="518" y="673" type="line"/>
      <point x="526" y="774"/>
      <point x="573" y="844"/>
      <point x="682" y="844" type="curve" smooth="yes"/>
      <point x="723" y="844"/>
      <point x="757" y="832"/>
      <point x="771" y="806" type="curve" smooth="yes"/>
      <point x="775" y="799"/>
      <point x="777" y="791"/>
      <point x="777" y="782" type="curve" smooth="yes"/>
      <point x="777" y="750"/>
      <point x="757" y="733"/>
      <point x="734" y="725" type="curve"/>
      <point x="643" y="794" type="line"/>
      <point x="608" y="782"/>
      <point x="600" y="757"/>
      <point x="599" y="710" type="curve" smooth="yes"/>
      <point x="599" y="647" type="line"/>
      <point x="599" y="490" type="line"/>
      <point x="539" y="490" type="line"/>
      <point x="523" y="580" type="line" smooth="yes"/>
      <point x="520" y="598"/>
      <point x="504" y="603"/>
      <point x="489" y="610" type="curve" smooth="yes"/>
      <point x="466" y="621"/>
      <point x="435" y="630"/>
      <point x="402" y="630" type="curve" smooth="yes"/>
      <point x="275" y="630"/>
      <point x="203" y="563"/>
      <point x="171" y="465" type="curve" smooth="yes"/>
      <point x="159" y="429"/>
      <point x="153" y="388"/>
      <point x="153" y="341" type="curve" smooth="yes"/>
      <point x="153" y="200"/>
      <point x="206" y="102"/>
      <point x="304" y="60" type="curve" smooth="yes"/>
      <point x="336" y="46"/>
      <point x="371" y="39"/>
      <point x="410" y="39" type="curve" smooth="yes"/>
      <point x="439" y="39"/>
      <point x="466" y="45"/>
      <point x="488" y="52" type="curve" smooth="yes"/>
      <point x="493" y="54"/>
      <point x="496" y="55"/>
      <point x="497" y="55" type="curve" smooth="yes"/>
      <point x="497" y="255" type="line" smooth="yes"/>
      <point x="497" y="268"/>
      <point x="489" y="275"/>
      <point x="476" y="276" type="curve" smooth="yes"/>
      <point x="409" y="281" type="line"/>
      <point x="409" y="324" type="line"/>
      <point x="670" y="324" type="line"/>
      <point x="670" y="281" type="line"/>
      <point x="619" y="276" type="line" smooth="yes"/>
      <point x="606" y="275"/>
      <point x="598" y="268"/>
      <point x="598" y="255" type="curve" smooth="yes"/>
      <point x="598" y="24" type="line"/>
      <point x="539" y="2"/>
      <point x="470" y="-16"/>
      <point x="388" y="-16" type="curve" smooth="yes"/>
      <point x="269" y="-16"/>
      <point x="187" y="28"/>
      <point x="130" y="91" type="curve" smooth="yes"/>
      <point x="77" y="149"/>
      <point x="39" y="230"/>
      <point x="39" y="337" type="curve" smooth="yes"/>
      <point x="39" y="449"/>
      <point x="79" y="534"/>
      <point x="137" y="591" type="curve" smooth="yes"/>
      <point x="196" y="649"/>
      <point x="284" y="687"/>
      <point x="398" y="687" type="curve" smooth="yes"/>
      <point x="444" y="687"/>
      <point x="477" y="683"/>
    </contour>
  </outline>
</glyph>
<glyph name="uni019C" format="1">
  <advance width="1077"/>
  <unicode hex="019C"/>
  <outline>
    <contour>
      <point x="678" y="-16" type="curve"/>
      <point x="677" y="-15" type="line"/>
      <point x="602" y="-15"/>
      <point x="552" y="18"/>
      <point x="522" y="66" type="curve"/>
      <point x="470" y="27"/>
      <point x="415" y="-15"/>
      <point x="328" y="-15" type="curve" smooth="yes"/>
      <point x="230" y="-15"/>
      <point x="161" y="38"/>
      <point x="130" y="108" type="curve" smooth="yes"/>
      <point x="118" y="135"/>
      <point x="112" y="165"/>
      <point x="112" y="199" type="curve" smooth="yes"/>
      <point x="112" y="603" type="line" smooth="yes"/>
      <point x="112" y="615"/>
      <point x="103" y="624"/>
      <point x="91" y="625" type="curve" smooth="yes"/>
      <point x="29" y="629" type="line"/>
      <point x="29" y="672" type="line"/>
      <point x="285" y="672" type="line"/>
      <point x="285" y="629" type="line"/>
      <point x="234" y="625" type="line" smooth="yes"/>
      <point x="222" y="624"/>
      <point x="213" y="615"/>
      <point x="213" y="603" type="curve" smooth="yes"/>
      <point x="213" y="219" type="line" smooth="yes"/>
      <point x="213" y="147"/>
      <point x="252" y="99"/>
      <point x="304" y="79" type="curve" smooth="yes"/>
      <point x="323" y="72"/>
      <point x="344" y="68"/>
      <point x="367" y="68" type="curve" smooth="yes"/>
      <point x="391" y="68"/>
      <point x="414" y="76"/>
      <point x="435" y="83" type="curve" smooth="yes"/>
      <point x="458" y="91"/>
      <point x="482" y="102"/>
      <point x="502" y="113" type="curve"/>
      <point x="494" y="138"/>
      <point x="490" y="166"/>
      <point x="490" y="198" type="curve" smooth="yes"/>
      <point x="490" y="602" type="line" smooth="yes"/>
      <point x="490" y="613"/>
      <point x="480" y="623"/>
      <point x="469" y="624" type="curve" smooth="yes"/>
      <point x="407" y="628" type="line"/>
      <point x="407" y="671" type="line"/>
      <point x="663" y="671" type="line"/>
      <point x="663" y="628" type="line"/>
      <point x="612" y="624" type="line" smooth="yes"/>
      <point x="600" y="623"/>
      <point x="591" y="614"/>
      <point x="591" y="602" type="curve" smooth="yes"/>
      <point x="591" y="218" type="line" smooth="yes"/>
      <point x="591" y="128"/>
      <point x="627" y="67"/>
      <point x="717" y="67" type="curve" smooth="yes"/>
      <point x="789" y="67"/>
      <point x="824" y="105"/>
      <point x="866" y="138" type="curve"/>
      <point x="866" y="602" type="line" smooth="yes"/>
      <point x="866" y="613"/>
      <point x="856" y="623"/>
      <point x="845" y="624" type="curve" smooth="yes"/>
      <point x="783" y="628" type="line"/>
      <point x="783" y="671" type="line"/>
      <point x="1039" y="671" type="line"/>
      <point x="1039" y="628" type="line"/>
      <point x="988" y="624" type="line" smooth="yes"/>
      <point x="976" y="623"/>
      <point x="967" y="614"/>
      <point x="967" y="602" type="curve" smooth="yes"/>
      <point x="967" y="67" type="line" smooth="yes"/>
      <point x="967" y="57"/>
      <point x="976" y="49"/>
      <point x="987" y="48" type="curve" smooth="yes"/>
      <point x="1045" y="43" type="line"/>
      <point x="1045" y="0" type="line"/>
      <point x="866" y="0" type="line"/>
      <point x="866" y="81" type="line"/>
      <point x="821" y="46"/>
      <point x="787" y="9"/>
      <point x="730" y="-9" type="curve" smooth="yes"/>
      <point x="715" y="-14"/>
      <point x="698" y="-16"/>
    </contour>
  </outline>
</glyph>
<glyph name="uni019F" format="1">
  <advance width="730"/>
  <unicode hex="019F"/>
  <outline>
    <contour>
      <point x="155" y="310" type="line"/>
      <point x="155" y="309" type="line"/>
      <point x="161" y="195"/>
      <point x="199" y="103"/>
      <point x="275" y="59" type="curve" smooth="yes"/>
      <point x="300" y="45"/>
      <point x="330" y="38"/>
      <point x="364" y="38" type="curve" smooth="yes"/>
      <point x="438" y="38"/>
      <point x="487" y="73"/>
      <point x="519" y="118" type="curve" smooth="yes"/>
      <point x="553" y="166"/>
      <point x="572" y="233"/>
      <point x="576" y="310" type="curve"/>
    </contour>
    <contour>
      <point x="576" y="360" type="line"/>
      <point x="575" y="360" type="line"/>
      <point x="569" y="475"/>
      <point x="530" y="565"/>
      <point x="453" y="608" type="curve" smooth="yes"/>
      <point x="428" y="622"/>
      <point x="399" y="629"/>
      <point x="366" y="629" type="curve" smooth="yes"/>
      <point x="293" y="629"/>
      <point x="244" y="594"/>
      <point x="212" y="549" type="curve" smooth="yes"/>
      <point x="178" y="502"/>
      <point x="159" y="436"/>
      <point x="155" y="360" type="curve"/>
    </contour>
    <contour>
      <point x="691" y="334" type="curve" smooth="yes"/>
      <point x="691" y="336" type="line" smooth="yes"/>
      <point x="691" y="231"/>
      <point x="653" y="146"/>
      <point x="601" y="88" type="curve" smooth="yes"/>
      <point x="549" y="30"/>
      <point x="469" y="-15"/>
      <point x="364" y="-15" type="curve" smooth="yes"/>
      <point x="258" y="-15"/>
      <point x="180" y="27"/>
      <point x="127" y="85" type="curve" smooth="yes"/>
      <point x="74" y="144"/>
      <point x="37" y="229"/>
      <point x="37" y="337" type="curve" smooth="yes"/>
      <point x="37" y="442"/>
      <point x="74" y="527"/>
      <point x="126" y="585" type="curve" smooth="yes"/>
      <point x="178" y="643"/>
      <point x="258" y="687"/>
      <point x="364" y="687" type="curve" smooth="yes"/>
      <point x="470" y="687"/>
      <point x="550" y="641"/>
      <point x="602" y="583" type="curve" smooth="yes"/>
      <point x="654" y="525"/>
      <point x="691" y="440"/>
    </contour>
  </outline>
</glyph>
<glyph name="uni01A7" format="1">
  <advance width="522"/>
  <unicode hex="01A7"/>
  <outline>
    <contour>
      <point x="380" y="530" type="curve"/>
      <point x="381" y="527" type="line"/>
      <point x="381" y="596"/>
      <point x="328" y="630"/>
      <point x="256" y="630" type="curve" smooth="yes"/>
      <point x="223" y="630"/>
      <point x="198" y="626"/>
      <point x="181" y="618" type="curve" smooth="yes"/>
      <point x="164" y="610"/>
      <point x="155" y="601"/>
      <point x="153" y="591" type="curve" smooth="yes"/>
      <point x="134" y="495" type="line"/>
      <point x="77" y="495" type="line"/>
      <point x="83" y="651" type="line"/>
      <point x="132" y="671"/>
      <point x="188" y="685"/>
      <point x="260" y="685" type="curve" smooth="yes"/>
      <point x="358" y="685"/>
      <point x="433" y="657"/>
      <point x="468" y="594" type="curve" smooth="yes"/>
      <point x="479" y="574"/>
      <point x="485" y="550"/>
      <point x="485" y="521" type="curve" smooth="yes"/>
      <point x="485" y="402"/>
      <point x="402" y="350"/>
      <point x="324" y="308" type="curve" smooth="yes"/>
      <point x="273" y="281"/>
      <point x="214" y="258"/>
      <point x="174" y="219" type="curve" smooth="yes"/>
      <point x="157" y="203"/>
      <point x="143" y="182"/>
      <point x="143" y="152" type="curve" smooth="yes"/>
      <point x="143" y="73"/>
      <point x="206" y="38"/>
      <point x="286" y="38" type="curve" smooth="yes"/>
      <point x="322" y="38"/>
      <point x="357" y="44"/>
      <point x="379" y="57" type="curve" smooth="yes"/>
      <point x="390" y="62"/>
      <point x="403" y="70"/>
      <point x="405" y="84" type="curve" smooth="yes"/>
      <point x="422" y="197" type="line"/>
      <point x="485" y="197" type="line"/>
      <point x="479" y="20" type="line"/>
      <point x="433" y="-2"/>
      <point x="372" y="-17"/>
      <point x="300" y="-17" type="curve" smooth="yes"/>
      <point x="214" y="-17"/>
      <point x="147" y="1"/>
      <point x="101" y="37" type="curve" smooth="yes"/>
      <point x="65" y="66"/>
      <point x="41" y="108"/>
      <point x="41" y="167" type="curve" smooth="yes"/>
      <point x="41" y="259"/>
      <point x="95" y="305"/>
      <point x="155" y="341" type="curve" smooth="yes"/>
      <point x="213" y="375"/>
      <point x="296" y="404"/>
      <point x="343" y="448" type="curve" smooth="yes"/>
      <point x="364" y="468"/>
      <point x="380" y="492"/>
    </contour>
  </outline>
</glyph>
<glyph name="uni01A8" format="1">
  <advance width="399"/>
  <unicode hex="01A8"/>
  <outline>
    <contour>
      <point x="185" y="494" type="curve"/>
      <point x="186" y="493" type="line"/>
      <point x="285" y="493"/>
      <point x="362" y="458"/>
      <point x="362" y="365" type="curve" smooth="yes"/>
      <point x="362" y="307"/>
      <point x="333" y="278"/>
      <point x="297" y="253" type="curve" smooth="yes"/>
      <point x="270" y="234"/>
      <point x="228" y="208"/>
      <point x="197" y="193" type="curve" smooth="yes"/>
      <point x="170" y="180"/>
      <point x="146" y="167"/>
      <point x="132" y="145" type="curve" smooth="yes"/>
      <point x="126" y="136"/>
      <point x="123" y="124"/>
      <point x="123" y="109" type="curve" smooth="yes"/>
      <point x="123" y="61"/>
      <point x="161" y="33"/>
      <point x="210" y="33" type="curve" smooth="yes"/>
      <point x="247" y="33"/>
      <point x="279" y="47"/>
      <point x="300" y="61" type="curve"/>
      <point x="315" y="146" type="line"/>
      <point x="366" y="146" type="line"/>
      <point x="361" y="13" type="line"/>
      <point x="325" y="-3"/>
      <point x="274" y="-12"/>
      <point x="222" y="-12" type="curve" smooth="yes"/>
      <point x="117" y="-12"/>
      <point x="36" y="21"/>
      <point x="36" y="125" type="curve" smooth="yes"/>
      <point x="36" y="169"/>
      <point x="58" y="199"/>
      <point x="82" y="221" type="curve" smooth="yes"/>
      <point x="120" y="256"/>
      <point x="179" y="286"/>
      <point x="225" y="313" type="curve" smooth="yes"/>
      <point x="251" y="328"/>
      <point x="272" y="343"/>
      <point x="272" y="381" type="curve" smooth="yes"/>
      <point x="272" y="425"/>
      <point x="240" y="446"/>
      <point x="192" y="446" type="curve" smooth="yes"/>
      <point x="163" y="446"/>
      <point x="136" y="434"/>
      <point x="120" y="423" type="curve"/>
      <point x="109" y="353" type="line"/>
      <point x="57" y="353" type="line"/>
      <point x="61" y="471" type="line"/>
      <point x="90" y="484"/>
      <point x="137" y="494"/>
    </contour>
  </outline>
</glyph>
<glyph name="uni01B2" format="1">
  <advance width="706"/>
  <unicode hex="01B2"/>
  <outline>
    <contour>
      <point x="667" y="368" type="curve" smooth="yes"/>
      <point x="667" y="367" type="line" smooth="yes"/>
      <point x="667" y="174"/>
      <point x="586" y="42"/>
      <point x="437" y="-3" type="curve" smooth="yes"/>
      <point x="406" y="-12"/>
      <point x="371" y="-17"/>
      <point x="333" y="-17" type="curve" smooth="yes"/>
      <point x="246" y="-17"/>
      <point x="182" y="25"/>
      <point x="144" y="77" type="curve" smooth="yes"/>
      <point x="120" y="110"/>
      <point x="106" y="152"/>
      <point x="106" y="208" type="curve" smooth="yes"/>
      <point x="106" y="604" type="line" smooth="yes"/>
      <point x="106" y="616"/>
      <point x="97" y="624"/>
      <point x="85" y="625" type="curve" smooth="yes"/>
      <point x="29" y="630" type="line"/>
      <point x="29" y="671" type="line"/>
      <point x="207" y="671" type="line"/>
      <point x="207" y="229" type="line" smooth="yes"/>
      <point x="207" y="142"/>
      <point x="249" y="85"/>
      <point x="313" y="62" type="curve" smooth="yes"/>
      <point x="334" y="55"/>
      <point x="356" y="51"/>
      <point x="379" y="51" type="curve" smooth="yes"/>
      <point x="448" y="51"/>
      <point x="500" y="89"/>
      <point x="534" y="132" type="curve" smooth="yes"/>
      <point x="575" y="184"/>
      <point x="604" y="259"/>
      <point x="604" y="352" type="curve" smooth="yes"/>
      <point x="604" y="445"/>
      <point x="569" y="519"/>
      <point x="519" y="562" type="curve"/>
      <point x="413" y="562" type="line"/>
      <point x="398" y="572"/>
      <point x="383" y="591"/>
      <point x="383" y="616" type="curve" smooth="yes"/>
      <point x="383" y="661"/>
      <point x="423" y="687"/>
      <point x="467" y="687" type="curve" smooth="yes"/>
      <point x="511" y="687"/>
      <point x="543" y="662"/>
      <point x="567" y="636" type="curve" smooth="yes"/>
      <point x="612" y="587"/>
      <point x="644" y="518"/>
      <point x="659" y="440" type="curve" smooth="yes"/>
      <point x="664" y="415"/>
      <point x="667" y="391"/>
    </contour>
  </outline>
</glyph>
<glyph name="uni01BC" format="1">
  <advance width="556"/>
  <unicode hex="01BC"/>
  <outline>
    <contour>
      <point x="207" y="624" type="line"/>
      <point x="206" y="629" type="line"/>
      <point x="194" y="629"/>
      <point x="185" y="619"/>
      <point x="185" y="608" type="curve" smooth="yes"/>
      <point x="185" y="464" type="line"/>
      <point x="267" y="464"/>
      <point x="338" y="441"/>
      <point x="394" y="411" type="curve" smooth="yes"/>
      <point x="440" y="387"/>
      <point x="477" y="350"/>
      <point x="499" y="302" type="curve" smooth="yes"/>
      <point x="510" y="278"/>
      <point x="516" y="251"/>
      <point x="516" y="221" type="curve" smooth="yes"/>
      <point x="516" y="103"/>
      <point x="446" y="36"/>
      <point x="355" y="6" type="curve" smooth="yes"/>
      <point x="320" y="-6"/>
      <point x="280" y="-12"/>
      <point x="234" y="-12" type="curve" smooth="yes"/>
      <point x="157" y="-12"/>
      <point x="90" y="15"/>
      <point x="59" y="60" type="curve" smooth="yes"/>
      <point x="49" y="74"/>
      <point x="44" y="89"/>
      <point x="44" y="105" type="curve" smooth="yes"/>
      <point x="44" y="138"/>
      <point x="68" y="162"/>
      <point x="102" y="162" type="curve" smooth="yes"/>
      <point x="109" y="162"/>
      <point x="128" y="157"/>
      <point x="134" y="157" type="curve"/>
      <point x="167" y="65" type="line"/>
      <point x="180" y="52"/>
      <point x="207" y="43"/>
      <point x="229" y="38" type="curve" smooth="yes"/>
      <point x="237" y="36"/>
      <point x="244" y="35"/>
      <point x="250" y="35" type="curve" smooth="yes"/>
      <point x="330" y="35"/>
      <point x="382" y="83"/>
      <point x="404" y="141" type="curve" smooth="yes"/>
      <point x="411" y="160"/>
      <point x="415" y="178"/>
      <point x="415" y="195" type="curve" smooth="yes"/>
      <point x="415" y="242"/>
      <point x="393" y="275"/>
      <point x="366" y="299" type="curve" smooth="yes"/>
      <point x="307" y="353"/>
      <point x="207" y="379"/>
      <point x="95" y="379" type="curve"/>
      <point x="95" y="604" type="line" smooth="yes"/>
      <point x="95" y="614"/>
      <point x="85" y="623"/>
      <point x="74" y="624" type="curve" smooth="yes"/>
      <point x="21" y="628" type="line"/>
      <point x="21" y="671" type="line"/>
      <point x="484" y="671" type="line"/>
      <point x="484" y="515" type="line"/>
      <point x="429" y="515" type="line"/>
      <point x="417" y="605" type="line" smooth="yes"/>
      <point x="416" y="614"/>
      <point x="409" y="624"/>
      <point x="399" y="624" type="curve" smooth="yes"/>
    </contour>
  </outline>
</glyph>
<glyph name="uni01CC" format="1">
  <advance width="858"/>
  <unicode hex="01CC"/>
  <outline>
    <contour>
      <point x="327" y="494" type="curve" smooth="yes"/>
      <point x="328" y="494" type="line" smooth="yes"/>
      <point x="418" y="494"/>
      <point x="462" y="433"/>
      <point x="462" y="340" type="curve" smooth="yes"/>
      <point x="462" y="64" type="line" smooth="yes"/>
      <point x="462" y="52"/>
      <point x="472" y="44"/>
      <point x="483" y="43" type="curve" smooth="yes"/>
      <point x="527" y="40" type="line"/>
      <point x="527" y="1" type="line"/>
      <point x="306" y="1" type="line"/>
      <point x="306" y="40" type="line"/>
      <point x="348" y="43" type="line" smooth="yes"/>
      <point x="359" y="44"/>
      <point x="369" y="52"/>
      <point x="369" y="64" type="curve" smooth="yes"/>
      <point x="369" y="324" type="line" smooth="yes"/>
      <point x="369" y="389"/>
      <point x="340" y="421"/>
      <point x="273" y="421" type="curve" smooth="yes"/>
      <point x="230" y="421"/>
      <point x="193" y="408"/>
      <point x="163" y="392" type="curve"/>
      <point x="163" y="64" type="line" smooth="yes"/>
      <point x="163" y="52"/>
      <point x="173" y="44"/>
      <point x="184" y="43" type="curve" smooth="yes"/>
      <point x="226" y="40" type="line"/>
      <point x="226" y="1" type="line"/>
      <point x="0" y="1" type="line"/>
      <point x="0" y="40" type="line"/>
      <point x="49" y="43" type="line" smooth="yes"/>
      <point x="60" y="44"/>
      <point x="70" y="52"/>
      <point x="70" y="64" type="curve" smooth="yes"/>
      <point x="70" y="411" type="line"/>
      <point x="0" y="411" type="line"/>
      <point x="0" y="444" type="line"/>
      <point x="122" y="482" type="line"/>
      <point x="163" y="482" type="line"/>
      <point x="163" y="432" type="line"/>
      <point x="201" y="454"/>
      <point x="244" y="477"/>
      <point x="291" y="489" type="curve" smooth="yes"/>
      <point x="304" y="492"/>
      <point x="316" y="494"/>
    </contour>
    <contour>
      <point x="629" y="-183" type="line"/>
      <point x="671" y="-159"/>
      <point x="677" y="-87"/>
      <point x="677" y="-21" type="curve" smooth="yes"/>
      <point x="677" y="423" type="line"/>
      <point x="606" y="423" type="line"/>
      <point x="606" y="456" type="line"/>
      <point x="729" y="494" type="line"/>
      <point x="770" y="494" type="line"/>
      <point x="770" y="64" type="line" smooth="yes"/>
      <point x="770" y="-12"/>
      <point x="762" y="-89"/>
      <point x="731" y="-136" type="curve" smooth="yes"/>
      <point x="697" y="-188"/>
      <point x="642" y="-229"/>
      <point x="565" y="-229" type="curve" smooth="yes"/>
      <point x="524" y="-229"/>
      <point x="489" y="-214"/>
      <point x="489" y="-174" type="curve" smooth="yes"/>
      <point x="489" y="-141"/>
      <point x="509" y="-126"/>
      <point x="532" y="-116" type="curve"/>
    </contour>
    <contour>
      <point x="720" y="708" type="curve" smooth="yes"/>
      <point x="756" y="708"/>
      <point x="781" y="683"/>
      <point x="781" y="647" type="curve" smooth="yes"/>
      <point x="781" y="611"/>
      <point x="756" y="585"/>
      <point x="720" y="585" type="curve" smooth="yes"/>
      <point x="685" y="585"/>
      <point x="658" y="612"/>
      <point x="658" y="647" type="curve" smooth="yes"/>
      <point x="658" y="682"/>
      <point x="685" y="708"/>
    </contour>
  </outline>
</glyph>
<glyph name="uni020D" format="1">
  <advance width="543"/>
  <unicode hex="020D"/>
  <outline>
    <contour>
      <point x="406" y="241" type="curve"/>
      <point x="405" y="241" type="line"/>
      <point x="405" y="326"/>
      <point x="381" y="397"/>
      <point x="331" y="432" type="curve" smooth="yes"/>
      <point x="315" y="443"/>
      <point x="296" y="449"/>
      <point x="273" y="449" type="curve" smooth="yes"/>
      <point x="195" y="449"/>
      <point x="160" y="385"/>
      <point x="146" y="320" type="curve" smooth="yes"/>
      <point x="141" y="295"/>
      <point x="138" y="269"/>
      <point x="138" y="242" type="curve" smooth="yes"/>
      <point x="138" y="157"/>
      <point x="162" y="87"/>
      <point x="212" y="52" type="curve" smooth="yes"/>
      <point x="229" y="40"/>
      <point x="249" y="34"/>
      <point x="272" y="34" type="curve" smooth="yes"/>
      <point x="349" y="34"/>
      <point x="384" y="98"/>
      <point x="398" y="163" type="curve" smooth="yes"/>
      <point x="403" y="188"/>
      <point x="406" y="214"/>
    </contour>
    <contour>
      <point x="509" y="240" type="curve" smooth="yes"/>
      <point x="509" y="238" type="line" smooth="yes"/>
      <point x="509" y="122"/>
      <point x="451" y="42"/>
      <point x="369" y="6" type="curve" smooth="yes"/>
      <point x="340" y="-7"/>
      <point x="307" y="-13"/>
      <point x="270" y="-13" type="curve" smooth="yes"/>
      <point x="153" y="-13"/>
      <point x="81" y="52"/>
      <point x="50" y="139" type="curve" smooth="yes"/>
      <point x="39" y="170"/>
      <point x="34" y="203"/>
      <point x="34" y="239" type="curve" smooth="yes"/>
      <point x="34" y="356"/>
      <point x="91" y="437"/>
      <point x="174" y="474" type="curve" smooth="yes"/>
      <point x="203" y="487"/>
      <point x="236" y="494"/>
      <point x="273" y="494" type="curve" smooth="yes"/>
      <point x="390" y="494"/>
      <point x="462" y="427"/>
      <point x="493" y="339" type="curve" smooth="yes"/>
      <point x="504" y="308"/>
      <point x="509" y="275"/>
    </contour>
    <contour>
      <point x="19" y="686" type="curve"/>
      <point x="18" y="685" type="line"/>
      <point x="18" y="713"/>
      <point x="34" y="730"/>
      <point x="63" y="730" type="curve" smooth="yes"/>
      <point x="93" y="730"/>
      <point x="103" y="718"/>
      <point x="118" y="703" type="curve" smooth="yes"/>
      <point x="251" y="548" type="line"/>
      <point x="193" y="548" type="line"/>
      <point x="42" y="645" type="line" smooth="yes"/>
      <point x="30" y="654"/>
      <point x="19" y="666"/>
    </contour>
    <contour>
      <point x="212" y="685" type="curve" smooth="yes"/>
      <point x="212" y="686" type="line" smooth="yes"/>
      <point x="212" y="714"/>
      <point x="231" y="731"/>
      <point x="260" y="731" type="curve" smooth="yes"/>
      <point x="289" y="731"/>
      <point x="298" y="718"/>
      <point x="312" y="704" type="curve" smooth="yes"/>
      <point x="444" y="549" type="line"/>
      <point x="389" y="549" type="line"/>
      <point x="237" y="646" type="line" smooth="yes"/>
      <point x="224" y="654"/>
      <point x="212" y="665"/>
    </contour>
  </outline>
</glyph>
<glyph name="uni0212" format="1">
  <advance width="648"/>
  <unicode hex="0212"/>
  <outline>
    <contour>
      <point x="257" y="347" type="curve" smooth="yes"/>
      <point x="256" y="347" type="line" smooth="yes"/>
      <point x="364" y="347"/>
      <point x="428" y="381"/>
      <point x="428" y="489" type="curve" smooth="yes"/>
      <point x="428" y="591"/>
      <point x="356" y="622"/>
      <point x="252" y="622" type="curve" smooth="yes"/>
      <point x="206" y="622" type="line"/>
      <point x="206" y="348" type="line"/>
      <point x="227" y="348" type="line" smooth="yes"/>
      <point x="236" y="348"/>
      <point x="248" y="347"/>
    </contour>
    <contour>
      <point x="537" y="493" type="curve" smooth="yes"/>
      <point x="537" y="490" type="line" smooth="yes"/>
      <point x="537" y="384"/>
      <point x="460" y="342"/>
      <point x="373" y="323" type="curve"/>
      <point x="439" y="307"/>
      <point x="481" y="272"/>
      <point x="497" y="210" type="curve" smooth="yes"/>
      <point x="509" y="163"/>
      <point x="515" y="109"/>
      <point x="543" y="77" type="curve" smooth="yes"/>
      <point x="565" y="51"/>
      <point x="598" y="40"/>
      <point x="648" y="40" type="curve"/>
      <point x="648" y="-5" type="line"/>
      <point x="640" y="-5"/>
      <point x="631" y="-9"/>
      <point x="623" y="-11" type="curve" smooth="yes"/>
      <point x="611" y="-14"/>
      <point x="596" y="-17"/>
      <point x="581" y="-17" type="curve" smooth="yes"/>
      <point x="498" y="-17"/>
      <point x="458" y="22"/>
      <point x="437" y="83" type="curve" smooth="yes"/>
      <point x="417" y="140"/>
      <point x="408" y="208"/>
      <point x="373" y="250" type="curve" smooth="yes"/>
      <point x="347" y="281"/>
      <point x="311" y="299"/>
      <point x="252" y="299" type="curve" smooth="yes"/>
      <point x="238" y="299"/>
      <point x="224" y="297"/>
      <point x="211" y="297" type="curve" smooth="yes"/>
      <point x="206" y="297" type="line"/>
      <point x="206" y="69" type="line" smooth="yes"/>
      <point x="206" y="57"/>
      <point x="215" y="48"/>
      <point x="227" y="47" type="curve" smooth="yes"/>
      <point x="280" y="43" type="line"/>
      <point x="280" y="0" type="line"/>
      <point x="31" y="0" type="line"/>
      <point x="31" y="43" type="line"/>
      <point x="83" y="47" type="line" smooth="yes"/>
      <point x="95" y="48"/>
      <point x="105" y="57"/>
      <point x="105" y="69" type="curve" smooth="yes"/>
      <point x="105" y="602" type="line" smooth="yes"/>
      <point x="105" y="614"/>
      <point x="95" y="623"/>
      <point x="83" y="624" type="curve" smooth="yes"/>
      <point x="31" y="628" type="line"/>
      <point x="31" y="671" type="line"/>
      <point x="292" y="671" type="line" smooth="yes"/>
      <point x="432" y="671"/>
      <point x="537" y="632"/>
    </contour>
    <contour>
      <point x="293" y="824" type="curve"/>
      <point x="295" y="823" type="line"/>
      <point x="234" y="823"/>
      <point x="197" y="792"/>
      <point x="185" y="742" type="curve"/>
      <point x="145" y="742" type="line"/>
      <point x="145" y="808"/>
      <point x="183" y="854"/>
      <point x="229" y="877" type="curve" smooth="yes"/>
      <point x="247" y="886"/>
      <point x="269" y="891"/>
      <point x="294" y="891" type="curve" smooth="yes"/>
      <point x="367" y="891"/>
      <point x="414" y="849"/>
      <point x="433" y="795" type="curve" smooth="yes"/>
      <point x="439" y="777"/>
      <point x="442" y="760"/>
      <point x="442" y="743" type="curve"/>
      <point x="403" y="743" type="line"/>
      <point x="391" y="793"/>
      <point x="354" y="824"/>
    </contour>
  </outline>
</glyph>
<glyph name="uni021B" format="1">
  <advance width="339"/>
  <unicode hex="021B"/>
  <outline>
    <contour>
      <point x="264" y="44" type="curve" smooth="yes"/>
      <point x="263" y="44" type="line" smooth="yes"/>
      <point x="291" y="44"/>
      <point x="314" y="51"/>
      <point x="332" y="61" type="curve"/>
      <point x="332" y="21" type="line"/>
      <point x="296" y="4"/>
      <point x="252" y="-12"/>
      <point x="198" y="-12" type="curve" smooth="yes"/>
      <point x="121" y="-12"/>
      <point x="91" y="22"/>
      <point x="91" y="100" type="curve" smooth="yes"/>
      <point x="91" y="432" type="line"/>
      <point x="27" y="432" type="line"/>
      <point x="27" y="465" type="line"/>
      <point x="95" y="497" type="line"/>
      <point x="140" y="603" type="line"/>
      <point x="184" y="603" type="line"/>
      <point x="184" y="482" type="line"/>
      <point x="325" y="482" type="line"/>
      <point x="325" y="432" type="line"/>
      <point x="184" y="432" type="line"/>
      <point x="184" y="153" type="line" smooth="yes"/>
      <point x="184" y="88"/>
      <point x="201" y="44"/>
    </contour>
    <contour>
      <point x="171" y="-61" type="curve"/>
      <point x="171" y="-62" type="line"/>
      <point x="217" y="-62"/>
      <point x="242" y="-95"/>
      <point x="242" y="-143" type="curve" smooth="yes"/>
      <point x="242" y="-201"/>
      <point x="207" y="-234"/>
      <point x="167" y="-253" type="curve" smooth="yes"/>
      <point x="152" y="-260"/>
      <point x="136" y="-265"/>
      <point x="118" y="-268" type="curve"/>
      <point x="118" y="-238" type="line"/>
      <point x="164" y="-224"/>
      <point x="190" y="-205"/>
      <point x="190" y="-145" type="curve"/>
      <point x="131" y="-145" type="line"/>
      <point x="123" y="-137"/>
      <point x="116" y="-124"/>
      <point x="116" y="-108" type="curve" smooth="yes"/>
      <point x="116" y="-79"/>
      <point x="141" y="-61"/>
    </contour>
  </outline>
</glyph>
<glyph name="uni0220" format="1">
  <advance width="724"/>
  <unicode hex="0220"/>
  <outline>
    <contour>
      <point x="381" y="604" type="curve" smooth="yes"/>
      <point x="382" y="604" type="line" smooth="yes"/>
      <point x="304" y="604"/>
      <point x="254" y="567"/>
      <point x="208" y="533" type="curve"/>
      <point x="208" y="69" type="line" smooth="yes"/>
      <point x="208" y="57"/>
      <point x="217" y="48"/>
      <point x="229" y="47" type="curve" smooth="yes"/>
      <point x="291" y="43" type="line"/>
      <point x="291" y="0" type="line"/>
      <point x="35" y="0" type="line"/>
      <point x="35" y="43" type="line"/>
      <point x="86" y="47" type="line" smooth="yes"/>
      <point x="98" y="48"/>
      <point x="107" y="57"/>
      <point x="107" y="69" type="curve" smooth="yes"/>
      <point x="107" y="604" type="line" smooth="yes"/>
      <point x="107" y="614"/>
      <point x="97" y="622"/>
      <point x="87" y="623" type="curve" smooth="yes"/>
      <point x="24" y="628" type="line"/>
      <point x="24" y="671" type="line"/>
      <point x="208" y="671" type="line"/>
      <point x="208" y="590" type="line"/>
      <point x="255" y="627"/>
      <point x="300" y="663"/>
      <point x="364" y="680" type="curve" smooth="yes"/>
      <point x="382" y="685"/>
      <point x="401" y="687"/>
      <point x="421" y="687" type="curve" smooth="yes"/>
      <point x="519" y="687"/>
      <point x="588" y="640"/>
      <point x="620" y="571" type="curve" smooth="yes"/>
      <point x="632" y="545"/>
      <point x="638" y="515"/>
      <point x="638" y="481" type="curve" smooth="yes"/>
      <point x="638" y="-150" type="line" smooth="yes"/>
      <point x="638" y="-161"/>
      <point x="649" y="-171"/>
      <point x="660" y="-172" type="curve" smooth="yes"/>
      <point x="714" y="-176" type="line"/>
      <point x="714" y="-219" type="line"/>
      <point x="463" y="-219" type="line"/>
      <point x="463" y="-176" type="line"/>
      <point x="515" y="-170" type="line" smooth="yes"/>
      <point x="526" y="-169"/>
      <point x="537" y="-160"/>
      <point x="537" y="-149" type="curve" smooth="yes"/>
      <point x="537" y="457" type="line" smooth="yes"/>
      <point x="537" y="530"/>
      <point x="498" y="573"/>
      <point x="444" y="593" type="curve" smooth="yes"/>
      <point x="425" y="600"/>
      <point x="404" y="604"/>
    </contour>
  </outline>
</glyph>
<glyph name="uni023B" format="1">
  <advance width="626"/>
  <unicode hex="023B"/>
  <outline>
    <contour>
      <point x="228" y="110" type="line"/>
      <point x="229" y="110" type="line"/>
      <point x="269" y="67"/>
      <point x="328" y="39"/>
      <point x="408" y="39" type="curve" smooth="yes"/>
      <point x="436" y="39"/>
      <point x="463" y="44"/>
      <point x="481" y="53" type="curve" smooth="yes"/>
      <point x="485" y="55"/>
      <point x="487" y="56"/>
      <point x="488" y="56" type="curve" smooth="yes"/>
      <point x="498" y="60"/>
      <point x="504" y="67"/>
      <point x="507" y="76" type="curve" smooth="yes"/>
      <point x="530" y="185" type="line"/>
      <point x="588" y="185" type="line"/>
      <point x="588" y="23" type="line"/>
      <point x="573" y="15"/>
      <point x="549" y="9"/>
      <point x="525" y="3" type="curve" smooth="yes"/>
      <point x="487" y="-7"/>
      <point x="436" y="-16"/>
      <point x="388" y="-16" type="curve" smooth="yes"/>
      <point x="310" y="-16"/>
      <point x="248" y="5"/>
      <point x="198" y="35" type="curve" smooth="yes"/>
      <point x="187" y="42" type="line"/>
      <point x="115" y="-79" type="line"/>
      <point x="69" y="-51" type="line"/>
      <point x="145" y="76" type="line"/>
      <point x="129" y="92" type="line"/>
      <point x="78" y="150"/>
      <point x="39" y="230"/>
      <point x="39" y="336" type="curve" smooth="yes"/>
      <point x="39" y="447"/>
      <point x="79" y="531"/>
      <point x="136" y="589" type="curve" smooth="yes"/>
      <point x="193" y="647"/>
      <point x="278" y="687"/>
      <point x="389" y="687" type="curve" smooth="yes"/>
      <point x="423" y="687"/>
      <point x="453" y="683"/>
      <point x="482" y="677" type="curve" smooth="yes"/>
      <point x="499" y="673" type="line"/>
      <point x="544" y="748" type="line"/>
      <point x="591" y="720" type="line"/>
      <point x="554" y="658" type="line"/>
      <point x="565" y="655"/>
      <point x="576" y="652"/>
      <point x="588" y="648" type="curve"/>
      <point x="588" y="491" type="line"/>
      <point x="528" y="491" type="line"/>
      <point x="513" y="582" type="line" smooth="yes"/>
      <point x="513" y="583"/>
      <point x="513" y="585"/>
      <point x="512" y="587" type="curve" smooth="yes"/>
    </contour>
    <contour>
      <point x="467" y="618" type="line"/>
      <point x="468" y="618" type="line"/>
      <point x="446" y="623"/>
      <point x="424" y="631"/>
      <point x="396" y="631" type="curve" smooth="yes"/>
      <point x="275" y="631"/>
      <point x="204" y="558"/>
      <point x="173" y="464" type="curve" smooth="yes"/>
      <point x="161" y="427"/>
      <point x="155" y="385"/>
      <point x="155" y="337" type="curve" smooth="yes"/>
      <point x="155" y="265"/>
      <point x="169" y="206"/>
      <point x="194" y="158" type="curve"/>
    </contour>
  </outline>
</glyph>
<glyph name="uni023F" format="1">
  <advance width="397"/>
  <unicode hex="023F"/>
  <outline>
    <contour>
      <point x="213" y="446" type="curve"/>
      <point x="212" y="443" type="line"/>
      <point x="163" y="443"/>
      <point x="131" y="421"/>
      <point x="131" y="376" type="curve" smooth="yes"/>
      <point x="131" y="332"/>
      <point x="159" y="315"/>
      <point x="189" y="298" type="curve" smooth="yes"/>
      <point x="246" y="267"/>
      <point x="327" y="245"/>
      <point x="354" y="185" type="curve" smooth="yes"/>
      <point x="360" y="172"/>
      <point x="363" y="158"/>
      <point x="363" y="142" type="curve" smooth="yes"/>
      <point x="363" y="33"/>
      <point x="281" y="-15"/>
      <point x="172" y="-15" type="curve" smooth="yes"/>
      <point x="164" y="-15"/>
      <point x="152" y="-14"/>
      <point x="146" y="-12" type="curve"/>
      <point x="160" y="-22"/>
      <point x="173" y="-45"/>
      <point x="185" y="-63" type="curve" smooth="yes"/>
      <point x="207" y="-97"/>
      <point x="230" y="-138"/>
      <point x="258" y="-165" type="curve" smooth="yes"/>
      <point x="266" y="-172"/>
      <point x="273" y="-176"/>
      <point x="280" y="-176" type="curve"/>
      <point x="359" y="-114" type="line"/>
      <point x="380" y="-122"/>
      <point x="397" y="-138"/>
      <point x="397" y="-169" type="curve" smooth="yes"/>
      <point x="397" y="-210"/>
      <point x="359" y="-231"/>
      <point x="317" y="-231" type="curve" smooth="yes"/>
      <point x="260" y="-231"/>
      <point x="222" y="-201"/>
      <point x="194" y="-168" type="curve" smooth="yes"/>
      <point x="165" y="-134"/>
      <point x="140" y="-90"/>
      <point x="115" y="-52" type="curve" smooth="yes"/>
      <point x="103" y="-34"/>
      <point x="91" y="-19"/>
      <point x="78" y="-7" type="curve" smooth="yes"/>
      <point x="65" y="5"/>
      <point x="50" y="11"/>
      <point x="33" y="11" type="curve"/>
      <point x="33" y="144" type="line"/>
      <point x="84" y="144" type="line"/>
      <point x="96" y="59" type="line"/>
      <point x="117" y="45"/>
      <point x="148" y="31"/>
      <point x="185" y="31" type="curve" smooth="yes"/>
      <point x="235" y="31"/>
      <point x="275" y="60"/>
      <point x="275" y="109" type="curve" smooth="yes"/>
      <point x="275" y="140"/>
      <point x="261" y="157"/>
      <point x="242" y="171" type="curve" smooth="yes"/>
      <point x="217" y="191"/>
      <point x="186" y="204"/>
      <point x="153" y="220" type="curve" smooth="yes"/>
      <point x="109" y="243"/>
      <point x="66" y="264"/>
      <point x="47" y="308" type="curve" smooth="yes"/>
      <point x="42" y="320"/>
      <point x="40" y="333"/>
      <point x="40" y="348" type="curve" smooth="yes"/>
      <point x="40" y="449"/>
      <point x="118" y="493"/>
      <point x="220" y="493" type="curve" smooth="yes"/>
      <point x="261" y="493"/>
      <point x="297" y="486"/>
      <point x="328" y="478" type="curve" smooth="yes"/>
      <point x="337" y="476"/>
      <point x="344" y="474"/>
      <point x="349" y="471" type="curve"/>
      <point x="349" y="353" type="line"/>
      <point x="297" y="353" type="line"/>
      <point x="289" y="423" type="line"/>
      <point x="273" y="434"/>
      <point x="241" y="446"/>
    </contour>
  </outline>
</glyph>
<glyph name="uni0240" format="1">
  <advance width="461"/>
  <unicode hex="0240"/>
  <outline>
    <contour>
      <point x="456" y="-167" type="curve"/>
      <point x="455" y="-167" type="line"/>
      <point x="455" y="-208"/>
      <point x="417" y="-229"/>
      <point x="375" y="-229" type="curve" smooth="yes"/>
      <point x="322" y="-229"/>
      <point x="282" y="-198"/>
      <point x="252" y="-170" type="curve" smooth="yes"/>
      <point x="201" y="-123"/>
      <point x="158" y="-59"/>
      <point x="105" y="-18" type="curve" smooth="yes"/>
      <point x="90" y="-7"/>
      <point x="76" y="-1"/>
      <point x="63" y="-1" type="curve" smooth="yes"/>
      <point x="33" y="-1" type="line"/>
      <point x="33" y="52" type="line"/>
      <point x="298" y="434" type="line"/>
      <point x="124" y="434" type="line" smooth="yes"/>
      <point x="114" y="434"/>
      <point x="105" y="422"/>
      <point x="104" y="413" type="curve" smooth="yes"/>
      <point x="94" y="339" type="line"/>
      <point x="43" y="339" type="line"/>
      <point x="43" y="481" type="line"/>
      <point x="413" y="481" type="line"/>
      <point x="413" y="440" type="line"/>
      <point x="139" y="47" type="line"/>
      <point x="148" y="44"/>
      <point x="159" y="36"/>
      <point x="171" y="24" type="curve" smooth="yes"/>
      <point x="210" y="-17"/>
      <point x="248" y="-74"/>
      <point x="283" y="-121" type="curve" smooth="yes"/>
      <point x="294" y="-136"/>
      <point x="305" y="-149"/>
      <point x="315" y="-159" type="curve" smooth="yes"/>
      <point x="325" y="-169"/>
      <point x="333" y="-174"/>
      <point x="339" y="-174" type="curve" smooth="yes"/>
      <point x="418" y="-112" type="line"/>
      <point x="439" y="-120"/>
      <point x="456" y="-136"/>
    </contour>
  </outline>
</glyph>
<glyph name="uni0255" format="1">
  <advance width="465"/>
  <unicode hex="0255"/>
  <outline>
    <contour>
      <point x="321" y="439" type="line"/>
      <point x="321" y="440" type="line"/>
      <point x="310" y="447"/>
      <point x="295" y="453"/>
      <point x="279" y="453" type="curve" smooth="yes"/>
      <point x="201" y="453"/>
      <point x="163" y="395"/>
      <point x="146" y="331" type="curve" smooth="yes"/>
      <point x="139" y="306"/>
      <point x="136" y="279"/>
      <point x="136" y="250" type="curve" smooth="yes"/>
      <point x="136" y="167"/>
      <point x="161" y="100"/>
      <point x="214" y="70" type="curve"/>
      <point x="228" y="125"/>
      <point x="252" y="175"/>
      <point x="298" y="198" type="curve" smooth="yes"/>
      <point x="313" y="205"/>
      <point x="331" y="209"/>
      <point x="351" y="209" type="curve" smooth="yes"/>
      <point x="392" y="209"/>
      <point x="419" y="185"/>
      <point x="432" y="155" type="curve" smooth="yes"/>
      <point x="437" y="144"/>
      <point x="439" y="132"/>
      <point x="439" y="119" type="curve" smooth="yes"/>
      <point x="439" y="77"/>
      <point x="415" y="45"/>
      <point x="389" y="25" type="curve" smooth="yes"/>
      <point x="360" y="2"/>
      <point x="318" y="-13"/>
      <point x="268" y="-13" type="curve" smooth="yes"/>
      <point x="256" y="-13" type="line" smooth="yes"/>
      <point x="252" y="-13"/>
      <point x="248" y="-13"/>
      <point x="244" y="-12" type="curve"/>
      <point x="237" y="-48"/>
      <point x="231" y="-88"/>
      <point x="231" y="-129" type="curve"/>
      <point x="188" y="-129" type="line"/>
      <point x="188" y="-87"/>
      <point x="194" y="-42"/>
      <point x="200" y="-3" type="curve"/>
      <point x="123" y="18"/>
      <point x="71" y="77"/>
      <point x="47" y="152" type="curve" smooth="yes"/>
      <point x="39" y="178"/>
      <point x="35" y="207"/>
      <point x="35" y="238" type="curve" smooth="yes"/>
      <point x="35" y="361"/>
      <point x="94" y="443"/>
      <point x="183" y="477" type="curve" smooth="yes"/>
      <point x="212" y="488"/>
      <point x="243" y="494"/>
      <point x="275" y="494" type="curve" smooth="yes"/>
      <point x="340" y="494"/>
      <point x="392" y="476"/>
      <point x="417" y="436" type="curve" smooth="yes"/>
      <point x="425" y="423"/>
      <point x="429" y="409"/>
      <point x="429" y="393" type="curve" smooth="yes"/>
      <point x="429" y="357"/>
      <point x="406" y="335"/>
      <point x="371" y="335" type="curve" smooth="yes"/>
      <point x="349" y="335"/>
      <point x="334" y="343"/>
      <point x="321" y="351" type="curve"/>
    </contour>
    <contour>
      <point x="259" y="55" type="curve"/>
      <point x="258" y="55" type="line" smooth="yes"/>
      <point x="273" y="52"/>
      <point x="284" y="50"/>
      <point x="301" y="50" type="curve" smooth="yes"/>
      <point x="337" y="50"/>
      <point x="364" y="73"/>
      <point x="377" y="97" type="curve" smooth="yes"/>
      <point x="382" y="106"/>
      <point x="385" y="115"/>
      <point x="385" y="124" type="curve" smooth="yes"/>
      <point x="385" y="147"/>
      <point x="370" y="164"/>
      <point x="347" y="164" type="curve" smooth="yes"/>
      <point x="288" y="164"/>
      <point x="271" y="102"/>
    </contour>
  </outline>
</glyph>
<glyph name="uni025B" format="1">
  <advance width="438"/>
  <unicode hex="025B"/>
  <outline>
    <contour>
      <point x="131" y="136" type="curve" smooth="yes"/>
      <point x="131" y="70"/>
      <point x="171" y="37"/>
      <point x="240" y="37" type="curve" smooth="yes"/>
      <point x="319" y="37"/>
      <point x="374" y="81"/>
      <point x="415" y="120" type="curve"/>
      <point x="415" y="62" type="line"/>
      <point x="380" y="31"/>
      <point x="335" y="6"/>
      <point x="284" y="-7" type="curve" smooth="yes"/>
      <point x="269" y="-11"/>
      <point x="255" y="-13"/>
      <point x="241" y="-13" type="curve" smooth="yes"/>
      <point x="121" y="-13"/>
      <point x="34" y="24"/>
      <point x="34" y="134" type="curve" smooth="yes"/>
      <point x="34" y="205"/>
      <point x="90" y="236"/>
      <point x="153" y="244" type="curve"/>
      <point x="111" y="258"/>
      <point x="78" y="287"/>
      <point x="64" y="328" type="curve" smooth="yes"/>
      <point x="60" y="340"/>
      <point x="58" y="351"/>
      <point x="58" y="362" type="curve" smooth="yes"/>
      <point x="58" y="405"/>
      <point x="83" y="436"/>
      <point x="109" y="456" type="curve" smooth="yes"/>
      <point x="138" y="478"/>
      <point x="180" y="493"/>
      <point x="230" y="493" type="curve" smooth="yes"/>
      <point x="302" y="493"/>
      <point x="367" y="477"/>
      <point x="396" y="435" type="curve" smooth="yes"/>
      <point x="405" y="422"/>
      <point x="409" y="408"/>
      <point x="409" y="392" type="curve" smooth="yes"/>
      <point x="409" y="366"/>
      <point x="393" y="348"/>
      <point x="375" y="339" type="curve" smooth="yes"/>
      <point x="369" y="336"/>
      <point x="363" y="334"/>
      <point x="356" y="334" type="curve" smooth="yes"/>
      <point x="332" y="334"/>
      <point x="314" y="342"/>
      <point x="303" y="355" type="curve"/>
      <point x="303" y="426" type="line"/>
      <point x="291" y="442"/>
      <point x="274" y="453"/>
      <point x="245" y="453" type="curve" smooth="yes"/>
      <point x="190" y="453"/>
      <point x="153" y="419"/>
      <point x="153" y="363" type="curve" smooth="yes"/>
      <point x="153" y="292"/>
      <point x="193" y="259"/>
      <point x="264" y="259" type="curve"/>
      <point x="264" y="216" type="line"/>
      <point x="233" y="216" type="line" smooth="yes"/>
      <point x="172" y="216"/>
      <point x="131" y="198"/>
    </contour>
  </outline>
</glyph>
<glyph name="uni026A" format="1">
  <advance width="277"/>
  <unicode hex="026A"/>
  <outline>
    <contour>
      <point x="27" y="0" type="line"/>
      <point x="27" y="39" type="line"/>
      <point x="75" y="42" type="line" smooth="yes"/>
      <point x="83" y="43"/>
      <point x="93" y="49"/>
      <point x="93" y="57" type="curve" smooth="yes"/>
      <point x="93" y="424" type="line" smooth="yes"/>
      <point x="93" y="432"/>
      <point x="83" y="438"/>
      <point x="75" y="439" type="curve" smooth="yes"/>
      <point x="27" y="443" type="line"/>
      <point x="27" y="482" type="line"/>
      <point x="251" y="482" type="line"/>
      <point x="251" y="443" type="line"/>
      <point x="203" y="439" type="line" smooth="yes"/>
      <point x="195" y="438"/>
      <point x="186" y="432"/>
      <point x="186" y="424" type="curve" smooth="yes"/>
      <point x="186" y="57" type="line" smooth="yes"/>
      <point x="186" y="49"/>
      <point x="195" y="43"/>
      <point x="203" y="42" type="curve" smooth="yes"/>
      <point x="251" y="39" type="line"/>
      <point x="251" y="0" type="line"/>
    </contour>
  </outline>
</glyph>
<glyph name="uni0270" format="1">
  <advance width="850"/>
  <unicode hex="0270"/>
  <outline>
    <contour>
      <point x="560" y="61" type="curve"/>
      <point x="560" y="59" type="line"/>
      <point x="602" y="59"/>
      <point x="640" y="73"/>
      <point x="667" y="88" type="curve"/>
      <point x="667" y="416" type="line" smooth="yes"/>
      <point x="667" y="428"/>
      <point x="657" y="437"/>
      <point x="646" y="438" type="curve" smooth="yes"/>
      <point x="604" y="441" type="line"/>
      <point x="604" y="480" type="line"/>
      <point x="830" y="480" type="line"/>
      <point x="830" y="441" type="line"/>
      <point x="780" y="438" type="line" smooth="yes"/>
      <point x="769" y="437"/>
      <point x="759" y="429"/>
      <point x="759" y="417" type="curve" smooth="yes"/>
      <point x="759" y="-160" type="line"/>
      <point x="829" y="-160" type="line"/>
      <point x="829" y="-193" type="line"/>
      <point x="708" y="-230" type="line"/>
      <point x="667" y="-230" type="line"/>
      <point x="667" y="49" type="line"/>
      <point x="631" y="28"/>
      <point x="590" y="6"/>
      <point x="545" y="-6" type="curve" smooth="yes"/>
      <point x="530" y="-10"/>
      <point x="516" y="-12"/>
      <point x="503" y="-12" type="curve" smooth="yes"/>
      <point x="458" y="-12"/>
      <point x="430" y="8"/>
      <point x="410" y="32" type="curve" smooth="yes"/>
      <point x="403" y="40"/>
      <point x="398" y="48"/>
      <point x="394" y="57" type="curve"/>
      <point x="357" y="35"/>
      <point x="311" y="9"/>
      <point x="264" y="-5" type="curve" smooth="yes"/>
      <point x="248" y="-10"/>
      <point x="233" y="-12"/>
      <point x="220" y="-12" type="curve" smooth="yes"/>
      <point x="129" y="-12"/>
      <point x="90" y="52"/>
      <point x="90" y="141" type="curve" smooth="yes"/>
      <point x="90" y="418" type="line" smooth="yes"/>
      <point x="90" y="430"/>
      <point x="80" y="438"/>
      <point x="69" y="439" type="curve" smooth="yes"/>
      <point x="21" y="442" type="line"/>
      <point x="21" y="481" type="line"/>
      <point x="245" y="481" type="line"/>
      <point x="245" y="442" type="line"/>
      <point x="204" y="439" type="line" smooth="yes"/>
      <point x="193" y="438"/>
      <point x="183" y="430"/>
      <point x="183" y="418" type="curve" smooth="yes"/>
      <point x="183" y="163" type="line" smooth="yes"/>
      <point x="183" y="99"/>
      <point x="208" y="61"/>
      <point x="272" y="61" type="curve" smooth="yes"/>
      <point x="314" y="61"/>
      <point x="349" y="75"/>
      <point x="378" y="89" type="curve"/>
      <point x="378" y="418" type="line" smooth="yes"/>
      <point x="378" y="430"/>
      <point x="368" y="438"/>
      <point x="357" y="439" type="curve" smooth="yes"/>
      <point x="315" y="442" type="line"/>
      <point x="315" y="481" type="line"/>
      <point x="534" y="481" type="line"/>
      <point x="534" y="442" type="line"/>
      <point x="492" y="439" type="line" smooth="yes"/>
      <point x="481" y="438"/>
      <point x="471" y="430"/>
      <point x="471" y="418" type="curve" smooth="yes"/>
      <point x="471" y="157" type="line" smooth="yes"/>
      <point x="471" y="97"/>
      <point x="499" y="61"/>
    </contour>
  </outline>
</glyph>
<glyph name="uni0278" format="1">
  <advance width="548"/>
  <unicode hex="0278"/>
  <outline>
    <contour>
      <point x="228" y="438" type="line"/>
      <point x="227" y="439" type="line"/>
      <point x="163" y="411"/>
      <point x="134" y="335"/>
      <point x="134" y="243" type="curve" smooth="yes"/>
      <point x="134" y="172"/>
      <point x="154" y="115"/>
      <point x="188" y="77" type="curve" smooth="yes"/>
      <point x="200" y="64"/>
      <point x="213" y="54"/>
      <point x="228" y="47" type="curve"/>
    </contour>
    <contour>
      <point x="320" y="48" type="line"/>
      <point x="321" y="48" type="line"/>
      <point x="384" y="75"/>
      <point x="414" y="152"/>
      <point x="414" y="242" type="curve" smooth="yes"/>
      <point x="414" y="313"/>
      <point x="394" y="370"/>
      <point x="360" y="408" type="curve" smooth="yes"/>
      <point x="348" y="421"/>
      <point x="335" y="431"/>
      <point x="320" y="438" type="curve"/>
    </contour>
    <contour>
      <point x="343" y="629" type="line"/>
      <point x="342" y="629" type="line" smooth="yes"/>
      <point x="333" y="629"/>
      <point x="320" y="618"/>
      <point x="320" y="609" type="curve" smooth="yes"/>
      <point x="320" y="490" type="line"/>
      <point x="413" y="474"/>
      <point x="474" y="415"/>
      <point x="501" y="332" type="curve" smooth="yes"/>
      <point x="510" y="304"/>
      <point x="515" y="274"/>
      <point x="515" y="243" type="curve" smooth="yes"/>
      <point x="515" y="138"/>
      <point x="468" y="65"/>
      <point x="401" y="25" type="curve" smooth="yes"/>
      <point x="377" y="10"/>
      <point x="350" y="0"/>
      <point x="321" y="-5" type="curve"/>
      <point x="321" y="-155" type="line" smooth="yes"/>
      <point x="321" y="-166"/>
      <point x="334" y="-173"/>
      <point x="343" y="-175" type="curve" smooth="yes"/>
      <point x="396" y="-179" type="line"/>
      <point x="396" y="-217" type="line"/>
      <point x="153" y="-217" type="line"/>
      <point x="153" y="-179" type="line"/>
      <point x="207" y="-175" type="line" smooth="yes"/>
      <point x="216" y="-175"/>
      <point x="228" y="-164"/>
      <point x="228" y="-154" type="curve" smooth="yes"/>
      <point x="228" y="-4" type="line"/>
      <point x="135" y="10"/>
      <point x="73" y="71"/>
      <point x="47" y="152" type="curve" smooth="yes"/>
      <point x="38" y="180"/>
      <point x="34" y="210"/>
      <point x="34" y="242" type="curve" smooth="yes"/>
      <point x="34" y="347"/>
      <point x="81" y="420"/>
      <point x="147" y="461" type="curve" smooth="yes"/>
      <point x="171" y="476"/>
      <point x="198" y="486"/>
      <point x="228" y="491" type="curve"/>
      <point x="228" y="609" type="line" smooth="yes"/>
      <point x="228" y="618"/>
      <point x="215" y="628"/>
      <point x="207" y="629" type="curve" smooth="yes"/>
      <point x="153" y="634" type="line"/>
      <point x="153" y="672" type="line"/>
      <point x="396" y="672" type="line"/>
      <point x="396" y="634" type="line"/>
    </contour>
  </outline>
</glyph>
<glyph name="uni027B" format="1">
  <advance width="391"/>
  <unicode hex="027B"/>
  <outline>
    <contour>
      <point x="427" y="-104" type="line"/>
      <point x="426" y="-104" type="line"/>
      <point x="448" y="-114"/>
      <point x="468" y="-130"/>
      <point x="468" y="-162" type="curve" smooth="yes"/>
      <point x="468" y="-195"/>
      <point x="432" y="-216"/>
      <point x="406" y="-224" type="curve" smooth="yes"/>
      <point x="395" y="-227"/>
      <point x="385" y="-229"/>
      <point x="375" y="-229" type="curve" smooth="yes"/>
      <point x="241" y="-229"/>
      <point x="203" y="-132"/>
      <point x="203" y="2" type="curve" smooth="yes"/>
      <point x="203" y="89" type="line"/>
      <point x="175" y="59"/>
      <point x="144" y="21"/>
      <point x="107" y="0" type="curve" smooth="yes"/>
      <point x="94" y="-7"/>
      <point x="82" y="-11"/>
      <point x="71" y="-11" type="curve" smooth="yes"/>
      <point x="49" y="-11"/>
      <point x="25" y="-5"/>
      <point x="10" y="4" type="curve"/>
      <point x="10" y="103" type="line"/>
      <point x="49" y="103" type="line"/>
      <point x="62" y="89"/>
      <point x="77" y="76"/>
      <point x="103" y="76" type="curve" smooth="yes"/>
      <point x="119" y="76"/>
      <point x="135" y="82"/>
      <point x="152" y="93" type="curve" smooth="yes"/>
      <point x="169" y="104"/>
      <point x="186" y="119"/>
      <point x="203" y="138" type="curve"/>
      <point x="203" y="419" type="line" smooth="yes"/>
      <point x="203" y="431"/>
      <point x="193" y="439"/>
      <point x="182" y="440" type="curve" smooth="yes"/>
      <point x="116" y="443" type="line"/>
      <point x="116" y="482" type="line"/>
      <point x="366" y="482" type="line"/>
      <point x="366" y="444" type="line"/>
      <point x="317" y="440" type="line" smooth="yes"/>
      <point x="306" y="439"/>
      <point x="296" y="431"/>
      <point x="296" y="419" type="curve" smooth="yes"/>
      <point x="296" y="-6" type="line" smooth="yes"/>
      <point x="296" y="-58"/>
      <point x="302" y="-112"/>
      <point x="318" y="-150" type="curve" smooth="yes"/>
      <point x="324" y="-165"/>
      <point x="333" y="-176"/>
      <point x="344" y="-183" type="curve"/>
    </contour>
  </outline>
</glyph>
<glyph name="uni027E" format="1">
  <advance width="388"/>
  <unicode hex="027E"/>
  <outline>
    <contour>
      <point x="69" y="44" type="line"/>
      <point x="68" y="44" type="line" smooth="yes"/>
      <point x="76" y="44"/>
      <point x="89" y="56"/>
      <point x="89" y="64" type="curve" smooth="yes"/>
      <point x="89" y="308" type="line" smooth="yes"/>
      <point x="89" y="396"/>
      <point x="134" y="454"/>
      <point x="197" y="480" type="curve" smooth="yes"/>
      <point x="220" y="489"/>
      <point x="246" y="494"/>
      <point x="275" y="494" type="curve" smooth="yes"/>
      <point x="323" y="494"/>
      <point x="366" y="480"/>
      <point x="366" y="435" type="curve" smooth="yes"/>
      <point x="366" y="403"/>
      <point x="346" y="385"/>
      <point x="323" y="376" type="curve"/>
      <point x="243" y="446" type="line"/>
      <point x="184" y="446"/>
      <point x="183" y="371"/>
      <point x="183" y="308" type="curve" smooth="yes"/>
      <point x="183" y="64" type="line" smooth="yes"/>
      <point x="183" y="55"/>
      <point x="196" y="44"/>
      <point x="205" y="44" type="curve" smooth="yes"/>
      <point x="254" y="39" type="line"/>
      <point x="254" y="0" type="line"/>
      <point x="21" y="0" type="line"/>
      <point x="21" y="39" type="line"/>
    </contour>
  </outline>
</glyph>
<glyph name="uni0287" format="1">
  <advance width="339"/>
  <unicode hex="0287"/>
  <outline>
    <contour>
      <point x="142" y="494" type="curve" smooth="yes"/>
      <point x="141" y="494" type="line" smooth="yes"/>
      <point x="217" y="494"/>
      <point x="248" y="459"/>
      <point x="248" y="382" type="curve" smooth="yes"/>
      <point x="248" y="50" type="line"/>
      <point x="312" y="50" type="line"/>
      <point x="312" y="17" type="line"/>
      <point x="244" y="-15" type="line"/>
      <point x="199" y="-121" type="line"/>
      <point x="155" y="-121" type="line"/>
      <point x="155" y="0" type="line"/>
      <point x="14" y="0" type="line"/>
      <point x="14" y="50" type="line"/>
      <point x="155" y="50" type="line"/>
      <point x="155" y="329" type="line" smooth="yes"/>
      <point x="155" y="394"/>
      <point x="138" y="438"/>
      <point x="75" y="438" type="curve" smooth="yes"/>
      <point x="46" y="438"/>
      <point x="25" y="430"/>
      <point x="5" y="421" type="curve"/>
      <point x="5" y="461" type="line"/>
      <point x="42" y="478"/>
      <point x="87" y="494"/>
    </contour>
  </outline>
</glyph>
<glyph name="uni0290" format="1">
  <advance width="461"/>
  <unicode hex="0290"/>
  <outline>
    <contour>
      <point x="556" y="-107" type="line"/>
      <point x="557" y="-107" type="line"/>
      <point x="578" y="-118"/>
      <point x="601" y="-130"/>
      <point x="601" y="-163" type="curve" smooth="yes"/>
      <point x="601" y="-194"/>
      <point x="575" y="-214"/>
      <point x="550" y="-223" type="curve" smooth="yes"/>
      <point x="539" y="-227"/>
      <point x="526" y="-229"/>
      <point x="511" y="-229" type="curve" smooth="yes"/>
      <point x="429" y="-229"/>
      <point x="378" y="-203"/>
      <point x="378" y="-122" type="curve" smooth="yes"/>
      <point x="378" y="0" type="line"/>
      <point x="35" y="0" type="line"/>
      <point x="35" y="53" type="line"/>
      <point x="300" y="434" type="line"/>
      <point x="126" y="434" type="line" smooth="yes"/>
      <point x="116" y="434"/>
      <point x="107" y="422"/>
      <point x="106" y="413" type="curve" smooth="yes"/>
      <point x="97" y="340" type="line"/>
      <point x="45" y="340" type="line"/>
      <point x="45" y="482" type="line"/>
      <point x="415" y="482" type="line"/>
      <point x="415" y="441" type="line"/>
      <point x="141" y="48" type="line"/>
      <point x="343" y="48" type="line" smooth="yes"/>
      <point x="354" y="48"/>
      <point x="361" y="63"/>
      <point x="363" y="72" type="curve" smooth="yes"/>
      <point x="374" y="151" type="line"/>
      <point x="428" y="151" type="line"/>
      <point x="428" y="-112" type="line" smooth="yes"/>
      <point x="428" y="-147"/>
      <point x="433" y="-173"/>
      <point x="462" y="-173" type="curve"/>
    </contour>
  </outline>
</glyph>
<glyph name="uni0299" format="1">
  <advance width="501"/>
  <unicode hex="0299"/>
  <outline>
    <contour>
      <point x="224" y="43" type="line"/>
      <point x="223" y="42" type="line"/>
      <point x="306" y="42"/>
      <point x="371" y="58"/>
      <point x="371" y="138" type="curve" smooth="yes"/>
      <point x="371" y="206"/>
      <point x="319" y="225"/>
      <point x="246" y="225" type="curve" smooth="yes"/>
      <point x="228" y="225" type="line" smooth="yes"/>
      <point x="212" y="225"/>
      <point x="195" y="223"/>
      <point x="180" y="223" type="curve"/>
      <point x="180" y="44" type="line"/>
      <point x="189" y="44" type="line"/>
      <point x="201" y="43" type="line"/>
      <point x="213" y="43" type="line"/>
    </contour>
    <contour>
      <point x="202" y="268" type="line" smooth="yes"/>
      <point x="277" y="268"/>
      <point x="338" y="284"/>
      <point x="338" y="357" type="curve" smooth="yes"/>
      <point x="338" y="419"/>
      <point x="288" y="439"/>
      <point x="219" y="439" type="curve" smooth="yes"/>
      <point x="207" y="439"/>
      <point x="190" y="438"/>
      <point x="179" y="438" type="curve"/>
      <point x="179" y="268" type="line"/>
    </contour>
    <contour>
      <point x="467" y="143" type="curve" smooth="yes"/>
      <point x="467" y="144" type="line" smooth="yes"/>
      <point x="467" y="34"/>
      <point x="368" y="0"/>
      <point x="259" y="0" type="curve" smooth="yes"/>
      <point x="29" y="0" type="line"/>
      <point x="29" y="39" type="line"/>
      <point x="74" y="42" type="line" smooth="yes"/>
      <point x="83" y="43"/>
      <point x="89" y="48"/>
      <point x="89" y="57" type="curve" smooth="yes"/>
      <point x="89" y="425" type="line" smooth="yes"/>
      <point x="89" y="434"/>
      <point x="83" y="439"/>
      <point x="74" y="440" type="curve" smooth="yes"/>
      <point x="29" y="443" type="line"/>
      <point x="29" y="482" type="line"/>
      <point x="249" y="482" type="line" smooth="yes"/>
      <point x="312" y="482"/>
      <point x="359" y="472"/>
      <point x="389" y="451" type="curve" smooth="yes"/>
      <point x="419" y="430"/>
      <point x="434" y="401"/>
      <point x="434" y="364" type="curve" smooth="yes"/>
      <point x="434" y="302"/>
      <point x="387" y="275"/>
      <point x="342" y="258" type="curve"/>
      <point x="394" y="253"/>
      <point x="436" y="230"/>
      <point x="456" y="192" type="curve" smooth="yes"/>
      <point x="463" y="178"/>
      <point x="467" y="162"/>
    </contour>
  </outline>
</glyph>
<glyph name="uni029A" format="1">
  <advance width="496"/>
  <unicode hex="029A"/>
  <outline>
    <contour>
      <point x="233" y="216" type="line"/>
      <point x="233" y="215" type="line"/>
      <point x="172" y="215"/>
      <point x="131" y="197"/>
      <point x="131" y="135" type="curve" smooth="yes"/>
      <point x="131" y="74"/>
      <point x="179" y="36"/>
      <point x="240" y="36" type="curve" smooth="yes"/>
      <point x="286" y="36"/>
      <point x="323" y="63"/>
      <point x="348" y="91" type="curve" smooth="yes"/>
      <point x="380" y="128"/>
      <point x="401" y="182"/>
      <point x="401" y="251" type="curve" smooth="yes"/>
      <point x="401" y="346"/>
      <point x="363" y="414"/>
      <point x="297" y="441" type="curve" smooth="yes"/>
      <point x="278" y="449"/>
      <point x="259" y="453"/>
      <point x="240" y="453" type="curve" smooth="yes"/>
      <point x="188" y="453"/>
      <point x="153" y="416"/>
      <point x="153" y="363" type="curve" smooth="yes"/>
      <point x="153" y="291"/>
      <point x="193" y="259"/>
      <point x="264" y="259" type="curve"/>
      <point x="264" y="216" type="line"/>
    </contour>
    <contour>
      <point x="241" y="-13" type="curve" smooth="yes"/>
      <point x="121" y="-13"/>
      <point x="34" y="24"/>
      <point x="34" y="134" type="curve" smooth="yes"/>
      <point x="34" y="204"/>
      <point x="89" y="239"/>
      <point x="153" y="245" type="curve"/>
      <point x="111" y="259"/>
      <point x="78" y="288"/>
      <point x="64" y="329" type="curve" smooth="yes"/>
      <point x="60" y="341"/>
      <point x="58" y="352"/>
      <point x="58" y="363" type="curve" smooth="yes"/>
      <point x="58" y="407"/>
      <point x="84" y="437"/>
      <point x="112" y="457" type="curve" smooth="yes"/>
      <point x="143" y="479"/>
      <point x="189" y="494"/>
      <point x="240" y="494" type="curve" smooth="yes"/>
      <point x="350" y="494"/>
      <point x="416" y="429"/>
      <point x="445" y="347" type="curve" smooth="yes"/>
      <point x="456" y="317"/>
      <point x="461" y="285"/>
      <point x="461" y="251" type="curve" smooth="yes"/>
      <point x="461" y="176"/>
      <point x="435" y="112"/>
      <point x="401" y="68" type="curve" smooth="yes"/>
      <point x="367" y="24"/>
      <point x="314" y="-13"/>
    </contour>
  </outline>
</glyph>
<glyph name="uni029C" format="1">
  <advance width="604"/>
  <unicode hex="029C"/>
  <outline>
    <contour>
      <point x="365" y="0" type="line"/>
      <point x="365" y="41" type="line"/>
      <point x="414" y="44" type="line" smooth="yes"/>
      <point x="423" y="45"/>
      <point x="430" y="50"/>
      <point x="430" y="58" type="curve" smooth="yes"/>
      <point x="430" y="232" type="line"/>
      <point x="175" y="232" type="line"/>
      <point x="175" y="58" type="line" smooth="yes"/>
      <point x="175" y="50"/>
      <point x="184" y="44"/>
      <point x="192" y="43" type="curve" smooth="yes"/>
      <point x="241" y="40" type="line"/>
      <point x="241" y="1" type="line"/>
      <point x="21" y="1" type="line"/>
      <point x="21" y="40" type="line"/>
      <point x="70" y="43" type="line" smooth="yes"/>
      <point x="79" y="44"/>
      <point x="85" y="49"/>
      <point x="85" y="58" type="curve" smooth="yes"/>
      <point x="85" y="426" type="line" smooth="yes"/>
      <point x="85" y="435"/>
      <point x="79" y="440"/>
      <point x="70" y="441" type="curve" smooth="yes"/>
      <point x="21" y="444" type="line"/>
      <point x="21" y="483" type="line"/>
      <point x="241" y="483" type="line"/>
      <point x="241" y="444" type="line"/>
      <point x="192" y="441" type="line" smooth="yes"/>
      <point x="184" y="440"/>
      <point x="175" y="434"/>
      <point x="175" y="426" type="curve" smooth="yes"/>
      <point x="175" y="276" type="line"/>
      <point x="430" y="276" type="line"/>
      <point x="430" y="426" type="line" smooth="yes"/>
      <point x="430" y="434"/>
      <point x="423" y="439"/>
      <point x="414" y="440" type="curve" smooth="yes"/>
      <point x="365" y="443" type="line"/>
      <point x="365" y="482" type="line"/>
      <point x="585" y="482" type="line"/>
      <point x="585" y="443" type="line"/>
      <point x="537" y="440" type="line" smooth="yes"/>
      <point x="529" y="439"/>
      <point x="520" y="433"/>
      <point x="520" y="425" type="curve" smooth="yes"/>
      <point x="520" y="57" type="line" smooth="yes"/>
      <point x="520" y="49"/>
      <point x="529" y="43"/>
      <point x="537" y="42" type="curve" smooth="yes"/>
      <point x="585" y="39" type="line"/>
      <point x="585" y="0" type="line"/>
    </contour>
  </outline>
</glyph>
<glyph name="uni029F" format="1">
  <advance width="440"/>
  <unicode hex="029F"/>
  <outline>
    <contour>
      <point x="343" y="44" type="line"/>
      <point x="343" y="45" type="line"/>
      <point x="366" y="45"/>
      <point x="369" y="95"/>
      <point x="369" y="119" type="curve" smooth="yes"/>
      <point x="369" y="129"/>
      <point x="369" y="136"/>
      <point x="370" y="140" type="curve"/>
      <point x="424" y="140" type="line"/>
      <point x="424" y="0" type="line"/>
      <point x="26" y="0" type="line"/>
      <point x="26" y="39" type="line"/>
      <point x="75" y="42" type="line" smooth="yes"/>
      <point x="84" y="43"/>
      <point x="90" y="53"/>
      <point x="90" y="62" type="curve" smooth="yes"/>
      <point x="90" y="425" type="line" smooth="yes"/>
      <point x="90" y="434"/>
      <point x="84" y="439"/>
      <point x="75" y="440" type="curve" smooth="yes"/>
      <point x="26" y="443" type="line"/>
      <point x="26" y="482" type="line"/>
      <point x="240" y="482" type="line"/>
      <point x="240" y="443" type="line"/>
      <point x="198" y="440" type="line" smooth="yes"/>
      <point x="190" y="439"/>
      <point x="181" y="433"/>
      <point x="181" y="425" type="curve" smooth="yes"/>
      <point x="181" y="44" type="line"/>
    </contour>
  </outline>
</glyph>
<glyph name="uni02A7" format="1">
  <advance width="575"/>
  <unicode hex="02A7"/>
  <outline>
    <contour>
      <point x="198" y="-12" type="curve"/>
      <point x="196" y="-10" type="line"/>
      <point x="119" y="-10"/>
      <point x="89" y="24"/>
      <point x="89" y="102" type="curve" smooth="yes"/>
      <point x="89" y="434" type="line"/>
      <point x="25" y="434" type="line"/>
      <point x="25" y="467" type="line"/>
      <point x="93" y="499" type="line"/>
      <point x="138" y="605" type="line"/>
      <point x="182" y="605" type="line"/>
      <point x="182" y="484" type="line"/>
      <point x="319" y="484" type="line"/>
      <point x="313" y="534" type="line" smooth="yes"/>
      <point x="300" y="628"/>
      <point x="343" y="694"/>
      <point x="406" y="723" type="curve" smooth="yes"/>
      <point x="429" y="734"/>
      <point x="456" y="739"/>
      <point x="487" y="739" type="curve" smooth="yes"/>
      <point x="524" y="739"/>
      <point x="556" y="731"/>
      <point x="569" y="708" type="curve" smooth="yes"/>
      <point x="572" y="702"/>
      <point x="574" y="696"/>
      <point x="574" y="689" type="curve" smooth="yes"/>
      <point x="574" y="659"/>
      <point x="558" y="639"/>
      <point x="537" y="631" type="curve"/>
      <point x="450" y="682" type="line"/>
      <point x="419" y="667"/>
      <point x="402" y="648"/>
      <point x="403" y="602" type="curve" smooth="yes"/>
      <point x="403" y="586"/>
      <point x="405" y="567"/>
      <point x="408" y="544" type="curve" smooth="yes"/>
      <point x="480" y="-23" type="line" smooth="yes"/>
      <point x="491" y="-118"/>
      <point x="451" y="-181"/>
      <point x="388" y="-211" type="curve" smooth="yes"/>
      <point x="365" y="-222"/>
      <point x="338" y="-227"/>
      <point x="307" y="-227" type="curve" smooth="yes"/>
      <point x="276" y="-227"/>
      <point x="254" y="-222"/>
      <point x="240" y="-213" type="curve" smooth="yes"/>
      <point x="226" y="-204"/>
      <point x="219" y="-193"/>
      <point x="219" y="-180" type="curve" smooth="yes"/>
      <point x="219" y="-150"/>
      <point x="234" y="-130"/>
      <point x="256" y="-122" type="curve"/>
      <point x="344" y="-174" type="line"/>
      <point x="375" y="-159"/>
      <point x="392" y="-138"/>
      <point x="392" y="-92" type="curve" smooth="yes"/>
      <point x="392" y="-77"/>
      <point x="390" y="-58"/>
      <point x="387" y="-35" type="curve" smooth="yes"/>
      <point x="327" y="432" type="line"/>
      <point x="183" y="432" type="line"/>
      <point x="183" y="153" type="line" smooth="yes"/>
      <point x="183" y="88"/>
      <point x="200" y="44"/>
      <point x="263" y="44" type="curve" smooth="yes"/>
      <point x="291" y="44"/>
      <point x="314" y="51"/>
      <point x="332" y="61" type="curve"/>
      <point x="332" y="21" type="line"/>
      <point x="296" y="4"/>
      <point x="252" y="-12"/>
    </contour>
  </outline>
</glyph>
<glyph name="uni02AA" format="1">
  <advance width="598"/>
  <unicode hex="02AA"/>
  <outline>
    <contour>
      <point x="373" y="-12" type="curve"/>
      <point x="373" y="-13" type="line"/>
      <point x="336" y="-13"/>
      <point x="299" y="-8"/>
      <point x="270" y="-1" type="curve"/>
      <point x="27" y="-1" type="line"/>
      <point x="27" y="38" type="line"/>
      <point x="80" y="41" type="line" smooth="yes"/>
      <point x="89" y="41"/>
      <point x="102" y="53"/>
      <point x="102" y="62" type="curve" smooth="yes"/>
      <point x="102" y="664" type="line"/>
      <point x="26" y="664" type="line"/>
      <point x="26" y="697" type="line"/>
      <point x="154" y="736" type="line"/>
      <point x="195" y="736" type="line"/>
      <point x="195" y="62" type="line" smooth="yes"/>
      <point x="195" y="53"/>
      <point x="207" y="41"/>
      <point x="216" y="41" type="curve" smooth="yes"/>
      <point x="234" y="40" type="line"/>
      <point x="234" y="145" type="line"/>
      <point x="285" y="145" type="line"/>
      <point x="297" y="60" type="line"/>
      <point x="318" y="46"/>
      <point x="349" y="32"/>
      <point x="386" y="32" type="curve" smooth="yes"/>
      <point x="436" y="32"/>
      <point x="476" y="61"/>
      <point x="476" y="110" type="curve" smooth="yes"/>
      <point x="476" y="159"/>
      <point x="440" y="179"/>
      <point x="405" y="196" type="curve" smooth="yes"/>
      <point x="349" y="223"/>
      <point x="272" y="250"/>
      <point x="248" y="308" type="curve" smooth="yes"/>
      <point x="243" y="320"/>
      <point x="241" y="333"/>
      <point x="241" y="348" type="curve" smooth="yes"/>
      <point x="241" y="449"/>
      <point x="319" y="493"/>
      <point x="421" y="493" type="curve" smooth="yes"/>
      <point x="461" y="493"/>
      <point x="498" y="486"/>
      <point x="529" y="477" type="curve" smooth="yes"/>
      <point x="537" y="475"/>
      <point x="544" y="473"/>
      <point x="549" y="470" type="curve"/>
      <point x="549" y="352" type="line"/>
      <point x="497" y="352" type="line"/>
      <point x="489" y="422" type="line"/>
      <point x="473" y="434"/>
      <point x="442" y="445"/>
      <point x="413" y="445" type="curve" smooth="yes"/>
      <point x="364" y="445"/>
      <point x="332" y="423"/>
      <point x="332" y="378" type="curve" smooth="yes"/>
      <point x="332" y="334"/>
      <point x="360" y="318"/>
      <point x="391" y="301" type="curve" smooth="yes"/>
      <point x="448" y="271"/>
      <point x="528" y="247"/>
      <point x="555" y="188" type="curve" smooth="yes"/>
      <point x="561" y="175"/>
      <point x="564" y="161"/>
      <point x="564" y="145" type="curve" smooth="yes"/>
      <point x="564" y="36"/>
      <point x="483" y="-12"/>
    </contour>
  </outline>
</glyph>
<glyph name="uni02B2" format="1">
  <advance width="200"/>
  <unicode hex="02B2"/>
  <outline>
    <contour>
      <point x="40" y="280" type="line"/>
      <point x="66" y="295"/>
      <point x="71" y="336"/>
      <point x="71" y="377" type="curve" smooth="yes"/>
      <point x="71" y="637" type="line"/>
      <point x="25" y="637" type="line"/>
      <point x="25" y="656" type="line"/>
      <point x="104" y="679" type="line"/>
      <point x="131" y="679" type="line"/>
      <point x="131" y="429" type="line" smooth="yes"/>
      <point x="131" y="382"/>
      <point x="125" y="338"/>
      <point x="106" y="309" type="curve" smooth="yes"/>
      <point x="83" y="277"/>
      <point x="48" y="252"/>
      <point x="-2" y="252" type="curve" smooth="yes"/>
      <point x="-27" y="252"/>
      <point x="-51" y="262"/>
      <point x="-51" y="286" type="curve" smooth="yes"/>
      <point x="-51" y="305"/>
      <point x="-37" y="316"/>
      <point x="-23" y="320" type="curve"/>
    </contour>
    <contour>
      <point x="99" y="808" type="curve" smooth="yes"/>
      <point x="120" y="808"/>
      <point x="138" y="792"/>
      <point x="138" y="771" type="curve" smooth="yes"/>
      <point x="138" y="750"/>
      <point x="120" y="734"/>
      <point x="99" y="734" type="curve" smooth="yes"/>
      <point x="78" y="734"/>
      <point x="59" y="750"/>
      <point x="59" y="771" type="curve" smooth="yes"/>
      <point x="59" y="791"/>
      <point x="78" y="808"/>
    </contour>
  </outline>
</glyph>
<glyph name="uni02B9" format="1">
  <advance width="250"/>
  <unicode hex="02B9"/>
  <outline>
    <contour>
      <point x="202" y="687" type="curve" smooth="yes"/>
      <point x="230" y="687"/>
      <point x="251" y="674"/>
      <point x="251" y="646" type="curve" smooth="yes"/>
      <point x="251" y="635"/>
      <point x="247" y="625"/>
      <point x="242" y="619" type="curve" smooth="yes"/>
      <point x="85" y="407" type="line"/>
      <point x="25" y="407" type="line"/>
      <point x="143" y="655" type="line" smooth="yes"/>
      <point x="155" y="671"/>
      <point x="174" y="687"/>
    </contour>
  </outline>
</glyph>
<glyph name="uni02BA" format="1">
  <advance width="426"/>
  <unicode hex="02BA"/>
  <outline>
    <contour>
      <point x="186" y="733" type="curve"/>
      <point x="186" y="732" type="line"/>
      <point x="215" y="732"/>
      <point x="232" y="715"/>
      <point x="232" y="687" type="curve" smooth="yes"/>
      <point x="232" y="667"/>
      <point x="221" y="656"/>
      <point x="208" y="648" type="curve" smooth="yes"/>
      <point x="57" y="551" type="line"/>
      <point x="0" y="551" type="line"/>
      <point x="133" y="706" type="line" smooth="yes"/>
      <point x="147" y="720"/>
      <point x="157" y="733"/>
    </contour>
    <contour>
      <point x="381" y="732" type="curve"/>
      <point x="381" y="733" type="line"/>
      <point x="410" y="733"/>
      <point x="427" y="716"/>
      <point x="427" y="688" type="curve" smooth="yes"/>
      <point x="427" y="668"/>
      <point x="416" y="656"/>
      <point x="404" y="647" type="curve" smooth="yes"/>
      <point x="252" y="550" type="line"/>
      <point x="195" y="550" type="line"/>
      <point x="329" y="705" type="line" smooth="yes"/>
      <point x="342" y="722"/>
      <point x="353" y="732"/>
    </contour>
  </outline>
</glyph>
<glyph name="uni02BF" format="1">
  <advance width="273"/>
  <unicode hex="02BF"/>
  <outline>
    <contour>
      <point x="99" y="521" type="curve"/>
      <point x="98" y="520" type="line"/>
      <point x="98" y="441"/>
      <point x="144" y="395"/>
      <point x="223" y="395" type="curve"/>
      <point x="223" y="345" type="line"/>
      <point x="113" y="345"/>
      <point x="48" y="410"/>
      <point x="48" y="520" type="curve" smooth="yes"/>
      <point x="48" y="603"/>
      <point x="88" y="657"/>
      <point x="148" y="682" type="curve" smooth="yes"/>
      <point x="170" y="691"/>
      <point x="195" y="696"/>
      <point x="224" y="696" type="curve"/>
      <point x="224" y="645" type="line"/>
      <point x="146" y="645"/>
      <point x="99" y="599"/>
    </contour>
  </outline>
</glyph>
<glyph name="uni02C1" format="1">
  <advance width="308"/>
  <unicode hex="02C1"/>
  <outline>
    <contour>
      <point x="278" y="730" type="curve" smooth="yes"/>
      <point x="277" y="728" type="line"/>
      <point x="277" y="707"/>
      <point x="265" y="694"/>
      <point x="242" y="694" type="curve" smooth="yes"/>
      <point x="229" y="694"/>
      <point x="221" y="697"/>
      <point x="214" y="703" type="curve"/>
      <point x="196" y="755" type="line"/>
      <point x="186" y="762"/>
      <point x="174" y="766"/>
      <point x="158" y="766" type="curve" smooth="yes"/>
      <point x="114" y="766"/>
      <point x="90" y="724"/>
      <point x="90" y="680" type="curve" smooth="yes"/>
      <point x="90" y="633"/>
      <point x="122" y="601"/>
      <point x="152" y="583" type="curve" smooth="yes"/>
      <point x="163" y="577"/>
      <point x="174" y="572"/>
      <point x="185" y="569" type="curve"/>
      <point x="185" y="419" type="line" smooth="yes"/>
      <point x="185" y="413"/>
      <point x="195" y="408"/>
      <point x="200" y="407" type="curve" smooth="yes"/>
      <point x="233" y="404" type="line"/>
      <point x="233" y="381" type="line"/>
      <point x="77" y="381" type="line"/>
      <point x="77" y="404" type="line"/>
      <point x="111" y="407" type="line" smooth="yes"/>
      <point x="116" y="408"/>
      <point x="125" y="413"/>
      <point x="125" y="419" type="curve" smooth="yes"/>
      <point x="125" y="563" type="line"/>
      <point x="86" y="569"/>
      <point x="52" y="596"/>
      <point x="35" y="627" type="curve" smooth="yes"/>
      <point x="28" y="640"/>
      <point x="25" y="655"/>
      <point x="25" y="672" type="curve" smooth="yes"/>
      <point x="25" y="733"/>
      <point x="61" y="769"/>
      <point x="107" y="785" type="curve" smooth="yes"/>
      <point x="123" y="791"/>
      <point x="141" y="794"/>
      <point x="160" y="794" type="curve" smooth="yes"/>
      <point x="208" y="794"/>
      <point x="249" y="779"/>
      <point x="269" y="752" type="curve" smooth="yes"/>
      <point x="275" y="744"/>
      <point x="278" y="737"/>
    </contour>
  </outline>
</glyph>
<glyph name="uni02CA" format="1">
  <advance width="231"/>
  <unicode hex="02CA"/>
  <outline>
    <contour>
      <point x="186" y="733" type="curve" smooth="yes"/>
      <point x="187" y="733" type="line" smooth="yes"/>
      <point x="216" y="733"/>
      <point x="233" y="716"/>
      <point x="233" y="688" type="curve" smooth="yes"/>
      <point x="233" y="669"/>
      <point x="221" y="657"/>
      <point x="210" y="648" type="curve" smooth="yes"/>
      <point x="57" y="551" type="line"/>
      <point x="1" y="551" type="line"/>
      <point x="133" y="706" type="line" smooth="yes"/>
      <point x="147" y="720"/>
      <point x="157" y="733"/>
    </contour>
  </outline>
</glyph>
<glyph name="uni02D0" format="1">
  <advance width="254"/>
  <unicode hex="02D0"/>
  <outline>
    <contour>
      <point x="43" y="0" type="line"/>
      <point x="93" y="159" type="line"/>
      <point x="162" y="159" type="line"/>
      <point x="212" y="0" type="line"/>
    </contour>
    <contour>
      <point x="162" y="322" type="line"/>
      <point x="93" y="322" type="line"/>
      <point x="43" y="481" type="line"/>
      <point x="212" y="481" type="line"/>
    </contour>
  </outline>
</glyph>
<glyph name="uni02D5" format="1">
  <advance width="395"/>
  <unicode hex="02D5"/>
  <outline>
    <contour>
      <point x="218" y="315" type="line"/>
      <point x="218" y="115" type="line"/>
      <point x="178" y="115" type="line"/>
      <point x="178" y="315" type="line"/>
      <point x="58" y="315" type="line"/>
      <point x="58" y="355" type="line"/>
      <point x="337" y="355" type="line"/>
      <point x="337" y="315" type="line"/>
    </contour>
  </outline>
</glyph>
<glyph name="uni02E1" format="1">
  <advance width="203"/>
  <unicode hex="02E1"/>
  <outline>
    <contour>
      <point x="23" y="383" type="line"/>
      <point x="23" y="406" type="line"/>
      <point x="58" y="408" type="line" smooth="yes"/>
      <point x="63" y="409"/>
      <point x="72" y="414"/>
      <point x="72" y="420" type="curve" smooth="yes"/>
      <point x="72" y="782" type="line"/>
      <point x="22" y="782" type="line"/>
      <point x="22" y="802" type="line"/>
      <point x="105" y="825" type="line"/>
      <point x="132" y="825" type="line"/>
      <point x="132" y="420" type="line" smooth="yes"/>
      <point x="132" y="414"/>
      <point x="141" y="409"/>
      <point x="146" y="408" type="curve" smooth="yes"/>
      <point x="181" y="406" type="line"/>
      <point x="181" y="383" type="line"/>
    </contour>
  </outline>
</glyph>
<glyph name="uni02E2" format="1">
  <advance width="264"/>
  <unicode hex="02E2"/>
  <outline>
    <contour>
      <point x="141" y="650" type="curve" smooth="yes"/>
      <point x="144" y="650" type="line" smooth="yes"/>
      <point x="113" y="650"/>
      <point x="91" y="638"/>
      <point x="91" y="610" type="curve" smooth="yes"/>
      <point x="91" y="583"/>
      <point x="109" y="574"/>
      <point x="129" y="565" type="curve" smooth="yes"/>
      <point x="167" y="548"/>
      <point x="216" y="532"/>
      <point x="235" y="496" type="curve" smooth="yes"/>
      <point x="239" y="489"/>
      <point x="241" y="480"/>
      <point x="241" y="470" type="curve" smooth="yes"/>
      <point x="241" y="405"/>
      <point x="187" y="376"/>
      <point x="117" y="376" type="curve" smooth="yes"/>
      <point x="83" y="376"/>
      <point x="50" y="381"/>
      <point x="26" y="391" type="curve"/>
      <point x="26" y="471" type="line"/>
      <point x="60" y="471" type="line"/>
      <point x="67" y="419" type="line"/>
      <point x="82" y="410"/>
      <point x="101" y="403"/>
      <point x="126" y="403" type="curve" smooth="yes"/>
      <point x="157" y="403"/>
      <point x="184" y="420"/>
      <point x="184" y="450" type="curve" smooth="yes"/>
      <point x="184" y="478"/>
      <point x="159" y="491"/>
      <point x="138" y="500" type="curve" smooth="yes"/>
      <point x="109" y="513"/>
      <point x="71" y="529"/>
      <point x="49" y="548" type="curve" smooth="yes"/>
      <point x="38" y="558"/>
      <point x="30" y="572"/>
      <point x="30" y="592" type="curve" smooth="yes"/>
      <point x="30" y="653"/>
      <point x="81" y="679"/>
      <point x="147" y="679" type="curve" smooth="yes"/>
      <point x="178" y="679"/>
      <point x="211" y="673"/>
      <point x="230" y="665" type="curve"/>
      <point x="230" y="594" type="line"/>
      <point x="197" y="594" type="line"/>
      <point x="191" y="637" type="line"/>
      <point x="180" y="643"/>
      <point x="159" y="650"/>
    </contour>
  </outline>
</glyph>
<glyph name="uni02E9" format="1">
  <advance width="394"/>
  <unicode hex="02E9"/>
  <outline>
    <contour>
      <point x="291" y="723" type="curve" smooth="yes"/>
      <point x="306" y="723"/>
      <point x="319" y="710"/>
      <point x="319" y="695" type="curve" smooth="yes"/>
      <point x="319" y="28" type="line" smooth="yes"/>
      <point x="319" y="13"/>
      <point x="307" y="0"/>
      <point x="292" y="0" type="curve" smooth="yes"/>
      <point x="72" y="0" type="line" smooth="yes"/>
      <point x="57" y="0"/>
      <point x="44" y="13"/>
      <point x="44" y="28" type="curve" smooth="yes"/>
      <point x="44" y="43"/>
      <point x="57" y="56"/>
      <point x="72" y="56" type="curve" smooth="yes"/>
      <point x="263" y="56" type="line"/>
      <point x="263" y="695" type="line" smooth="yes"/>
      <point x="263" y="710"/>
      <point x="276" y="723"/>
    </contour>
  </outline>
</glyph>
<glyph name="uni02F4" format="1">
  <advance width="350"/>
  <unicode hex="02F4"/>
  <outline>
    <contour>
      <point x="0" y="449" type="curve"/>
      <point x="-1" y="450" type="line"/>
      <point x="-1" y="478"/>
      <point x="17" y="495"/>
      <point x="45" y="495" type="curve" smooth="yes"/>
      <point x="75" y="495"/>
      <point x="84" y="483"/>
      <point x="99" y="468" type="curve" smooth="yes"/>
      <point x="232" y="313" type="line"/>
      <point x="175" y="313" type="line"/>
      <point x="23" y="410" type="line" smooth="yes"/>
      <point x="10" y="418"/>
      <point x="0" y="429"/>
    </contour>
  </outline>
</glyph>
<glyph name="uni02F8" format="1">
  <advance width="279"/>
  <unicode hex="02F8"/>
  <outline>
    <contour>
      <point x="196" y="302" type="curve" smooth="yes"/>
      <point x="196" y="264"/>
      <point x="166" y="235"/>
      <point x="128" y="235" type="curve" smooth="yes"/>
      <point x="90" y="235"/>
      <point x="61" y="264"/>
      <point x="61" y="302" type="curve" smooth="yes"/>
      <point x="61" y="334"/>
      <point x="80" y="353"/>
      <point x="102" y="363" type="curve" smooth="yes"/>
      <point x="110" y="367"/>
      <point x="119" y="369"/>
      <point x="128" y="369" type="curve" smooth="yes"/>
      <point x="166" y="369"/>
      <point x="196" y="340"/>
    </contour>
    <contour>
      <point x="196" y="674" type="curve" smooth="yes"/>
      <point x="196" y="636"/>
      <point x="166" y="607"/>
      <point x="128" y="607" type="curve" smooth="yes"/>
      <point x="90" y="607"/>
      <point x="61" y="636"/>
      <point x="61" y="674" type="curve" smooth="yes"/>
      <point x="61" y="706"/>
      <point x="80" y="725"/>
      <point x="102" y="735" type="curve" smooth="yes"/>
      <point x="110" y="739"/>
      <point x="119" y="741"/>
      <point x="128" y="741" type="curve" smooth="yes"/>
      <point x="166" y="741"/>
      <point x="196" y="712"/>
    </contour>
  </outline>
</glyph>
<glyph name="gravecomb" format="1">
  <advance width="0"/>
  <unicode hex="0300"/>
  <outline>
    <contour>
      <point x="-416" y="688" type="curve"/>
      <point x="-417" y="689" type="line"/>
      <point x="-417" y="717"/>
      <point x="-399" y="734"/>
      <point x="-371" y="734" type="curve" smooth="yes"/>
      <point x="-341" y="734"/>
      <point x="-332" y="722"/>
      <point x="-317" y="707" type="curve" smooth="yes"/>
      <point x="-184" y="552" type="line"/>
      <point x="-241" y="552" type="line"/>
      <point x="-393" y="649" type="line" smooth="yes"/>
      <point x="-406" y="657"/>
      <point x="-416" y="668"/>
    </contour>
  </outline>
</glyph>
<glyph name="dotabovecomb" format="1">
  <advance width="0"/>
  <unicode hex="0307"/>
  <outline>
    <contour>
      <point x="-272" y="698" type="curve" smooth="yes"/>
      <point x="-240" y="698"/>
      <point x="-216" y="674"/>
      <point x="-216" y="641" type="curve" smooth="yes"/>
      <point x="-216" y="609"/>
      <point x="-240" y="585"/>
      <point x="-272" y="585" type="curve" smooth="yes"/>
      <point x="-304" y="585"/>
      <point x="-328" y="609"/>
      <point x="-328" y="641" type="curve" smooth="yes"/>
      <point x="-328" y="674"/>
      <point x="-304" y="698"/>
    </contour>
  </outline>
</glyph>
<glyph name="caroncomb" format="1">
  <advance width="0"/>
  <unicode hex="030C"/>
  <outline>
    <contour>
      <point x="-234" y="551" type="line"/>
      <point x="-310" y="551" type="line"/>
      <point x="-436" y="720" type="line"/>
      <point x="-375" y="720" type="line"/>
      <point x="-271" y="621" type="line"/>
      <point x="-168" y="720" type="line"/>
      <point x="-108" y="720" type="line"/>
    </contour>
  </outline>
</glyph>
<glyph name="uni030D" format="1">
  <advance width="0"/>
  <unicode hex="030D"/>
  <outline>
    <contour>
      <point x="-295" y="551" type="line"/>
      <point x="-295" y="722" type="line"/>
      <point x="-249" y="722" type="line"/>
      <point x="-249" y="551" type="line"/>
    </contour>
  </outline>
</glyph>
<glyph name="doublegravecomb" format="1">
  <advance width="0"/>
  <unicode hex="030F"/>
  <outline>
    <contour>
      <point x="-524" y="688" type="curve"/>
      <point x="-525" y="688" type="line"/>
      <point x="-525" y="716"/>
      <point x="-509" y="733"/>
      <point x="-480" y="733" type="curve" smooth="yes"/>
      <point x="-450" y="733"/>
      <point x="-440" y="721"/>
      <point x="-425" y="706" type="curve" smooth="yes"/>
      <point x="-292" y="551" type="line"/>
      <point x="-350" y="551" type="line"/>
      <point x="-501" y="648" type="line" smooth="yes"/>
      <point x="-513" y="657"/>
      <point x="-524" y="668"/>
    </contour>
    <contour>
      <point x="-331" y="688" type="curve" smooth="yes"/>
      <point x="-331" y="689" type="line" smooth="yes"/>
      <point x="-331" y="717"/>
      <point x="-312" y="734"/>
      <point x="-283" y="734" type="curve" smooth="yes"/>
      <point x="-254" y="734"/>
      <point x="-245" y="721"/>
      <point x="-231" y="707" type="curve" smooth="yes"/>
      <point x="-99" y="552" type="line"/>
      <point x="-154" y="552" type="line"/>
      <point x="-306" y="649" type="line" smooth="yes"/>
      <point x="-319" y="657"/>
      <point x="-331" y="668"/>
    </contour>
  </outline>
</glyph>
<glyph name="uni0315" format="1">
  <advance width="125"/>
  <unicode hex="0315"/>
  <outline>
    <contour>
      <point x="55" y="854" type="curve" smooth="yes"/>
      <point x="101" y="854"/>
      <point x="126" y="822"/>
      <point x="126" y="773" type="curve" smooth="yes"/>
      <point x="126" y="697"/>
      <point x="67" y="660"/>
      <point x="2" y="648" type="curve"/>
      <point x="2" y="678" type="line"/>
      <point x="48" y="692"/>
      <point x="74" y="712"/>
      <point x="74" y="771" type="curve"/>
      <point x="15" y="771" type="line" smooth="yes"/>
      <point x="7" y="771"/>
      <point x="0" y="798"/>
      <point x="0" y="808" type="curve" smooth="yes"/>
      <point x="0" y="838"/>
      <point x="25" y="854"/>
    </contour>
  </outline>
</glyph>
<glyph name="righttackbelowcomb" format="1">
  <advance width="0"/>
  <unicode hex="0319"/>
  <outline>
    <contour>
      <point x="-294" y="-171" type="line"/>
      <point x="-294" y="-241" type="line"/>
      <point x="-334" y="-241" type="line"/>
      <point x="-334" y="-61" type="line"/>
      <point x="-294" y="-61" type="line"/>
      <point x="-294" y="-131" type="line"/>
      <point x="-209" y="-131" type="line"/>
      <point x="-209" y="-171" type="line"/>
    </contour>
  </outline>
</glyph>
<glyph name="uni0327" format="1">
  <advance width="0"/>
  <unicode hex="0327"/>
  <outline>
    <contour>
      <point x="-229" y="-59" type="curve" smooth="yes"/>
      <point x="-183" y="-59"/>
      <point x="-157" y="-84"/>
      <point x="-157" y="-130" type="curve" smooth="yes"/>
      <point x="-157" y="-195"/>
      <point x="-207" y="-225"/>
      <point x="-273" y="-225" type="curve" smooth="yes"/>
      <point x="-300" y="-225"/>
      <point x="-326" y="-221"/>
      <point x="-347" y="-215" type="curve"/>
      <point x="-347" y="-176" type="line"/>
      <point x="-329" y="-180"/>
      <point x="-307" y="-184"/>
      <point x="-286" y="-184" type="curve" smooth="yes"/>
      <point x="-254" y="-184"/>
      <point x="-222" y="-175"/>
      <point x="-222" y="-143" type="curve" smooth="yes"/>
      <point x="-222" y="-117"/>
      <point x="-242" y="-106"/>
      <point x="-269" y="-106" type="curve" smooth="yes"/>
      <point x="-278" y="-106"/>
      <point x="-285" y="-109"/>
      <point x="-292" y="-112" type="curve"/>
      <point x="-292" y="25" type="line"/>
      <point x="-252" y="25" type="line"/>
      <point x="-252" y="-63" type="line"/>
      <point x="-244" y="-61"/>
      <point x="-239" y="-59"/>
    </contour>
  </outline>
</glyph>
<glyph name="uni0328" format="1">
  <advance width="0"/>
  <unicode hex="0328"/>
  <outline>
    <contour>
      <point x="-205" y="-141" type="curve"/>
      <point x="-205" y="-142" type="line"/>
      <point x="-188" y="-142"/>
      <point x="-175" y="-131"/>
      <point x="-164" y="-124" type="curve"/>
      <point x="-140" y="-164" type="line"/>
      <point x="-160" y="-174"/>
      <point x="-178" y="-181"/>
      <point x="-200" y="-188" type="curve" smooth="yes"/>
      <point x="-210" y="-191"/>
      <point x="-219" y="-192"/>
      <point x="-226" y="-192" type="curve" smooth="yes"/>
      <point x="-282" y="-192"/>
      <point x="-326" y="-172"/>
      <point x="-326" y="-119" type="curve" smooth="yes"/>
      <point x="-326" y="-63"/>
      <point x="-290" y="-21"/>
      <point x="-256" y="1" type="curve"/>
      <point x="-209" y="1" type="line"/>
      <point x="-235" y="-17"/>
      <point x="-263" y="-49"/>
      <point x="-263" y="-92" type="curve" smooth="yes"/>
      <point x="-263" y="-126"/>
      <point x="-240" y="-141"/>
    </contour>
  </outline>
</glyph>
<glyph name="uni0329" format="1">
  <advance width="0"/>
  <unicode hex="0329"/>
  <outline>
    <contour>
      <point x="-295" y="-232" type="line"/>
      <point x="-295" y="-61" type="line"/>
      <point x="-249" y="-61" type="line"/>
      <point x="-249" y="-232" type="line"/>
    </contour>
  </outline>
</glyph>
<glyph name="uni0332" format="1">
  <advance width="0"/>
  <unicode hex="0332"/>
  <outline>
    <contour>
      <point x="63" y="-149" type="line"/>
      <point x="-607" y="-149" type="line"/>
      <point x="-607" y="-85" type="line"/>
      <point x="63" y="-85" type="line"/>
    </contour>
  </outline>
</glyph>
<glyph name="uni0336" format="1">
  <advance width="0"/>
  <unicode hex="0336"/>
  <outline>
    <contour>
      <point x="-574" y="221" type="line"/>
      <point x="-574" y="271" type="line"/>
      <point x="0" y="271" type="line"/>
      <point x="0" y="221" type="line"/>
    </contour>
  </outline>
</glyph>
<glyph name="uni033E" format="1">
  <advance width="0"/>
  <unicode hex="033E"/>
  <outline>
    <contour>
      <point x="-327" y="570" type="line"/>
      <point x="-327" y="567" type="line"/>
      <point x="-301" y="570"/>
      <point x="-279" y="591"/>
      <point x="-279" y="620" type="curve" smooth="yes"/>
      <point x="-279" y="673"/>
      <point x="-309" y="697"/>
      <point x="-323" y="736" type="curve" smooth="yes"/>
      <point x="-326" y="743"/>
      <point x="-327" y="751"/>
      <point x="-327" y="760" type="curve" smooth="yes"/>
      <point x="-327" y="830"/>
      <point x="-272" y="861"/>
      <point x="-217" y="876" type="curve"/>
      <point x="-217" y="836" type="line"/>
      <point x="-239" y="834"/>
      <point x="-253" y="819"/>
      <point x="-261" y="803" type="curve" smooth="yes"/>
      <point x="-264" y="797"/>
      <point x="-265" y="791"/>
      <point x="-265" y="784" type="curve" smooth="yes"/>
      <point x="-265" y="732"/>
      <point x="-233" y="710"/>
      <point x="-220" y="670" type="curve" smooth="yes"/>
      <point x="-218" y="663"/>
      <point x="-217" y="655"/>
      <point x="-217" y="646" type="curve" smooth="yes"/>
      <point x="-217" y="575"/>
      <point x="-271" y="545"/>
      <point x="-327" y="530" type="curve"/>
    </contour>
  </outline>
</glyph>
<glyph name="uni0342" format="1">
  <advance width="0"/>
  <unicode hex="0342"/>
  <outline>
    <contour>
      <point x="-207" y="623" type="curve" smooth="yes"/>
      <point x="-185" y="623"/>
      <point x="-168" y="645"/>
      <point x="-166" y="670" type="curve"/>
      <point x="-134" y="670" type="line"/>
      <point x="-143" y="625"/>
      <point x="-168" y="560"/>
      <point x="-226" y="560" type="curve" smooth="yes"/>
      <point x="-256" y="560"/>
      <point x="-273" y="583"/>
      <point x="-294" y="595" type="curve" smooth="yes"/>
      <point x="-306" y="602"/>
      <point x="-320" y="608"/>
      <point x="-337" y="608" type="curve" smooth="yes"/>
      <point x="-359" y="608"/>
      <point x="-376" y="585"/>
      <point x="-378" y="560" type="curve"/>
      <point x="-410" y="560" type="line"/>
      <point x="-401" y="605"/>
      <point x="-376" y="670"/>
      <point x="-318" y="670" type="curve" smooth="yes"/>
      <point x="-288" y="670"/>
      <point x="-271" y="648"/>
      <point x="-250" y="635" type="curve" smooth="yes"/>
      <point x="-238" y="628"/>
      <point x="-225" y="623"/>
    </contour>
  </outline>
</glyph>
<glyph name="uni0347" format="1">
  <advance width="0"/>
  <unicode hex="0347"/>
  <outline>
    <contour>
      <point x="-460" y="-261" type="line"/>
      <point x="-460" y="-198" type="line"/>
      <point x="-83" y="-198" type="line"/>
      <point x="-83" y="-261" type="line"/>
    </contour>
    <contour>
      <point x="-460" y="-149" type="line"/>
      <point x="-460" y="-85" type="line"/>
      <point x="-83" y="-85" type="line"/>
      <point x="-83" y="-149" type="line"/>
    </contour>
  </outline>
</glyph>
<glyph name="uni0348" format="1">
  <advance width="0"/>
  <unicode hex="0348"/>
  <outline>
    <contour>
      <point x="-356" y="-232" type="line"/>
      <point x="-356" y="-61" type="line"/>
      <point x="-310" y="-61" type="line"/>
      <point x="-310" y="-232" type="line"/>
    </contour>
    <contour>
      <point x="-234" y="-232" type="line"/>
      <point x="-234" y="-61" type="line"/>
      <point x="-188" y="-61" type="line"/>
      <point x="-188" y="-232" type="line"/>
    </contour>
  </outline>
</glyph>
<glyph name="uni034A" format="1">
  <advance width="0"/>
  <unicode hex="034A"/>
  <outline>
    <contour>
      <point x="-200" y="585" type="curve"/>
      <point x="-199" y="586" type="line"/>
      <point x="-228" y="586"/>
      <point x="-251" y="598"/>
      <point x="-273" y="607" type="curve"/>
      <point x="-338" y="541" type="line"/>
      <point x="-369" y="570" type="line"/>
      <point x="-315" y="625" type="line"/>
      <point x="-330" y="630"/>
      <point x="-347" y="634"/>
      <point x="-367" y="634" type="curve" smooth="yes"/>
      <point x="-392" y="634"/>
      <point x="-412" y="618"/>
      <point x="-423" y="603" type="curve" smooth="yes"/>
      <point x="-427" y="597"/>
      <point x="-429" y="591"/>
      <point x="-430" y="585" type="curve"/>
      <point x="-470" y="585" type="line"/>
      <point x="-457" y="631"/>
      <point x="-430" y="668"/>
      <point x="-388" y="686" type="curve" smooth="yes"/>
      <point x="-374" y="692"/>
      <point x="-359" y="695"/>
      <point x="-343" y="695" type="curve" smooth="yes"/>
      <point x="-314" y="695"/>
      <point x="-290" y="682"/>
      <point x="-268" y="672" type="curve"/>
      <point x="-201" y="741" type="line"/>
      <point x="-170" y="712" type="line"/>
      <point x="-225" y="655" type="line"/>
      <point x="-210" y="650"/>
      <point x="-195" y="647"/>
      <point x="-176" y="647" type="curve" smooth="yes"/>
      <point x="-147" y="647"/>
      <point x="-116" y="669"/>
      <point x="-113" y="695" type="curve"/>
      <point x="-73" y="695" type="line"/>
      <point x="-86" y="649"/>
      <point x="-113" y="612"/>
      <point x="-154" y="594" type="curve" smooth="yes"/>
      <point x="-168" y="588"/>
      <point x="-183" y="585"/>
    </contour>
  </outline>
</glyph>
<glyph name="uni0350" format="1">
  <advance width="0"/>
  <unicode hex="0350"/>
  <outline>
    <contour>
      <point x="-493" y="585" type="line"/>
      <point x="-493" y="623" type="line"/>
      <point x="-107" y="742" type="line"/>
      <point x="-493" y="861" type="line"/>
      <point x="-493" y="899" type="line"/>
      <point x="-61" y="761" type="line"/>
      <point x="-61" y="723" type="line"/>
    </contour>
  </outline>
</glyph>
<glyph name="uni0351" format="1">
  <advance width="0"/>
  <unicode hex="0351"/>
  <outline>
    <contour>
      <point x="-286" y="668" type="curve"/>
      <point x="-284" y="669" type="line"/>
      <point x="-284" y="632"/>
      <point x="-257" y="607"/>
      <point x="-221" y="607" type="curve"/>
      <point x="-221" y="571" type="line"/>
      <point x="-265" y="571"/>
      <point x="-296" y="598"/>
      <point x="-311" y="629" type="curve" smooth="yes"/>
      <point x="-317" y="641"/>
      <point x="-320" y="654"/>
      <point x="-320" y="669" type="curve" smooth="yes"/>
      <point x="-320" y="715"/>
      <point x="-293" y="746"/>
      <point x="-259" y="759" type="curve" smooth="yes"/>
      <point x="-247" y="764"/>
      <point x="-235" y="766"/>
      <point x="-222" y="766" type="curve"/>
      <point x="-222" y="731" type="line"/>
      <point x="-252" y="731"/>
      <point x="-270" y="714"/>
      <point x="-280" y="693" type="curve" smooth="yes"/>
      <point x="-284" y="685"/>
      <point x="-286" y="677"/>
    </contour>
  </outline>
</glyph>
<glyph name="uni0353" format="1">
  <advance width="0"/>
  <unicode hex="0353"/>
  <outline>
    <contour>
      <point x="-272" y="-193" type="line"/>
      <point x="-327" y="-248" type="line"/>
      <point x="-359" y="-216" type="line"/>
      <point x="-304" y="-161" type="line"/>
      <point x="-359" y="-106" type="line"/>
      <point x="-327" y="-74" type="line"/>
      <point x="-272" y="-129" type="line"/>
      <point x="-217" y="-74" type="line"/>
      <point x="-185" y="-106" type="line"/>
      <point x="-240" y="-161" type="line"/>
      <point x="-185" y="-216" type="line"/>
      <point x="-217" y="-248" type="line"/>
    </contour>
  </outline>
</glyph>
<glyph name="uni0358" format="1">
  <advance width="136"/>
  <unicode hex="0358"/>
  <outline>
    <contour>
      <point x="56" y="699" type="curve" smooth="yes"/>
      <point x="88" y="699"/>
      <point x="112" y="675"/>
      <point x="112" y="642" type="curve" smooth="yes"/>
      <point x="112" y="610"/>
      <point x="88" y="586"/>
      <point x="56" y="586" type="curve" smooth="yes"/>
      <point x="24" y="586"/>
      <point x="0" y="610"/>
      <point x="0" y="642" type="curve" smooth="yes"/>
      <point x="0" y="675"/>
      <point x="24" y="699"/>
    </contour>
  </outline>
</glyph>
<glyph name="uni0359" format="1">
  <advance width="0"/>
  <unicode hex="0359"/>
  <outline>
    <contour>
      <point x="-308" y="-283" type="line"/>
      <point x="-356" y="-301" type="line"/>
      <point x="-355" y="-250" type="line"/>
      <point x="-284" y="-193" type="line"/>
      <point x="-276" y="-199" type="line"/>
    </contour>
    <contour>
      <point x="-287" y="-183" type="line"/>
      <point x="-378" y="-178" type="line"/>
      <point x="-410" y="-138" type="line"/>
      <point x="-360" y="-124" type="line"/>
      <point x="-284" y="-173" type="line"/>
    </contour>
    <contour>
      <point x="-235" y="-283" type="line"/>
      <point x="-268" y="-199" type="line"/>
      <point x="-259" y="-193" type="line"/>
      <point x="-188" y="-250" type="line"/>
      <point x="-187" y="-301" type="line"/>
    </contour>
    <contour>
      <point x="-267" y="-167" type="line"/>
      <point x="-276" y="-167" type="line"/>
      <point x="-300" y="-79" type="line"/>
      <point x="-271" y="-36" type="line"/>
      <point x="-242" y="-79" type="line"/>
    </contour>
    <contour>
      <point x="-165" y="-178" type="line"/>
      <point x="-255" y="-183" type="line"/>
      <point x="-259" y="-173" type="line"/>
      <point x="-183" y="-124" type="line"/>
      <point x="-134" y="-138" type="line"/>
    </contour>
  </outline>
</glyph>
<glyph name="uni035A" format="1">
  <advance width="0"/>
  <unicode hex="035A"/>
  <outline>
    <contour>
      <point x="-272" y="-252" type="curve"/>
      <point x="-274" y="-254" type="line"/>
      <point x="-293" y="-279"/>
      <point x="-326" y="-301"/>
      <point x="-368" y="-301" type="curve" smooth="yes"/>
      <point x="-423" y="-301"/>
      <point x="-461" y="-268"/>
      <point x="-478" y="-228" type="curve" smooth="yes"/>
      <point x="-484" y="-214"/>
      <point x="-487" y="-198"/>
      <point x="-487" y="-181" type="curve" smooth="yes"/>
      <point x="-487" y="-125"/>
      <point x="-455" y="-89"/>
      <point x="-415" y="-72" type="curve" smooth="yes"/>
      <point x="-400" y="-66"/>
      <point x="-384" y="-63"/>
      <point x="-367" y="-63" type="curve" smooth="yes"/>
      <point x="-325" y="-63"/>
      <point x="-292" y="-84"/>
      <point x="-273" y="-109" type="curve"/>
      <point x="-253" y="-84"/>
      <point x="-222" y="-63"/>
      <point x="-178" y="-63" type="curve" smooth="yes"/>
      <point x="-123" y="-63"/>
      <point x="-85" y="-96"/>
      <point x="-69" y="-135" type="curve" smooth="yes"/>
      <point x="-63" y="-149"/>
      <point x="-60" y="-164"/>
      <point x="-60" y="-181" type="curve" smooth="yes"/>
      <point x="-60" y="-237"/>
      <point x="-92" y="-273"/>
      <point x="-131" y="-290" type="curve" smooth="yes"/>
      <point x="-145" y="-296"/>
      <point x="-160" y="-299"/>
      <point x="-177" y="-299" type="curve" smooth="yes"/>
      <point x="-220" y="-299"/>
      <point x="-252" y="-278"/>
    </contour>
    <contour>
      <point x="-368" y="-252" type="curve" smooth="yes"/>
      <point x="-327" y="-252"/>
      <point x="-301" y="-223"/>
      <point x="-298" y="-185" type="curve" smooth="yes"/>
      <point x="-298" y="-182" type="line" smooth="yes"/>
      <point x="-298" y="-141"/>
      <point x="-328" y="-111"/>
      <point x="-368" y="-111" type="curve" smooth="yes"/>
      <point x="-409" y="-111"/>
      <point x="-439" y="-141"/>
      <point x="-439" y="-182" type="curve" smooth="yes"/>
      <point x="-439" y="-223"/>
      <point x="-409" y="-252"/>
    </contour>
    <contour>
      <point x="-179" y="-111" type="curve" smooth="yes"/>
      <point x="-220" y="-111"/>
      <point x="-247" y="-141"/>
      <point x="-250" y="-179" type="curve" smooth="yes"/>
      <point x="-250" y="-185" type="line" smooth="yes"/>
      <point x="-250" y="-224"/>
      <point x="-218" y="-252"/>
      <point x="-179" y="-252" type="curve" smooth="yes"/>
      <point x="-139" y="-252"/>
      <point x="-109" y="-222"/>
      <point x="-109" y="-182" type="curve" smooth="yes"/>
      <point x="-109" y="-141"/>
      <point x="-139" y="-111"/>
    </contour>
  </outline>
</glyph>
